<svg xmlns="http://www.w3.org/2000/svg" width="661.974" height="478" viewBox="0 0 661.974 478">
  <g id="Group_27" data-name="Group 27" transform="translate(0)">
    <rect id="Rectangle_223" data-name="Rectangle 223" width="5.893" height="232.759" transform="translate(574.817 232.83)" fill="#3f3d56"/>
    <path id="Path_158" data-name="Path 158" d="M1030.419,390.865c.375,81.39-56.887,147.635-56.887,147.635s-57.87-65.715-58.246-147.1,56.887-147.635,56.887-147.635S1030.042,309.475,1030.419,390.865Z" transform="translate(-395.327 -128.373)" fill="#3f3d56"/>
    <rect id="Rectangle_224" data-name="Rectangle 224" width="3.031" height="119.714" transform="translate(459.857 342.347)" fill="#3f3d56"/>
    <path id="Path_159" data-name="Path 159" d="M827.15,597.308c.193,41.861-29.258,75.933-29.258,75.933s-29.764-33.8-29.957-75.659,29.258-75.933,29.258-75.933S826.957,555.448,827.15,597.308Z" transform="translate(-336.293 -239.705)" fill="#3f3d56"/>
    <ellipse id="Ellipse_20" data-name="Ellipse 20" cx="82.113" cy="12.587" rx="82.113" ry="12.587" transform="translate(440.512 452.827)" fill="#3f3d56"/>
    <path id="Path_160" data-name="Path 160" d="M895.151,330.071c-6.957-11.755-20.72-12.3-20.72-12.3s-13.412-1.715-22.015,16.188c-8.019,16.687-19.086,32.8-1.782,36.7l3.126-9.729,1.936,10.453a67.7,67.7,0,0,0,7.4.127c18.532-.6,36.181.175,35.613-6.475C897.957,356.2,901.845,341.381,895.151,330.071Z" transform="translate(-365.754 -158.005)" fill="#2f2e41"/>
    <path id="Path_161" data-name="Path 161" d="M889.234,372.053s8.99,12.587,3.6,22.776,12.587,20.978,12.587,20.978L918.6,387.037s-15.583-10.189-11.388-19.779Z" transform="translate(-384.89 -177.85)" fill="#fbbebe"/>
    <circle id="Ellipse_21" data-name="Ellipse 21" cx="15.583" cy="15.583" r="15.583" transform="translate(494.754 168.43)" fill="#fbbebe"/>
    <path id="Path_162" data-name="Path 162" d="M809.255,365.884l13.023-16.8s4.585-17.612,11.227-16.719-2.623,21.121-2.623,21.121l-12.94,18.6Z" transform="translate(-352.848 -163.857)" fill="#fbbebe"/>
    <path id="Path_163" data-name="Path 163" d="M871.469,708.813l4.2,22.176,8.99,2.4-2.4-26.372Z" transform="translate(-349.144 -283.257)" fill="#fbbebe"/>
    <path id="Path_164" data-name="Path 164" d="M1022.47,666.81l16.183,22.176,6.593,3,5.394-8.99-16.183-20.978Z" transform="translate(-409.641 -265.229)" fill="#fbbebe"/>
    <path id="Path_165" data-name="Path 165" d="M892.193,416.232l-10-13.162s-19.371,3.572-21.169,5.37,4.795,34.763,4.795,34.763,1.2,8.99,6.593,13.785l5.394,3.6,44.353-8.99,1.668-19.734a51.791,51.791,0,0,0-13.655-39.6h0l-7.717,1.055Z" transform="translate(-373.465 -187.866)" fill="#575a89"/>
    <path id="Path_166" data-name="Path 166" d="M835.985,403.63l-3-1.2-13.785-1.2s-4.795-1.2-3.6-3.6,2.4-3,0-3.6-3-1.2-2.4-3,4.2-5.394,4.2-5.394l-10.189-8.391s-.551.39-1.443,1.112c-5.059,4.1-21.066,18.874-9.346,33.651C810.213,429.4,826.4,439.592,839.581,436Z" transform="translate(-346.026 -181.857)" fill="#575a89"/>
    <path id="Path_167" data-name="Path 167" d="M884.585,497.252v8.391s-5.394,10.189-3.6,19.779,2.4,14.385,2.4,14.385a81.832,81.832,0,0,0,4.2,23.974c4.2,11.987-9.59,90.5,7.792,91.7s26.971,2.4,32.365-3.6-8.99-109.084-8.99-109.084,49.148,102.491,59.337,98.3,35.962-13.785,32.965-19.18-78.516-125.267-78.516-125.267l-2.4-5.394Z" transform="translate(-381.44 -227.529)" fill="#2f2e41"/>
    <path id="Path_168" data-name="Path 168" d="M925.177,791.225s-9.59-.6-9.59,2.4-4.795,13.186-4.795,13.186-3.6,11.987,5.994,10.788,15.583-11.987,15.583-11.987l-2.4-11.388Z" transform="translate(-393.263 -347.688)" fill="#2f2e41"/>
    <path id="Path_169" data-name="Path 169" d="M1097,752.232s-8.391-5.394-7.792-1.8,1.2,13.186,5.394,13.785,16.782,4.2,17.381,5.394,14.984,5.994,14.984-1.8-8.99-13.785-8.99-13.785l-10.189-7.792s-6.593-.6-7.792,3.6S1097,752.232,1097,752.232Z" transform="translate(-464.996 -329.672)" fill="#2f2e41"/>
    <circle id="Ellipse_22" data-name="Ellipse 22" cx="9.952" cy="9.952" r="9.952" transform="translate(500.41 149.871)" fill="#2f2e41"/>
    <path id="Path_170" data-name="Path 170" d="M879.521,306.876a9.952,9.952,0,0,1,8.9-9.9,9.952,9.952,0,1,0,0,19.791A9.952,9.952,0,0,1,879.521,306.876Z" transform="translate(-380.16 -149.672)" fill="#2f2e41"/>
    <path id="Path_171" data-name="Path 171" d="M853.9,280.43l-13.6-7.123-18.778,2.914-3.885,17.159,9.671-.372,2.7-6.3v6.2l4.462-.171,2.59-10.036,1.619,10.684,15.864-.324Z" transform="translate(-327.577 -109.497)" fill="#2f2e41"/>
    <path id="Path_172" data-name="Path 172" d="M899.21,496.365l-20.97.567s-17.893,3.482-16.889-3.74,18.46-4.7,18.46-4.7l19.108-2.915Z" transform="translate(-373.703 -225.255)" fill="#fbbebe"/>
    <path id="Path_173" data-name="Path 173" d="M937.347,390.528a4.475,4.475,0,0,1,4.936,3.074c4.105,12.937,16.753,56.228,4.187,62.168-14.8,7-25.6,6.688-25.6,6.688l-5.781-14.234,5.263-4.939,5.619-36.127,2.692-15.314Z" transform="translate(-395.248 -187.153)" fill="#575a89"/>
    <path id="Path_174" data-name="Path 174" d="M882.344,379.515l-2.4,23.974-20.978,8.99,23.375-5.394Z" transform="translate(-344.136 -152.048)" opacity="0.4"/>
    <path id="Path_175" data-name="Path 175" d="M751.022,298.7h0a28.074,28.074,0,0,1,16.394,11.909l1.96,3.036.1.126L803.87,323.84a2.507,2.507,0,0,1,1.715,3.066l-2.67,9.791a2.507,2.507,0,0,1-3.094,1.755l-34.4-9.616h0l-3.455,1.306a30.876,30.876,0,0,1-19.852.675h0Z" transform="translate(-325.947 -150.385)" fill="#3f3d56"/>
    <ellipse id="Ellipse_23" data-name="Ellipse 23" cx="2.1" cy="3.938" rx="2.1" ry="3.938" transform="translate(453.147 176.515) rotate(-73.69)" fill="#575a89"/>
    <circle id="Ellipse_24" data-name="Ellipse 24" cx="1.444" cy="1.444" r="1.444" transform="translate(458.096 174.852)" fill="#3f3d56"/>
    <ellipse id="Ellipse_25" data-name="Ellipse 25" cx="16.836" cy="7.614" rx="16.836" ry="7.614" transform="matrix(0.308, -0.951, 0.951, 0.308, 408.274, 178.183)" fill="#6c63ff"/>
    <path id="Path_176" data-name="Path 176" d="M752.113,316.963c2.764-8.523,2.012-16.466-1.625-18.194a3.532,3.532,0,0,1,.645.143c4,1.3,4.917,9.519,2.049,18.364s-8.436,14.964-12.435,13.667a3.518,3.518,0,0,1-.424-.17C744.256,331.273,749.4,325.342,752.113,316.963Z" transform="translate(-325.23 -150.411)" opacity="0.4"/>
    <path id="Path_177" data-name="Path 177" d="M473.293,199.594l-78.059-60.551a516.605,516.605,0,0,1-39.687-34.395c-22.252-21.21-52.458-38.168-87.628-47.2C182.474,35.517,114.784,74.41,84,131.52,36.949,218.79.894,360.4,209.5,285.023c45.621-16.486,91.8-18.238,126.817-26.922L463.1,231.959Z" transform="translate(-47.766 -51.242)" fill="#ffc400"/>
    <circle id="Ellipse_26" data-name="Ellipse 26" cx="4.196" cy="4.196" r="4.196" transform="translate(186.982 38.069)" fill="#f2f2f2"/>
    <path id="Path_178" data-name="Path 178" d="M453.346,85.965h-1.092V84.873h-.213v1.092h-1.092v.213h1.092V87.27h.213V86.178h1.092Z" transform="translate(-180.668 -34.003)" fill="#f2f2f2"/>
    <path id="Path_179" data-name="Path 179" d="M636.346,237.965h-1.092v-1.092h-.213v1.092h-1.092v.213h1.092v1.092h.213v-1.092h1.092Z" transform="translate(-253.984 -94.9)" fill="#f2f2f2"/>
    <path id="Path_180" data-name="Path 180" d="M623.346,284.965h-1.092v-1.092h-.213v1.092h-1.092v.213h1.092v1.092h.213v-1.092h1.092Z" transform="translate(-248.776 -113.73)" fill="#f2f2f2"/>
    <path id="Path_181" data-name="Path 181" d="M64.346,324.965H63.254v-1.092h-.213v1.092H61.949v.213h1.092v1.092h.213v-1.092h1.092Z" transform="translate(-24.819 -129.756)" fill="#f2f2f2"/>
    <path id="Path_182" data-name="Path 182" d="M144.346,106.965h-1.092v-1.092h-.213v1.092h-1.092v.213h1.092v1.092h.213v-1.092h1.092Z" transform="translate(-56.87 -42.417)" fill="#f2f2f2"/>
    <path id="Path_183" data-name="Path 183" d="M455.346,292.965h-1.092v-1.092h-.213v1.092h-1.092v.213h1.092v1.092h.213v-1.092h1.092Z" transform="translate(-181.469 -116.935)" fill="#f2f2f2"/>
    <path id="Path_184" data-name="Path 184" d="M264.346,42.965h-1.092V41.873h-.213v1.092h-1.092v.213h1.092V44.27h.213V43.178h1.092Z" transform="translate(-104.947 -16.776)" fill="#f2f2f2"/>
    <path id="Path_185" data-name="Path 185" d="M313.506,238.915l-1.361.21c.426,2.721.761,5.5,1.007,8.253l1.373-.12C314.279,244.471,313.937,241.666,313.506,238.915Z" transform="translate(-153.686 -126.431)" fill="#e6e6e6"/>
    <path id="Path_186" data-name="Path 186" d="M307.324,211.575l-1.319.4c.8,2.637,1.51,5.34,2.116,8.031l1.349-.306C308.852,216.981,308.127,214.248,307.324,211.575Z" transform="translate(-151.226 -115.478)" fill="#e6e6e6"/>
    <path id="Path_187" data-name="Path 187" d="M297.458,185.355l-1.253.575c1.151,2.511,2.23,5.089,3.207,7.666l1.289-.485C299.711,190.5,298.626,187.89,297.458,185.355Z" transform="translate(-147.3 -104.973)" fill="#e6e6e6"/>
    <path id="Path_188" data-name="Path 188" d="M284.118,160.775l-1.163.737c1.48,2.325,2.9,4.735,4.22,7.15l1.211-.659C287.055,165.558,285.616,163.124,284.118,160.775Z" transform="translate(-141.992 -95.125)" fill="#e6e6e6"/>
    <path id="Path_189" data-name="Path 189" d="M267.534,138.245l-1.049.893c1.786,2.1,3.524,4.291,5.166,6.509l1.1-.821C271.1,142.584,269.344,140.367,267.534,138.245Z" transform="translate(-135.393 -86.099)" fill="#e6e6e6"/>
    <path id="Path_190" data-name="Path 190" d="M248.042,118.185l-.917,1.025c2.062,1.84,4.082,3.776,6.006,5.748l.989-.965C252.172,122,250.128,120.043,248.042,118.185Z" transform="translate(-127.637 -78.062)" fill="#e6e6e6"/>
    <path id="Path_191" data-name="Path 191" d="M226.018,100.965l-.773,1.139c2.29,1.54,4.555,3.183,6.731,4.879l.851-1.085C230.621,104.184,228.332,102.523,226.018,100.965Z" transform="translate(-118.871 -71.163)" fill="#e6e6e6"/>
    <path id="Path_192" data-name="Path 192" d="M206.4,89.005v1.558c1.432.749,2.853,1.534,4.243,2.338l.689-1.193Q208.91,90.306,206.4,89.005Z" transform="translate(-111.323 -66.372)" fill="#e6e6e6"/>
    <path id="Path_193" data-name="Path 193" d="M314.57,267.2l1.378-.025c.025,1.391.027,2.79.006,4.157l-1.378-.021C314.6,269.963,314.595,268.58,314.57,267.2Z" transform="translate(-154.658 -137.755)" fill="#e6e6e6"/>
    <path id="Path_194" data-name="Path 194" d="M178.506,435.915l-1.361.21c.426,2.721.761,5.5,1.007,8.253l1.373-.12C179.279,441.471,178.937,438.666,178.506,435.915Z" transform="translate(-99.6 -205.357)" fill="#e6e6e6"/>
    <path id="Path_195" data-name="Path 195" d="M172.324,408.575l-1.319.4c.8,2.637,1.51,5.34,2.116,8.031l1.349-.306C173.852,413.981,173.127,411.248,172.324,408.575Z" transform="translate(-97.14 -194.404)" fill="#e6e6e6"/>
    <path id="Path_196" data-name="Path 196" d="M162.458,382.355l-1.253.575c1.151,2.511,2.23,5.089,3.207,7.666l1.289-.486C164.711,387.5,163.626,384.89,162.458,382.355Z" transform="translate(-93.214 -183.899)" fill="#e6e6e6"/>
    <path id="Path_197" data-name="Path 197" d="M149.118,357.775l-1.163.737c1.48,2.326,2.9,4.735,4.219,7.15l1.211-.659C152.055,362.558,150.616,360.125,149.118,357.775Z" transform="translate(-87.905 -174.051)" fill="#e6e6e6"/>
    <path id="Path_198" data-name="Path 198" d="M132.534,335.245l-1.049.893c1.786,2.1,3.524,4.291,5.166,6.509l1.1-.821C136.1,339.584,134.344,337.367,132.534,335.245Z" transform="translate(-81.307 -165.025)" fill="#e6e6e6"/>
    <path id="Path_199" data-name="Path 199" d="M113.042,315.185l-.917,1.025c2.062,1.84,4.082,3.776,6.006,5.748l.989-.965C117.172,319,115.128,317.043,113.042,315.185Z" transform="translate(-73.551 -156.988)" fill="#e6e6e6"/>
    <path id="Path_200" data-name="Path 200" d="M91.018,297.965l-.773,1.139c2.29,1.54,4.555,3.183,6.731,4.879l.851-1.085C95.621,301.184,93.332,299.523,91.018,297.965Z" transform="translate(-64.785 -150.089)" fill="#e6e6e6"/>
    <path id="Path_201" data-name="Path 201" d="M71.4,286.005v1.558c1.432.749,2.853,1.534,4.243,2.337l.689-1.193Q73.91,287.306,71.4,286.005Z" transform="translate(-57.237 -145.297)" fill="#e6e6e6"/>
    <path id="Path_202" data-name="Path 202" d="M179.57,464.2l1.378-.025c.025,1.391.027,2.79.006,4.157l-1.378-.022C179.6,466.963,179.595,465.58,179.57,464.2Z" transform="translate(-100.572 -216.681)" fill="#e6e6e6"/>
    <path id="Path_203" data-name="Path 203" d="M640.505,336.915l-1.361.21c.426,2.721.761,5.5,1.007,8.253l1.373-.12C641.279,342.471,640.937,339.666,640.505,336.915Z" transform="translate(-284.695 -165.694)" fill="#e6e6e6"/>
    <path id="Path_204" data-name="Path 204" d="M634.324,309.575l-1.319.4c.8,2.637,1.51,5.34,2.116,8.031l1.349-.306C635.852,314.981,635.127,312.248,634.324,309.575Z" transform="translate(-282.235 -154.74)" fill="#e6e6e6"/>
    <path id="Path_205" data-name="Path 205" d="M624.458,283.355l-1.253.575c1.151,2.511,2.23,5.089,3.207,7.666l1.289-.485C626.711,288.5,625.626,285.89,624.458,283.355Z" transform="translate(-278.309 -144.236)" fill="#e6e6e6"/>
    <path id="Path_206" data-name="Path 206" d="M611.118,258.775l-1.163.737c1.48,2.326,2.9,4.735,4.22,7.15l1.211-.659C614.055,263.558,612.616,261.124,611.118,258.775Z" transform="translate(-273 -134.388)" fill="#e6e6e6"/>
    <path id="Path_207" data-name="Path 207" d="M594.534,236.245l-1.049.893c1.786,2.1,3.524,4.291,5.166,6.509l1.1-.821C598.1,240.584,596.344,238.367,594.534,236.245Z" transform="translate(-266.402 -125.362)" fill="#e6e6e6"/>
    <path id="Path_208" data-name="Path 208" d="M575.042,216.185l-.917,1.025c2.062,1.84,4.082,3.776,6.006,5.748l.989-.965C579.172,220,577.128,218.043,575.042,216.185Z" transform="translate(-258.645 -117.325)" fill="#e6e6e6"/>
    <path id="Path_209" data-name="Path 209" d="M553.018,198.965l-.773,1.139c2.29,1.54,4.555,3.183,6.731,4.879l.851-1.085C557.621,202.184,555.332,200.523,553.018,198.965Z" transform="translate(-249.88 -110.426)" fill="#e6e6e6"/>
    <path id="Path_210" data-name="Path 210" d="M533.405,187.005v1.558c1.432.749,2.853,1.534,4.243,2.338l.689-1.193Q535.91,188.306,533.405,187.005Z" transform="translate(-242.332 -105.634)" fill="#e6e6e6"/>
    <path id="Path_211" data-name="Path 211" d="M641.57,365.2l1.378-.025c.025,1.391.027,2.79.006,4.157l-1.378-.022C641.6,367.963,641.595,366.58,641.57,365.2Z" transform="translate(-285.666 -177.018)" fill="#e6e6e6"/>
    <path id="Path_212" data-name="Path 212" d="M147.8,199.216h-1.016V198.2h-.2v1.017h-1.017v.2h1.017v1.017h.2v-1.017H147.8Z" transform="translate(-58.322 -79.406)" fill="#f2f2f2"/>
    <path id="Path_213" data-name="Path 213" d="M128.263,301.573h-1.016v-1.017h-.2v1.017h-1.017v.2h1.017v1.016h.2v-1.016h1.016Z" transform="translate(-50.493 -120.414)" fill="#f2f2f2"/>
    <path id="Path_214" data-name="Path 214" d="M70.926,391.28H69.909v-1.016h-.2v1.016H68.695v.2h1.016v1.017h.2v-1.017h1.017Z" transform="translate(-27.522 -156.355)" fill="#f2f2f2"/>
    <path id="Path_215" data-name="Path 215" d="M271.27,252.758a73.608,73.608,0,1,1,34.153,27.422,23.81,23.81,0,1,1-34.153-27.422Z" transform="translate(-132.267 -86.026)" fill="#3f3d56"/>
    <path id="Path_216" data-name="Path 216" d="M362.721,190.679c16.874,0,28.484,9.36,28.484,22.814,0,8.91-4.32,15.074-12.645,19.979-7.83,4.545-10.485,7.875-10.485,13.635h0a3.555,3.555,0,0,1-3.555,3.555h-8.627a3.555,3.555,0,0,1-3.553-3.431l-.015-.439c-.765-9.27,2.475-15.029,10.62-19.8,7.6-4.545,10.8-7.425,10.8-13s-5.4-9.675-12.1-9.675c-5.1,0-9.129,2.481-10.979,6.53a7.943,7.943,0,0,1-7.259,4.539h0A7.808,7.808,0,0,1,336.43,204C340.754,195.829,349.877,190.679,362.721,190.679Zm-11.835,77.128a9.66,9.66,0,1,1,9.63,9.27A9.425,9.425,0,0,1,350.886,267.807Z" transform="translate(-163.057 -107.106)" fill="#ffc400"/>
  </g>
</svg>
