<svg xmlns="http://www.w3.org/2000/svg" width="547.744" height="682.069" viewBox="0 0 547.744 682.069">
  <g id="Group_22" data-name="Group 22" transform="translate(35.776 -906.814)">
    <g id="bee" transform="translate(218.807 906.814)" opacity="0.52">
      <g id="Group_8" data-name="Group 8" transform="translate(177.561 0)">
        <path id="Path_75" data-name="Path 75" d="M325.008,74.593a5.094,5.094,0,0,1-4.884-6.509L333.955,20.6a6.777,6.777,0,0,0-.794-5.125,6.2,6.2,0,0,0-3.97-2.778l-16.565-2.584A5.084,5.084,0,1,1,314.2.063l16.88,2.644a16.428,16.428,0,0,1,10.725,7.408,16.975,16.975,0,0,1,1.967,13.126L329.886,70.929A5.087,5.087,0,0,1,325.008,74.593Z" transform="translate(-308.321 0)" fill="#2c2f38"/>
        <path id="Path_76" data-name="Path 76" d="M449.055,183.281a5.083,5.083,0,0,1-5.015-4.3L441.4,162.1a6.043,6.043,0,0,0-2.723-3.649,6.737,6.737,0,0,0-5.281-.7l-47.283,13.737a5.085,5.085,0,1,1-2.835-9.767l47.439-13.779A16.975,16.975,0,0,1,444,149.787a16.245,16.245,0,0,1,7.386,10.425l2.7,17.2a5.089,5.089,0,0,1-5.03,5.872Z" transform="translate(-338.546 -62.473)" fill="#2c2f38"/>
      </g>
      <path id="Path_77" data-name="Path 77" d="M280.448,246.6c-.61,20.135-12.762,34.88-28.626,44.49a53.576,53.576,0,0,1-46.625,6.355,57.249,57.249,0,0,1-13.728,4.169c-36.1,6.508-52.829-21.66-59.743-39.965h-.051a156.492,156.492,0,0,1-18,12.253,116.455,116.455,0,0,1-37.422,14.135c-19.83,3.559-37.778-.153-49.625-12s-15.558-29.744-12-49.625a116.163,116.163,0,0,1,14.237-37.473,145.819,145.819,0,0,1,12.2-18C22.813,164.027-5.507,147.3,1,111.1A56.838,56.838,0,0,1,5.17,97.419v-.051a53.529,53.529,0,0,1,6.355-46.625c9.559-15.914,24.355-28.067,44.439-28.677a59.046,59.046,0,0,1,12.661,1.221C104.319,30.608,130,63.1,142.961,96.555a47.808,47.808,0,0,1,9.457-13.423c7.779-7.779,22.423-10.525,36.71-11.034a184.5,184.5,0,0,1,29.388,1.729,11.683,11.683,0,0,1,10.576,10.016,199.3,199.3,0,0,1,1.475,29.694c-.559,14.288-3.3,28.931-11.085,36.71a45.808,45.808,0,0,1-13.372,9.356c33.405,13.067,65.845,38.744,73.217,74.387A58.679,58.679,0,0,1,280.448,246.6Z" transform="translate(-0.048 -9.355)" fill="#d1d4d1"/>
      <path id="Path_78" data-name="Path 78" d="M335.775,150.342c-.559,14.288-3.305,28.931-11.085,36.71a45.807,45.807,0,0,1-13.372,9.356c-1.932-.763-3.915-1.475-5.847-2.136a128.34,128.34,0,0,0-14.694-4.22A43.492,43.492,0,0,0,254.625,153.9h-.051a128.346,128.346,0,0,0-4.22-14.695l-.051-.051c-.661-1.932-1.373-3.814-2.136-5.745v-.051a47.805,47.805,0,0,1,9.457-13.423c7.779-7.779,22.423-10.525,36.71-11.034a184.5,184.5,0,0,1,29.389,1.729A11.683,11.683,0,0,1,334.3,120.648,199.234,199.234,0,0,1,335.775,150.342Z" transform="translate(-105.255 -46.159)" fill="#f0c419"/>
      <path id="SVGCleanerId_0" d="M255.78,242.053a78.535,78.535,0,0,1-15.2,15.254A76.988,76.988,0,0,1,255.78,242.053Z" transform="translate(-102.036 -102.635)" fill="#bdc3c7"/>
      <path id="Path_79" data-name="Path 79" d="M395.761,339.955c-.61,20.135-12.762,34.88-28.626,44.49A53.576,53.576,0,0,1,320.51,390.8,42.871,42.871,0,0,0,343.9,366.648a50.536,50.536,0,0,0,2.9-11.135c6.508-43.32-28.525-86.59-60.913-105.555A100.957,100.957,0,0,0,272,242.229a116.771,116.771,0,0,1,17.338,2.136c3.763.559,7.627,1.271,11.542,2.237a128.327,128.327,0,0,1,14.694,4.22c1.932.661,3.915,1.373,5.847,2.136,33.405,13.067,65.845,38.744,73.217,74.387A58.81,58.81,0,0,1,395.761,339.955Z" transform="translate(-115.362 -102.709)" fill="#d1d4d1"/>
      <path id="Path_80" data-name="Path 80" d="M321.823,355.171a50.5,50.5,0,0,1-2.9,11.135,42.871,42.871,0,0,1-23.389,24.151,57.243,57.243,0,0,1-13.728,4.17c-36.1,6.508-52.829-21.66-59.743-39.965a88.806,88.806,0,0,1-4.322-14.593s-15.864-46.829,11.084-82.929l.1-.1a78.528,78.528,0,0,0,15.2-15.254c.1-.051.153-.153.254-.2.407-.305,1.322-.153,2.492.305.051-.051.051,0,.1,0h.051a100.97,100.97,0,0,1,13.881,7.728C293.3,268.581,328.331,311.851,321.823,355.171Z" transform="translate(-90.387 -102.368)" fill="#bdc3c7"/>
      <g id="Group_9" data-name="Group 9" transform="translate(138.541 139.418)">
        <path id="SVGCleanerId_0_1_" d="M255.78,242.053a78.535,78.535,0,0,1-15.2,15.254A76.988,76.988,0,0,1,255.78,242.053Z" transform="translate(-240.577 -242.053)" fill="#bdc3c7"/>
      </g>
      <g id="Group_10" data-name="Group 10" transform="translate(1.42 179.586)">
        <path id="Path_81" data-name="Path 81" d="M40.293,458.464a70.744,70.744,0,0,0-37.78,20.427A70.768,70.768,0,0,0,22.936,441.1Z" transform="translate(-2.513 -366.621)" fill="#2c2f38"/>
        <path id="Path_82" data-name="Path 82" d="M124.407,396.7v.051a116.452,116.452,0,0,1-37.422,14.135A71.226,71.226,0,0,0,25.36,349.264,116.164,116.164,0,0,1,39.6,311.791a99.8,99.8,0,0,1,56.438,28.422A99.385,99.385,0,0,1,124.407,396.7Z" transform="translate(-12.2 -311.791)" fill="#2c2f38"/>
      </g>
      <path id="Path_83" data-name="Path 83" d="M86.032,438.475c-19.83,3.559-37.778-.153-49.625-12s-15.558-29.744-12-49.625a71.226,71.226,0,0,1,61.625,61.625Z" transform="translate(-9.828 -159.791)" fill="#f0c419"/>
      <path id="Path_84" data-name="Path 84" d="M153.995,184.025c-.051.1-.153.153-.2.254a76.971,76.971,0,0,0-15.2,15.254l-.1.1c-36.05,26.948-82.929,11.084-82.929,11.084a90.464,90.464,0,0,1-14.491-4.271C22.813,199.533-5.507,182.805,1,146.6a56.838,56.838,0,0,1,4.17-13.677v-.051a43.186,43.186,0,0,1,24.152-23.389,50.468,50.468,0,0,1,11.135-2.9c43.32-6.508,86.59,28.524,105.5,60.913a100.961,100.961,0,0,1,7.729,13.881v.1C154.148,182.7,154.3,183.618,153.995,184.025Z" transform="translate(-0.048 -44.861)" fill="#bdc3c7"/>
      <path id="Path_85" data-name="Path 85" d="M155.465,145.875a100.962,100.962,0,0,0-7.729-13.881c-18.915-32.389-62.184-67.421-105.5-60.913a50.464,50.464,0,0,0-11.135,2.9A43.186,43.186,0,0,0,6.945,97.368,53.529,53.529,0,0,1,13.3,50.743C22.86,34.829,37.656,22.677,57.74,22.066A59.045,59.045,0,0,1,70.4,23.287c35.694,7.322,61.371,39.812,74.336,73.269v.051c.763,1.932,1.475,3.814,2.136,5.745l.051.051a128.341,128.341,0,0,1,4.22,14.695,107.487,107.487,0,0,1,2.186,11.44A105.277,105.277,0,0,1,155.465,145.875Z" transform="translate(-1.823 -9.355)" fill="#d1d4d1"/>
      <path id="Path_86" data-name="Path 86" d="M295.493,223.208c-3.915-.966-7.779-1.678-11.542-2.237a116.947,116.947,0,0,0-17.338-2.136h-.051c-.051,0-.051-.051-.1,0-1.169-.457-2.084-.61-2.492-.305-.1.051-.153.153-.254.2.051-.1.153-.153.2-.254.305-.407.153-1.322-.305-2.542v-.1a105.253,105.253,0,0,0-2.136-17.338,107.448,107.448,0,0,0-2.186-11.44h.051a43.5,43.5,0,0,1,36.152,36.152Z" transform="translate(-109.971 -79.315)" fill="#2c2f38"/>
      <path id="Path_87" data-name="Path 87" d="M148.616,351.641a88.858,88.858,0,0,0,4.322,14.593h-.051a156.48,156.48,0,0,1-18,12.253v-.051a99.39,99.39,0,0,0-28.372-56.489,99.8,99.8,0,0,0-56.438-28.422,145.832,145.832,0,0,1,12.2-18A90.391,90.391,0,0,0,76.771,279.8S123.65,295.66,159.7,268.712C132.752,304.812,148.616,351.641,148.616,351.641Z" transform="translate(-21.261 -113.938)" fill="#f0c419"/>
    </g>
    <path id="Path_124" data-name="Path 124" d="M313.414,91.414s-99.8,51.011-57.314,205.008S171.137,503.52,59.622,466.349" transform="translate(-94.608 1108.617)" fill="none" stroke="#707070" stroke-width="5" stroke-dasharray="35" opacity="0.52"/>
  </g>
</svg>
