<svg xmlns="http://www.w3.org/2000/svg" width="566.572" height="392.653" viewBox="0 0 566.572 392.653">
  <g id="Group_26" data-name="Group 26" transform="translate(-1314.451 -1359)">
    <path id="Path_20" data-name="Path 20" d="M250.087,1433.74c-84.684,13.695-190.253,116.75-13.044,268.716,113.783,4.568,57.592,72.8,137.865,34.671,3.11.341,75.059-14.327,78.267-14.048,118.374,10.308,139.169-12.981,172.592-64.974,20.9-32.507,72.242-119.656,18.332-150.423-82.555-31.445-57.844-140.912-146.168-149.6C338.789,1342.429,334.771,1420.045,250.087,1433.74Z" transform="translate(1173.762 2.993)" fill="#ffc400" opacity="0.86"/>
    <g id="Group_12" data-name="Group 12" transform="translate(1360.094 1359)">
      <path id="Path_89" data-name="Path 89" d="M935.283,518.114a42.407,42.407,0,0,1-13.488,9.544h-.006c-.476.226-.953.446-1.435.653h-.006l-.006.006-.006-.006h-.006a.005.005,0,0,1,0,0l0,0h-.006l-.006-.006c-.006.006-.006.006-.012,0l-.006.006-.006-.006h-.006c-.006.006-.006.006-.012,0h-.006a85.35,85.35,0,0,1-10.417,3.725,144.5,144.5,0,0,1-64.182,3.352l-1.221-.22V485.642c.4-.171.812-.342,1.221-.507q4-1.658,8.1-3.047,5.9-2.015,11.962-3.456a129.554,129.554,0,0,1,40.325-3.261q3.691.275,7.364.794a55.533,55.533,0,0,1,15.223,4.122h.006c.69.324,1.368.659,2.04,1.02a22.891,22.891,0,0,1,9.9,9.7,18.666,18.666,0,0,1,1.661,4.879v.012c.122.586.208,1.178.275,1.765C943.294,504.894,940.3,512.631,935.283,518.114Z" transform="translate(-434.716 -287.233)" fill="#f2f2f2"/>
      <path id="Path_90" data-name="Path 90" d="M942.524,510.987a.834.834,0,0,1-.183.024q-15.69.687-31.337,2.039h-.018c-.043.006-.079.006-.122.012q-16.065,1.392-32.063,3.487c-.452.061-.9.122-1.344.177Q866.393,518.2,855.371,520q-4.864.8-9.709,1.661c-.409.073-.812.14-1.221.22v-1.85c.409-.079.818-.146,1.221-.22q16.139-2.858,32.387-4.989,4.085-.55,8.182-1.038,11.834-1.429,23.7-2.467l1.734-.147q15.2-1.291,30.433-1.96a.574.574,0,0,1,.147.012C943.226,509.307,943.434,510.773,942.524,510.987Z" transform="translate(-434.716 -300.555)" fill="#fff"/>
      <path id="Path_91" data-name="Path 91" d="M941.744,544.34a50,50,0,0,1-35.085-14.575,47.515,47.515,0,0,1-6.829-8.591c-.621-1-2.075.1-1.459,1.09A51.817,51.817,0,0,0,930.6,544.928a49.344,49.344,0,0,0,11.38,1.218c1.169-.009.926-1.814-.234-1.806Z" transform="translate(-455.657 -305.061)" fill="#fff"/>
      <path id="Path_92" data-name="Path 92" d="M865.727,480.95a1.033,1.033,0,0,1-.763.69,39.825,39.825,0,0,0-8.6,3.358,41.768,41.768,0,0,0-10.7,8.091c-.165.165-.323.33-.476.5-.257.269-.5.543-.745.824v-2.662c.391-.415.8-.824,1.221-1.215a43.911,43.911,0,0,1,8.1-6.131Q859.664,482.391,865.727,480.95Z" transform="translate(-434.716 -289.551)" fill="#fff"/>
      <path id="Path_93" data-name="Path 93" d="M971.431,482.822a42.379,42.379,0,0,0-19.8,17.455.916.916,0,0,0,.484,1.193.933.933,0,0,0,1.193-.484,40.331,40.331,0,0,1,18.8-16.477.911.911,0,0,0-.684-1.687Z" transform="translate(-476.427 -290.249)" fill="#fff"/>
      <path id="Path_94" data-name="Path 94" d="M954.706,378.513a42.333,42.333,0,0,1-7.51,14.716l-.006.006c-.312.415-.635.837-.971,1.24v.006a85.016,85.016,0,0,1-7.578,8.176,142.536,142.536,0,0,1-32.589,23.283c-18.728,9.782-39.659,15.565-60.39,15.894-.159.006-.318.006-.476.006-.25.006-.5.006-.745.006V414.094c.4-.757.806-1.514,1.221-2.265a134.047,134.047,0,0,1,19.558-26.757c.183-.2.372-.4.562-.6q4.286-4.525,8.988-8.616a128.731,128.731,0,0,1,41.089-24.333,55.3,55.3,0,0,1,15.394-3.419c.763-.043,1.521-.061,2.284-.055a22.925,22.925,0,0,1,13.281,3.993,18.93,18.93,0,0,1,3.737,3.548c.378.47.727.953,1.062,1.447v.006C955.658,363.089,956.6,371.326,954.706,378.513Z" transform="translate(-434.715 -237.802)" fill="#f2f2f2"/>
      <path id="Path_95" data-name="Path 95" d="M951.616,361.8v.006a.891.891,0,0,1-.146.1Q937.914,369.8,924.7,378.26c-.012.006-.018.012-.03.018a1.072,1.072,0,0,1-.11.067q-13.583,8.7-26.782,17.989c-.366.256-.739.519-1.111.782q-9.114,6.439-18.038,13.153-16.853,12.695-32.967,26.33c-.409.342-.812.69-1.221,1.038v-2.375c.4-.348.812-.7,1.221-1.038q6.173-5.212,12.457-10.277c1.252-1.008,2.51-2.015,3.768-3.01q16.762-13.345,34.274-25.695h.006q3.444-2.427,6.9-4.812,9.819-6.76,19.858-13.2c.482-.311.971-.623,1.459-.934q12.851-8.207,26.037-15.876a.907.907,0,0,1,.135-.067C951.469,359.99,952.33,361.2,951.616,361.8Z" transform="translate(-434.715 -242.568)" fill="#fff"/>
      <path id="Path_96" data-name="Path 96" d="M979.079,420.385a50,50,0,0,1-37.84,3.391A47.522,47.522,0,0,1,931.2,419.34c-1.013-.594-1.79,1.054-.785,1.643a51.817,51.817,0,0,0,39.068,5.1,49.341,49.341,0,0,0,10.643-4.208C981.156,421.326,980.1,419.839,979.079,420.385Z" transform="translate(-468.01 -265.512)" fill="#fff"/>
      <path id="Path_97" data-name="Path 97" d="M869.15,432.75a41.86,41.86,0,0,1-.582-9.69,44.158,44.158,0,0,1,6.583-20.853q4.292-4.523,8.99-8.617a1.041,1.041,0,0,1-.358.968,39.966,39.966,0,0,0-6.052,6.966,42.207,42.207,0,0,0-6.767,31.076.741.741,0,0,1-.192.7.992.992,0,0,1-1.623-.547Z" transform="translate(-444.085 -255.535)" fill="#fff"/>
      <path id="Path_98" data-name="Path 98" d="M981.8,346.4a42.379,42.379,0,0,0-9.423,24.654.916.916,0,0,0,.983.832.933.933,0,0,0,.832-.983,40.33,40.33,0,0,1,9-23.326c.741-.909-.648-2.087-1.39-1.176Z" transform="translate(-484.531 -237.034)" fill="#fff"/>
      <path id="Path_99" data-name="Path 99" d="M868.75,357.453v.006c-.043.525-.091,1.044-.147,1.563v.012A86.3,86.3,0,0,1,866.619,370c-.427,1.771-.892,3.529-1.4,5.288-.061.226-.128.452-.2.672v.006a140.144,140.144,0,0,1-5.337,15.052,145.885,145.885,0,0,1-14.026,25.78c-.4.592-.806,1.185-1.221,1.771V322.947c.409-.024.812-.024,1.221-.012q.293,0,.586.018a18.517,18.517,0,0,1,5.056.983c.574.189,1.129.4,1.679.641,6.662,2.919,11.895,9.355,14.166,16.432A42.423,42.423,0,0,1,868.75,357.453Z" transform="translate(-434.716 -228.02)" fill="#f2f2f2"/>
      <path id="Path_100" data-name="Path 100" d="M852.984,324.971a.658.658,0,0,1-.067.171q-3.71,7.208-7.254,14.49c-.409.837-.818,1.679-1.221,2.516V338q.6-1.246,1.221-2.491,2.739-5.551,5.569-11.052a.794.794,0,0,1,.073-.122C851.866,323.524,853.259,324.074,852.984,324.971Z" transform="translate(-434.716 -228.414)" fill="#fff"/>
      <path id="Path_101" data-name="Path 101" d="M868.945,380.32c-.11.2-.22.391-.342.586a48.746,48.746,0,0,1-6.363,8.7,52.461,52.461,0,0,1-16.578,12.072c-.4.2-.812.379-1.221.55v-1.984c.409-.183.818-.372,1.221-.568a49.378,49.378,0,0,0,21.6-20.041,1,1,0,0,1,1.49-.287.7.7,0,0,1,.2.977Z" transform="translate(-434.716 -249.904)" fill="#fff"/>
      <path id="Path_102" data-name="Path 102" d="M584.388,187.65v46.407h-1.221v-.495h-408.5v.495h-1.221V187.65a20.17,20.17,0,0,1,20.15-20.15H564.237A20.17,20.17,0,0,1,584.388,187.65Z" transform="translate(-173.441 -167.5)" fill="#3f3d56"/>
      <path id="Path_103" data-name="Path 103" d="M564.237,167.5H193.591a20.17,20.17,0,0,0-20.15,20.15V452.659a20.17,20.17,0,0,0,20.15,20.15H564.237a20.17,20.17,0,0,0,20.15-20.15V187.65A20.17,20.17,0,0,0,564.237,167.5Zm18.929,285.159a18.953,18.953,0,0,1-18.929,18.929H193.591a18.953,18.953,0,0,1-18.929-18.929V187.65a18.953,18.953,0,0,1,18.929-18.929H564.237a18.953,18.953,0,0,1,18.929,18.929Z" transform="translate(-173.441 -167.5)" fill="#3f3d56"/>
      <circle id="Ellipse_6" data-name="Ellipse 6" cx="12.212" cy="12.212" r="12.212" transform="translate(70.832 21.066)" fill="#fff"/>
      <circle id="Ellipse_7" data-name="Ellipse 7" cx="12.212" cy="12.212" r="12.212" transform="translate(315.69 21.066)" fill="#fff"/>
      <path id="Path_104" data-name="Path 104" d="M313.5,408.3H240.847a11.622,11.622,0,0,1-11.609-11.609V362.355a11.622,11.622,0,0,1,11.609-11.609H313.5a11.622,11.622,0,0,1,11.609,11.609v34.337A11.622,11.622,0,0,1,313.5,408.3Z" transform="translate(-195.168 -238.853)" fill="#3f3d56"/>
      <path id="Path_105" data-name="Path 105" d="M515.894,408.3H443.245a11.622,11.622,0,0,1-11.609-11.609V362.355a11.622,11.622,0,0,1,11.609-11.609h72.649A11.622,11.622,0,0,1,527.5,362.355v34.337A11.622,11.622,0,0,1,515.894,408.3Z" transform="translate(-273.978 -238.853)" fill="#3f3d56"/>
      <path id="Path_106" data-name="Path 106" d="M515.67,553.143H443.021a11.974,11.974,0,0,1-11.961-11.961V506.846a11.974,11.974,0,0,1,11.961-11.961H515.67a11.974,11.974,0,0,1,11.961,11.961v34.337A11.974,11.974,0,0,1,515.67,553.143Z" transform="translate(-273.753 -294.977)" fill="#f2f2f2"/>
      <path id="Path_107" data-name="Path 107" d="M312.882,553.143H240.233a11.974,11.974,0,0,1-11.961-11.96V506.846a11.974,11.974,0,0,1,11.961-11.961h72.649a11.974,11.974,0,0,1,11.961,11.961v34.337A11.974,11.974,0,0,1,312.882,553.143Z" transform="translate(-194.791 -294.977)" fill="#f2f2f2"/>
      <path id="Path_108" data-name="Path 108" d="M718.069,553.143H645.42a11.974,11.974,0,0,1-11.96-11.961V506.846a11.974,11.974,0,0,1,11.961-11.961h72.649a11.974,11.974,0,0,1,11.961,11.961v34.337A11.974,11.974,0,0,1,718.069,553.143Z" transform="translate(-352.564 -294.977)" fill="#f2f2f2"/>
      <path id="Path_109" data-name="Path 109" d="M718.069,407.965H645.42A11.974,11.974,0,0,1,633.46,396V361.667a11.974,11.974,0,0,1,11.961-11.961h72.649a11.974,11.974,0,0,1,11.961,11.961V396A11.974,11.974,0,0,1,718.069,407.965Z" transform="translate(-352.564 -238.448)" fill="#f2f2f2"/>
      <circle id="Ellipse_8" data-name="Ellipse 8" cx="19.7" cy="19.7" r="19.7" transform="translate(62.305 120.971)" fill="#fff"/>
      <path id="Path_110" data-name="Path 110" d="M300.276,400.627a2.043,2.043,0,0,1-1.229-.408l-.022-.016-4.63-3.545a2.057,2.057,0,0,1,2.5-3.265l3,2.3,7.086-9.242a2.057,2.057,0,0,1,2.884-.381l-.044.06.045-.059a2.059,2.059,0,0,1,.381,2.884l-8.335,10.87A2.058,2.058,0,0,1,300.276,400.627Z" transform="translate(-220.225 -252.441)" fill="#6c63ff"/>
      <circle id="Ellipse_9" data-name="Ellipse 9" cx="19.7" cy="19.7" r="19.7" transform="translate(186.244 120.688)" fill="#fff"/>
      <path id="Path_111" data-name="Path 111" d="M503.251,400.164a2.043,2.043,0,0,1-1.229-.408l-.022-.017-4.63-3.545a2.057,2.057,0,0,1,2.5-3.265l3,2.3,7.086-9.242a2.057,2.057,0,0,1,2.884-.381l-.044.06.045-.059a2.059,2.059,0,0,1,.381,2.884l-8.335,10.87a2.058,2.058,0,0,1-1.636.8Z" transform="translate(-299.259 -252.261)" fill="#6c63ff"/>
      <path id="Path_112" data-name="Path 112" d="M712.362,505.845a6.56,6.56,0,0,0-1.333-9.97l-11-58.725-13.375,4.96,15.017,56.165a6.6,6.6,0,0,0,10.69,7.57Z" transform="translate(-373.277 -272.496)" fill="#a0616a"/>
      <path id="Path_113" data-name="Path 113" d="M545.131,398.9a6.97,6.97,0,0,1,.013,1.1l26.006,20.016,7.375-3.028,6.025,10.533-12.535,6.63a5.294,5.294,0,0,1-6.275-.994l-25.995-26.8a6.946,6.946,0,1,1,5.385-7.453Z" transform="translate(-312.774 -255.162)" fill="#a0616a"/>
      <path id="Path_114" data-name="Path 114" d="M472.983,538.33H465.5l-3.562-22.769h11.049Z" transform="translate(-179.869 -200.749)" fill="#a0616a"/>
      <path id="Path_115" data-name="Path 115" d="M641.2,726.047H617.065v-.305a9.4,9.4,0,0,1,9.4-9.4H641.2Z" transform="translate(-346.18 -381.21)" fill="#2f2e41"/>
      <path id="Path_116" data-name="Path 116" d="M518.983,538.33H511.5l-3.562-22.769h11.049Z" transform="translate(-197.781 -200.749)" fill="#a0616a"/>
      <path id="Path_117" data-name="Path 117" d="M687.2,726.047H663.065v-.305a9.4,9.4,0,0,1,9.4-9.4H687.2Z" transform="translate(-364.092 -381.21)" fill="#2f2e41"/>
      <path id="Path_118" data-name="Path 118" d="M632.762,653.075a2.742,2.742,0,0,1-2.732-2.487l-6.523-87.739.308-.025,44.893-3.69.012.319,3.569,90.891a2.748,2.748,0,0,1-2.746,2.85h-8.8a2.732,2.732,0,0,1-2.716-2.33L646.071,577.44a.305.305,0,0,0-.607.044l-.542,72.495a2.751,2.751,0,0,1-2.6,2.725l-9.409.367C632.86,653.073,632.811,653.075,632.762,653.075Z" transform="translate(-348.688 -319.995)" fill="#2f2e41"/>
      <circle id="Ellipse_10" data-name="Ellipse 10" cx="14.997" cy="14.997" r="14.997" transform="translate(276.739 101.975)" fill="#a0616a"/>
      <path id="Path_119" data-name="Path 119" d="M640.62,504.466a73.9,73.9,0,0,1-19.4-2.651,2.754,2.754,0,0,1-1.976-2.862c2.019-30.344,2.494-53.891-1.752-70.184a27.358,27.358,0,0,1,2.254-20.065,26.409,26.409,0,0,1,23.411-13.875h0q.686.013,1.385.049c14.516.747,25.828,13.88,25.215,29.274l-2.92,73.377A2.711,2.711,0,0,1,665.12,500,69.758,69.758,0,0,1,640.62,504.466Z" transform="translate(-345.98 -256.015)" fill="#3f3d56"/>
      <path id="Path_120" data-name="Path 120" d="M614.467,440.343l-11.234-13.766a3.518,3.518,0,0,1,.925-5.246l15.218-9.068a9.77,9.77,0,1,1,12.31,15.176l-11.893,13.051a3.518,3.518,0,0,1-5.325-.146Z" transform="translate(-340.485 -261.956)" fill="#3f3d56"/>
      <path id="Path_121" data-name="Path 121" d="M674.957,435.73a3.514,3.514,0,0,1-1.932-2.2l-5.057-16.917a9.771,9.771,0,0,1,17.674-8.336l9.78,14.77a3.518,3.518,0,0,1-1.442,5.128l-16.093,7.533a3.514,3.514,0,0,1-2.93.025Z" transform="translate(-365.636 -259.071)" fill="#3f3d56"/>
      <path id="Path_122" data-name="Path 122" d="M645.289,360.03l-11.117-2.544c-1.147-.262-2.524-.763-2.683-1.929-.214-1.566,2.04-2.657,1.832-4.225-.2-1.518-2.255-1.713-3.719-2.162a5.563,5.563,0,0,1-3.464-6.925c-1.584,2.232-5.2,2.424-7.258.615a6.425,6.425,0,0,1-1.215-7.534,8.724,8.724,0,0,1,6.548-4.421,13.81,13.81,0,0,1,7.952,1.482c.163-1.73,2.323-2.432,4.061-2.447A17.36,17.36,0,0,1,652.5,341.816c2.132,6.871.706,14.4-5.26,18.422Z" transform="translate(-346.141 -230.752)" fill="#2f2e41"/>
      <path id="Path_123" data-name="Path 123" d="M697.986,731.721H465.34a.611.611,0,1,1,0-1.221H697.986a.611.611,0,0,1,0,1.221Z" transform="translate(-286.863 -386.721)" fill="#3f3d56"/>
    </g>
  </g>
</svg>
