<svg xmlns="http://www.w3.org/2000/svg" xmlns:xlink="http://www.w3.org/1999/xlink" width="786.22" height="412.549" viewBox="0 0 786.22 412.549">
  <defs>
    <linearGradient id="linear-gradient" x1="0.5" y1="1" x2="0.5" gradientUnits="objectBoundingBox">
      <stop offset="0" stop-color="gray" stop-opacity="0.251"/>
      <stop offset="0.54" stop-color="gray" stop-opacity="0.122"/>
      <stop offset="1" stop-color="gray" stop-opacity="0.102"/>
    </linearGradient>
    <linearGradient id="linear-gradient-2" x1="0.5" y1="1" x2="0.5" y2="-0.001" xlink:href="#linear-gradient"/>
  </defs>
  <g id="Group_36" data-name="Group 36" transform="translate(0 0.359)">
    <g id="Group_28" data-name="Group 28" transform="translate(304.982 28.335)" opacity="0.1">
      <ellipse id="Ellipse_27" data-name="Ellipse 27" cx="8.163" cy="10.689" rx="8.163" ry="10.689" transform="translate(30.768 220.643)" fill="#3f3d56"/>
      <path id="Path_217" data-name="Path 217" d="M534.655,454.214a12.913,12.913,0,0,0,1.707-6.535c0-5.9-3.659-10.689-8.171-10.689s-8.192,4.8-8.192,10.7a12.912,12.912,0,0,0,1.707,6.535,13.35,13.35,0,0,0,0,13.063,13.35,13.35,0,0,0,0,13.063A12.869,12.869,0,0,0,520,486.889c0,5.9,3.658,10.689,8.163,10.689s8.171-4.792,8.171-10.689a12.869,12.869,0,0,0-1.707-6.535,13.35,13.35,0,0,0,0-13.063,13.35,13.35,0,0,0,0-13.063Z" transform="translate(-489.26 -268.613)" fill="#3f3d56"/>
      <ellipse id="Ellipse_28" data-name="Ellipse 28" cx="8.163" cy="10.689" rx="8.163" ry="10.689" transform="translate(30.768 155.328)" fill="#3f3d56"/>
      <ellipse id="Ellipse_29" data-name="Ellipse 29" cx="8.163" cy="10.689" rx="8.163" ry="10.689" transform="translate(30.768 142.265)" fill="#3f3d56"/>
      <path id="Path_218" data-name="Path 218" d="M485.521,265.821a38.074,38.074,0,0,1-3.042-4.476l21.449-3.522-23.2.172a39.182,39.182,0,0,1-.717-30.99l31.126,16.148-28.694-21.1a39.117,39.117,0,1,1,64.562,43.759,39.124,39.124,0,0,1,4.462,7.131l-27.855,14.5,29.691-9.964A39.117,39.117,0,0,1,547,314.206a39.11,39.11,0,1,1-61.477,0,39.11,39.11,0,0,1,0-48.364Z" transform="translate(-477.149 -202.271)" fill="#6c63ff"/>
      <path id="Path_219" data-name="Path 219" d="M555.37,324.343A38.93,38.93,0,0,1,547,348.525a39.11,39.11,0,1,1-61.477,0C480.277,341.868,555.37,319.953,555.37,324.343Z" transform="translate(-477.149 -236.611)" opacity="0.1"/>
    </g>
    <g id="Group_29" data-name="Group 29" transform="translate(410.126 64.082)" opacity="0.1">
      <ellipse id="Ellipse_30" data-name="Ellipse 30" cx="6.105" cy="7.984" rx="6.105" ry="7.984" transform="translate(22.991 164.745)" fill="#3f3d56"/>
      <path id="Path_220" data-name="Path 220" d="M666.692,440.189a9.635,9.635,0,0,0,1.27-4.878c0-4.412-2.733-7.991-6.1-7.991s-6.1,3.587-6.1,7.991a9.563,9.563,0,0,0,1.277,4.878,9.971,9.971,0,0,0,0,9.763,9.971,9.971,0,0,0,0,9.763,9.562,9.562,0,0,0-1.277,4.878c0,4.412,2.733,7.991,6.1,7.991s6.1-3.587,6.1-7.991a9.635,9.635,0,0,0-1.27-4.878,10.043,10.043,0,0,0,0-9.763A10.043,10.043,0,0,0,666.692,440.189Z" transform="translate(-632.776 -301.627)" fill="#3f3d56"/>
      <ellipse id="Ellipse_31" data-name="Ellipse 31" cx="6.105" cy="7.984" rx="6.105" ry="7.984" transform="translate(22.991 115.937)" fill="#3f3d56"/>
      <ellipse id="Ellipse_32" data-name="Ellipse 32" cx="6.105" cy="7.984" rx="6.105" ry="7.984" transform="translate(22.991 106.173)" fill="#3f3d56"/>
      <path id="Path_221" data-name="Path 221" d="M629.975,299.453a27.978,27.978,0,0,1-2.274-3.343l16.033-2.633-17.338.129a29.3,29.3,0,0,1-.56-23.163L649.1,282.517l-21.456-15.782a29.232,29.232,0,1,1,48.271,32.711,29.557,29.557,0,0,1,3.336,5.33l-20.8,10.811,22.188-7.446a29.239,29.239,0,0,1-4.713,27.446,29.225,29.225,0,1,1-45.911,0,29.225,29.225,0,0,1,0-36.14Z" transform="translate(-623.72 -252.103)" fill="#6c63ff"/>
      <path id="Path_222" data-name="Path 222" d="M682.175,343.13a29.1,29.1,0,0,1-6.255,18.07,29.225,29.225,0,1,1-45.911,0C626.078,356.229,682.175,339.852,682.175,343.13Z" transform="translate(-623.726 -277.71)" opacity="0.1"/>
    </g>
    <g id="Group_30" data-name="Group 30" transform="translate(705.547 -0.359)" opacity="0.1">
      <ellipse id="Ellipse_33" data-name="Ellipse 33" cx="8.163" cy="10.689" rx="8.163" ry="10.689" transform="translate(31.319 220.643)" fill="#3f3d56"/>
      <path id="Path_223" data-name="Path 223" d="M1080.9,414.214a12.912,12.912,0,0,1-1.707-6.535c0-5.9,3.658-10.689,8.171-10.689s8.163,4.785,8.163,10.689a12.911,12.911,0,0,1-1.707,6.535,13.35,13.35,0,0,1,0,13.063,13.35,13.35,0,0,1,0,13.063,12.868,12.868,0,0,1,1.707,6.535c0,5.9-3.658,10.689-8.163,10.689s-8.171-4.792-8.171-10.689a12.869,12.869,0,0,1,1.707-6.535,13.35,13.35,0,0,1,0-13.063A13.35,13.35,0,0,1,1080.9,414.214Z" transform="translate(-1047.878 -228.614)" fill="#3f3d56"/>
      <ellipse id="Ellipse_34" data-name="Ellipse 34" cx="8.163" cy="10.689" rx="8.163" ry="10.689" transform="translate(31.319 155.328)" fill="#3f3d56"/>
      <ellipse id="Ellipse_35" data-name="Ellipse 35" cx="8.163" cy="10.689" rx="8.163" ry="10.689" transform="translate(31.319 142.265)" fill="#3f3d56"/>
      <path id="Path_224" data-name="Path 224" d="M1105.583,225.821a38.085,38.085,0,0,0,3.042-4.476l-21.449-3.522,23.2.172a39.182,39.182,0,0,0,.717-30.99l-31.126,16.148,28.694-21.1a39.117,39.117,0,1,0-64.562,43.759,39.126,39.126,0,0,0-4.462,7.131l27.855,14.5-29.691-9.964a39.117,39.117,0,0,0,6.306,36.729,39.11,39.11,0,1,0,61.477,0,39.11,39.11,0,0,0,0-48.364Z" transform="translate(-1035.541 -162.271)" fill="#6c63ff"/>
      <path id="Path_225" data-name="Path 225" d="M1035.81,284.343a38.931,38.931,0,0,0,8.372,24.182,39.11,39.11,0,1,0,61.477,0C1110.9,301.868,1035.81,279.953,1035.81,284.343Z" transform="translate(-1035.617 -196.611)" opacity="0.1"/>
    </g>
    <g id="Group_31" data-name="Group 31" transform="translate(636.836 59.778)" opacity="0.1">
      <ellipse id="Ellipse_36" data-name="Ellipse 36" cx="6.105" cy="7.984" rx="6.105" ry="7.984" transform="translate(23.281 164.745)" fill="#3f3d56"/>
      <path id="Path_226" data-name="Path 226" d="M973.5,434.189a9.635,9.635,0,0,1-1.27-4.878c0-4.412,2.733-7.991,6.1-7.991s6.1,3.587,6.1,7.991a9.562,9.562,0,0,1-1.277,4.878,9.972,9.972,0,0,1,0,9.763,9.972,9.972,0,0,1,0,9.763,9.561,9.561,0,0,1,1.277,4.878c0,4.412-2.733,7.991-6.1,7.991s-6.1-3.587-6.1-7.991a9.635,9.635,0,0,1,1.27-4.878,10.043,10.043,0,0,1,0-9.763,10.043,10.043,0,0,1,0-9.763Z" transform="translate(-948.935 -295.627)" fill="#3f3d56"/>
      <ellipse id="Ellipse_37" data-name="Ellipse 37" cx="6.105" cy="7.984" rx="6.105" ry="7.984" transform="translate(23.281 115.937)" fill="#3f3d56"/>
      <ellipse id="Ellipse_38" data-name="Ellipse 38" cx="6.105" cy="7.984" rx="6.105" ry="7.984" transform="translate(23.281 106.173)" fill="#3f3d56"/>
      <path id="Path_227" data-name="Path 227" d="M991.982,293.453a27.971,27.971,0,0,0,2.274-3.343l-16.033-2.633,17.338.129a29.3,29.3,0,0,0,.56-23.163l-23.264,12.073,21.456-15.782a29.232,29.232,0,1,0-48.271,32.711,29.555,29.555,0,0,0-3.336,5.33l20.8,10.811-22.145-7.439a29.24,29.24,0,0,0,4.713,27.446,29.225,29.225,0,1,0,45.911,0,29.225,29.225,0,0,0,0-36.14Z" transform="translate(-939.756 -246.103)" fill="#6c63ff"/>
      <path id="Path_228" data-name="Path 228" d="M939.794,337.13a29.1,29.1,0,0,0,6.255,18.07,29.225,29.225,0,1,0,45.911,0C995.891,350.229,939.794,333.852,939.794,337.13Z" transform="translate(-939.763 -271.71)" opacity="0.1"/>
    </g>
    <g id="Group_32" data-name="Group 32" transform="translate(5.243 -0.239)" opacity="0.1">
      <ellipse id="Ellipse_39" data-name="Ellipse 39" cx="8.163" cy="10.689" rx="8.163" ry="10.689" transform="translate(30.775 220.523)" fill="#3f3d56"/>
      <path id="Path_229" data-name="Path 229" d="M116.829,414.214a12.912,12.912,0,0,0,1.707-6.535c0-5.9-3.659-10.689-8.163-10.689s-8.163,4.785-8.163,10.689a12.912,12.912,0,0,0,1.7,6.535,13.393,13.393,0,0,0,0,13.063,13.393,13.393,0,0,0,0,13.063,12.862,12.862,0,0,0-1.7,6.535c0,5.9,3.651,10.689,8.163,10.689s8.185-4.778,8.185-10.674a12.869,12.869,0,0,0-1.707-6.535,13.35,13.35,0,0,0,0-13.063,13.35,13.35,0,0,0,0-13.063Z" transform="translate(-71.435 -228.734)" fill="#3f3d56"/>
      <ellipse id="Ellipse_40" data-name="Ellipse 40" cx="8.163" cy="10.689" rx="8.163" ry="10.689" transform="translate(30.775 155.208)" fill="#3f3d56"/>
      <ellipse id="Ellipse_41" data-name="Ellipse 41" cx="8.163" cy="10.689" rx="8.163" ry="10.689" transform="translate(30.775 142.145)" fill="#3f3d56"/>
      <path id="Path_230" data-name="Path 230" d="M67.7,225.868a38.972,38.972,0,0,1-3.042-4.476L86.11,217.87l-23.221.208a39.182,39.182,0,0,1-.717-30.99l31.133,16.148-28.694-21.1a39.11,39.11,0,1,1,64.562,43.759,39.124,39.124,0,0,1,4.462,7.131l-27.862,14.469,29.7-9.964a39.16,39.16,0,0,1-6.313,36.729,39.11,39.11,0,1,1-61.477,0,39.11,39.11,0,0,1,0-48.364Z" transform="translate(-59.309 -162.439)" fill="#6c63ff"/>
      <path id="Path_231" data-name="Path 231" d="M137.53,284.343a38.931,38.931,0,0,1-8.372,24.182,39.11,39.11,0,1,1-61.477,0C62.437,301.868,137.53,279.953,137.53,284.343Z" transform="translate(-59.309 -196.731)" opacity="0.1"/>
    </g>
    <g id="Group_33" data-name="Group 33" transform="translate(93.888 59.778)" opacity="0.1">
      <ellipse id="Ellipse_42" data-name="Ellipse 42" cx="6.105" cy="7.984" rx="6.105" ry="7.984" transform="translate(22.991 164.745)" fill="#3f3d56"/>
      <path id="Path_232" data-name="Path 232" d="M225.862,434.189a9.634,9.634,0,0,0,1.27-4.878c0-4.412-2.726-7.991-6.1-7.991s-6.1,3.587-6.1,7.991a9.634,9.634,0,0,0,1.277,4.878,9.971,9.971,0,0,0,0,9.763,9.971,9.971,0,0,0,0,9.763,9.634,9.634,0,0,0-1.277,4.878c0,4.412,2.733,7.991,6.1,7.991s6.1-3.587,6.1-7.991a9.634,9.634,0,0,0-1.27-4.878,10.043,10.043,0,0,0,0-9.763,10.043,10.043,0,0,0,0-9.763Z" transform="translate(-191.939 -295.627)" fill="#3f3d56"/>
      <ellipse id="Ellipse_43" data-name="Ellipse 43" cx="6.105" cy="7.984" rx="6.105" ry="7.984" transform="translate(22.991 115.937)" fill="#3f3d56"/>
      <ellipse id="Ellipse_44" data-name="Ellipse 44" cx="6.105" cy="7.984" rx="6.105" ry="7.984" transform="translate(22.991 106.174)" fill="#3f3d56"/>
      <path id="Path_233" data-name="Path 233" d="M189.135,293.453a28.843,28.843,0,0,1-2.274-3.343l16.033-2.633-17.338.129a29.3,29.3,0,0,1-.56-23.163l23.264,12.073L186.8,260.735a29.232,29.232,0,1,1,48.271,32.711,28.781,28.781,0,0,1,3.336,5.33l-20.8,10.81,22.188-7.446a29.239,29.239,0,0,1-4.713,27.446,29.225,29.225,0,1,1-45.911,0,29.225,29.225,0,0,1,0-36.14Z" transform="translate(-182.88 -246.103)" fill="#6c63ff"/>
      <path id="Path_234" data-name="Path 234" d="M241.335,337.13a29.1,29.1,0,0,1-6.255,18.07,29.225,29.225,0,1,1-45.911,0C185.224,350.229,241.335,333.852,241.335,337.13Z" transform="translate(-182.886 -271.71)" opacity="0.1"/>
    </g>
    <ellipse id="Ellipse_45" data-name="Ellipse 45" cx="393.11" cy="6.356" rx="393.11" ry="6.356" transform="translate(0 347.292)" fill="#6c63ff" opacity="0.1"/>
    <ellipse id="Ellipse_46" data-name="Ellipse 46" cx="393.11" cy="6.356" rx="393.11" ry="6.356" transform="translate(0 399.479)" fill="#6c63ff" opacity="0.1"/>
    <ellipse id="Ellipse_47" data-name="Ellipse 47" cx="393.11" cy="6.356" rx="393.11" ry="6.356" transform="translate(0 238.376)" fill="#6c63ff" opacity="0.1"/>
    <ellipse id="Ellipse_48" data-name="Ellipse 48" cx="393.11" cy="6.356" rx="393.11" ry="6.356" transform="translate(0 292.83)" fill="#6c63ff" opacity="0.1"/>
    <path id="Path_235" data-name="Path 235" d="M845.293,266.115a13.128,13.128,0,0,0-7.6.832,11.226,11.226,0,0,1-9.139,0,12.826,12.826,0,0,0-10.76.208,6.629,6.629,0,0,1-3.092.775c-4.361,0-7.984-4.39-8.737-10.179a8.521,8.521,0,0,0,2.152-2.346c2.554-4.118,6.506-6.765,10.954-6.765s8.35,2.611,10.9,6.686a8.378,8.378,0,0,0,7.238,3.974h.115C840.831,259.264,843.836,262.047,845.293,266.115Z" transform="translate(-265.104 -187.042)" fill="#6c63ff" opacity="0.1"/>
    <path id="Path_236" data-name="Path 236" d="M858.565,241.548l-7.044,4.462,4.3-7.776a6.959,6.959,0,0,0-4.261-1.514h-.115a8.143,8.143,0,0,1-1.435-.108l-2.425,1.514,1.026-1.865a8.457,8.457,0,0,1-4.182-3.171l-4.3,2.712,2.7-4.907a12.5,12.5,0,0,0-9.57-4.835c-4.448,0-8.4,2.64-10.961,6.757a8.185,8.185,0,0,1-7.238,3.9h-.237c-4.907,0-8.881,5.559-8.881,12.417s3.974,12.425,8.881,12.425a6.736,6.736,0,0,0,3.092-.775,12.812,12.812,0,0,1,10.76-.215,11.155,11.155,0,0,0,9.139,0,12.855,12.855,0,0,1,10.66.208,6.671,6.671,0,0,0,3.056.76c4.907,0,8.881-5.567,8.881-12.425a15.732,15.732,0,0,0-1.844-7.568Z" transform="translate(-265.098 -180.66)" fill="#6c63ff" opacity="0.1"/>
    <path id="Path_237" data-name="Path 237" d="M432.418,262.771a9.211,9.211,0,0,0-5.33.581,7.833,7.833,0,0,1-6.392,0,8.953,8.953,0,0,0-7.525.151,4.749,4.749,0,0,1-2.152.538c-3.049,0-5.588-3.07-6.119-7.123a5.968,5.968,0,0,0,1.528-1.643,8.572,8.572,0,0,1,15.3-.057A5.875,5.875,0,0,0,426.8,258h.079C429.29,257.986,431.392,259.937,432.418,262.771Z" transform="translate(-151.746 -187.579)" fill="#6c63ff" opacity="0.1"/>
    <path id="Path_238" data-name="Path 238" d="M441.7,245.586l-4.928,3.128,2.991-5.445a4.842,4.842,0,0,0-2.977-1.062H436.7a5.374,5.374,0,0,1-1.019-.079l-1.671,1.062.717-1.306a5.954,5.954,0,0,1-2.927-2.217l-2.991,1.894,1.894-3.429a8.759,8.759,0,0,0-6.7-3.393,9.175,9.175,0,0,0-7.669,4.735,5.739,5.739,0,0,1-5.072,2.733H411.1c-3.436,0-6.219,3.888-6.219,8.694s2.783,8.694,6.219,8.694a4.662,4.662,0,0,0,2.152-.545,8.967,8.967,0,0,1,7.518-.143,7.7,7.7,0,0,0,6.4.043,9,9,0,0,1,7.46.143,4.649,4.649,0,0,0,2.152.531c3.429,0,6.212-3.9,6.212-8.694a11,11,0,0,0-1.291-5.344Z" transform="translate(-151.74 -183.113)" fill="#6c63ff" opacity="0.1"/>
    <path id="Path_239" data-name="Path 239" d="M321.59,341.181a9.2,9.2,0,0,1,5.323.581,7.848,7.848,0,0,0,6.4,0,8.981,8.981,0,0,1,7.525.143,4.641,4.641,0,0,0,2.152.545c3.049,0,5.588-3.077,6.112-7.13a5.847,5.847,0,0,1-1.521-1.643,8.581,8.581,0,0,0-15.308-.05,5.875,5.875,0,0,1-5.065,2.783h-.079C324.71,336.425,322.6,338.369,321.59,341.181Z" transform="translate(-128.199 -209.741)" fill="#6c63ff" opacity="0.1"/>
    <path id="Path_240" data-name="Path 240" d="M308.129,324.029l4.935,3.128-3-5.438a4.871,4.871,0,0,1,2.984-1.069h.079a6.11,6.11,0,0,0,1.026-.072l1.671,1.055-.717-1.3a5.947,5.947,0,0,0,2.92-2.217l2.991,1.894-1.865-3.436a8.752,8.752,0,0,1,6.7-3.386,9.185,9.185,0,0,1,7.669,4.735,5.739,5.739,0,0,0,5.065,2.733h.172c3.429,0,6.212,3.9,6.212,8.694s-2.783,8.694-6.212,8.694a4.656,4.656,0,0,1-2.152-.538,8.953,8.953,0,0,0-7.525-.151,7.791,7.791,0,0,1-3.214.717,7.891,7.891,0,0,1-3.185-.674,8.981,8.981,0,0,0-7.453.143,4.649,4.649,0,0,1-2.152.531c-3.436,0-6.219-3.888-6.219-8.694A11.077,11.077,0,0,1,308.129,324.029Z" transform="translate(-124.034 -205.287)" fill="#6c63ff" opacity="0.1"/>
    <path id="Path_241" data-name="Path 241" d="M713.138,622.794c1.872-3.472-.251-7.719-2.69-10.81s-5.423-6.313-5.359-10.251c.093-5.66,6.1-9.01,10.9-12.009a53.3,53.3,0,0,0,9.792-7.891,14.439,14.439,0,0,0,3.006-4.032c1-2.209.968-4.735.9-7.174q-.309-12.116-1.2-24.218" transform="translate(-236.593 -271.205)" fill="none" stroke="#3f3d56" stroke-miterlimit="10" stroke-width="4"/>
    <path id="Path_242" data-name="Path 242" d="M743.495,542.531a8.83,8.83,0,0,0-4.412-7.238l-1.98,3.91.065-4.735a8.831,8.831,0,1,0,6.327,8.063Z" transform="translate(-242.459 -267.728)" fill="#6c63ff"/>
    <path id="Path_243" data-name="Path 243" d="M721.916,624.129a8.831,8.831,0,0,1-16.671-3.587,8.607,8.607,0,0,1,.574-3.587,8.838,8.838,0,0,1,16.5.093l-5.516,4.491,6.069-1.435A8.782,8.782,0,0,1,721.916,624.129Z" transform="translate(-236.634 -289.556)" fill="#6c63ff"/>
    <path id="Path_244" data-name="Path 244" d="M718.767,598.313a8.831,8.831,0,0,1-2.8-17.324l-.05,3.637,2-3.96h0a8.833,8.833,0,1,1,.825,17.647Z" transform="translate(-237.845 -280.885)" fill="#6c63ff"/>
    <path id="Path_245" data-name="Path 245" d="M748.641,578.426a8.831,8.831,0,1,1,3.9-16.5l-1.557,4.3,3.178-3.142a8.831,8.831,0,0,1-5.552,15.33Z" transform="translate(-246.278 -275.266)" fill="#6c63ff"/>
    <path id="Path_246" data-name="Path 246" d="M742.3,546.792c-2.037.222-4.017.854-6.069.983s-4.3-.366-5.581-1.951a28.314,28.314,0,0,1-1.636-2.869,6.284,6.284,0,0,0-2.224-2.095,8.831,8.831,0,1,0,16.5,5.868C742.966,546.735,742.629,546.757,742.3,546.792Z" transform="translate(-242.454 -269.637)" opacity="0.1"/>
    <path id="Path_247" data-name="Path 247" d="M748.656,580.417a8.831,8.831,0,0,1-8.4-12.6,6.534,6.534,0,0,1,1.772,1.779,29.931,29.931,0,0,0,1.75,2.92c1.377,1.614,3.73,2.152,5.861,2.044s4.189-.717,6.313-.9c.294,0,.588-.043.89-.05a8.831,8.831,0,0,1-8.185,6.8Z" transform="translate(-246.293 -277.257)" opacity="0.1"/>
    <path id="Path_248" data-name="Path 248" d="M718.768,600.372A8.831,8.831,0,0,1,710.3,587.94a7.174,7.174,0,0,1,1.872,1.793,29.575,29.575,0,0,0,1.915,2.977c1.485,1.657,4,2.245,6.248,2.152s4.3-.581,6.456-.717A8.845,8.845,0,0,1,718.768,600.372Z" transform="translate(-237.846 -282.944)" opacity="0.1"/>
    <path id="Path_249" data-name="Path 249" d="M721.916,626.344a8.831,8.831,0,0,1-16.671-3.587,8.607,8.607,0,0,1,.574-3.587,8.816,8.816,0,0,1,1.937,1.729c.839,1.019,1.392,2.152,2.367,3.135,1.8,1.772,4.72,2.5,7.31,2.568A37.1,37.1,0,0,0,721.916,626.344Z" transform="translate(-236.634 -291.771)" opacity="0.1"/>
    <path id="Path_250" data-name="Path 250" d="M103.138,550.794c1.872-3.472-.251-7.719-2.69-10.811s-5.423-6.327-5.359-10.251c.093-5.66,6.1-9.01,10.9-12.008a53.3,53.3,0,0,0,9.792-7.891,14.441,14.441,0,0,0,3.006-4.032c1-2.209.968-4.734.9-7.173q-.316-12.116-1.2-24.218" transform="translate(-64.179 -250.855)" fill="none" stroke="#3f3d56" stroke-miterlimit="10" stroke-width="4"/>
    <path id="Path_251" data-name="Path 251" d="M133.495,470.531a8.83,8.83,0,0,0-4.412-7.238l-1.98,3.91.065-4.735a8.831,8.831,0,1,0,6.327,8.063Z" transform="translate(-70.045 -247.378)" fill="#6c63ff"/>
    <path id="Path_252" data-name="Path 252" d="M111.916,552.129a8.831,8.831,0,0,1-16.671-3.587,8.608,8.608,0,0,1,.574-3.587,8.838,8.838,0,0,1,16.5.093l-5.516,4.491,6.069-1.435a8.78,8.78,0,0,1-.954,4.024Z" transform="translate(-64.22 -269.205)" fill="#6c63ff"/>
    <path id="Path_253" data-name="Path 253" d="M108.767,526.313a8.831,8.831,0,0,1-2.8-17.324l-.05,3.637,2-3.96h0a8.833,8.833,0,0,1,.825,17.647Z" transform="translate(-65.431 -260.534)" fill="#6c63ff"/>
    <path id="Path_254" data-name="Path 254" d="M138.641,506.426a8.831,8.831,0,1,1,3.9-16.5l-1.557,4.3,3.178-3.142a8.831,8.831,0,0,1-5.552,15.33Z" transform="translate(-73.864 -254.915)" fill="#6c63ff"/>
    <path id="Path_255" data-name="Path 255" d="M132.3,474.793c-2.037.222-4.017.854-6.069.983s-4.3-.366-5.581-1.951a28.318,28.318,0,0,1-1.636-2.869,6.285,6.285,0,0,0-2.224-2.095,8.831,8.831,0,1,0,16.5,5.868C132.966,474.735,132.629,474.757,132.3,474.793Z" transform="translate(-70.04 -249.286)" opacity="0.1"/>
    <path id="Path_256" data-name="Path 256" d="M138.656,508.417a8.831,8.831,0,0,1-8.4-12.6,6.535,6.535,0,0,1,1.772,1.779,29.931,29.931,0,0,0,1.75,2.92c1.377,1.614,3.73,2.152,5.861,2.044s4.189-.717,6.313-.9c.294,0,.588-.043.89-.05A8.831,8.831,0,0,1,138.656,508.417Z" transform="translate(-73.879 -256.906)" opacity="0.1"/>
    <path id="Path_257" data-name="Path 257" d="M108.768,528.372A8.831,8.831,0,0,1,100.3,515.94a7.174,7.174,0,0,1,1.872,1.793,29.586,29.586,0,0,0,1.915,2.977c1.485,1.657,4,2.245,6.248,2.152s4.3-.581,6.456-.717A8.845,8.845,0,0,1,108.768,528.372Z" transform="translate(-65.432 -262.593)" opacity="0.1"/>
    <path id="Path_258" data-name="Path 258" d="M111.916,554.344a8.831,8.831,0,0,1-16.671-3.587,8.608,8.608,0,0,1,.574-3.587,8.816,8.816,0,0,1,1.937,1.729c.839,1.019,1.392,2.152,2.367,3.135,1.8,1.772,4.72,2.5,7.31,2.568A37.083,37.083,0,0,0,111.916,554.344Z" transform="translate(-64.22 -271.42)" opacity="0.1"/>
    <path id="Path_259" data-name="Path 259" d="M505.987,468.43c-1.872-3.465.251-7.712,2.7-10.8s5.416-6.313,5.352-10.251c-.086-5.667-6.1-9.01-10.9-12.009a53.085,53.085,0,0,1-9.785-7.891,14.189,14.189,0,0,1-3.013-4.024c-.99-2.217-.961-4.735-.9-7.174q.323-12.116,1.2-24.218" transform="translate(-175.632 -227.579)" fill="none" stroke="#3f3d56" stroke-miterlimit="10" stroke-width="4"/>
    <path id="Path_260" data-name="Path 260" d="M478.386,388.171a8.823,8.823,0,0,1,4.4-7.238l1.98,3.91-.057-4.735a9.053,9.053,0,0,1,2.905-.352,8.831,8.831,0,1,1-9.232,8.415Z" transform="translate(-172.514 -224.099)" fill="#6c63ff"/>
    <path id="Path_261" data-name="Path 261" d="M499.956,469.741a8.831,8.831,0,1,0-.423-7.109l5.516,4.491-6.069-1.435a8.781,8.781,0,0,0,.976,4.053Z" transform="translate(-178.337 -245.898)" fill="#6c63ff"/>
    <path id="Path_262" data-name="Path 262" d="M503.1,443.953a8.831,8.831,0,0,0,2.8-17.324l.043,3.637-2-3.96h0a8.831,8.831,0,0,0-9.254,8.386,8.725,8.725,0,0,0,.38,3.013A8.823,8.823,0,0,0,503.1,443.953Z" transform="translate(-177.123 -237.255)" fill="#6c63ff"/>
    <path id="Path_263" data-name="Path 263" d="M473.214,424.046a8.831,8.831,0,1,0-3.91-16.5l1.564,4.3-3.214-3.077a8.759,8.759,0,0,0-2.869,6.1,8.543,8.543,0,0,0,.222,2.432,8.823,8.823,0,0,0,8.207,6.743Z" transform="translate(-168.669 -231.631)" fill="#6c63ff"/>
    <path id="Path_264" data-name="Path 264" d="M479.66,392.432c2.037.222,4.017.854,6.062.983s4.3-.366,5.588-1.951a28.262,28.262,0,0,0,1.628-2.869,6.305,6.305,0,0,1,2.231-2.095,8.831,8.831,0,1,1-16.5,5.861C478.993,392.368,479.323,392.4,479.66,392.432Z" transform="translate(-172.597 -226.007)" opacity="0.1"/>
    <path id="Path_265" data-name="Path 265" d="M473.315,426.037a8.838,8.838,0,0,0,8.4-12.6,6.564,6.564,0,0,0-1.779,1.779,29.93,29.93,0,0,1-1.75,2.92c-1.37,1.614-3.723,2.152-5.854,2.044s-4.189-.717-6.313-.9c-.294,0-.6-.043-.89-.05a8.823,8.823,0,0,0,8.185,6.8Z" transform="translate(-168.77 -233.622)" opacity="0.1"/>
    <path id="Path_266" data-name="Path 266" d="M503.26,446.012a8.823,8.823,0,0,0,8.472-12.432,7.052,7.052,0,0,0-1.865,1.793,29.578,29.578,0,0,1-1.915,2.977c-1.492,1.657-4,2.245-6.255,2.152s-4.3-.581-6.456-.717a8.823,8.823,0,0,0,8.02,6.227Z" transform="translate(-177.28 -239.314)" opacity="0.1"/>
    <path id="Path_267" data-name="Path 267" d="M500.34,471.984a8.831,8.831,0,0,0,16.1-7.174,8.482,8.482,0,0,0-1.937,1.729c-.839,1.019-1.435,2.152-2.367,3.135-1.808,1.772-4.72,2.5-7.317,2.568A38.7,38.7,0,0,1,500.34,471.984Z" transform="translate(-178.721 -248.141)" opacity="0.1"/>
    <circle id="Ellipse_49" data-name="Ellipse 49" cx="71.707" cy="71.707" r="71.707" transform="translate(487.636 99.051)" fill="#ffc400"/>
    <path id="Path_268" data-name="Path 268" d="M849.634,406.426c-2.5-2.5-8.5-6.262-11.478-7.669-3.436-1.65-4.7-1.621-7.13.136-2.023,1.435-3.336,2.819-5.66,2.31s-6.93-3.981-11.384-8.422-7.912-9.017-8.407-11.377.868-3.644,2.317-5.667c1.75-2.432,1.8-3.694.136-7.131-1.435-2.977-5.158-8.967-7.676-11.478s-3.063-1.958-4.44-1.435a25.682,25.682,0,0,0-4.067,2.152c-2.5,1.671-3.9,3.063-4.878,5.158s-2.095,5.983,3.623,16.162a90.168,90.168,0,0,0,15.854,21.14h0a90.3,90.3,0,0,0,21.212,15.882c10.172,5.739,14.067,4.6,16.162,3.623s3.486-2.36,5.151-4.878a25.352,25.352,0,0,0,2.152-4.067C851.593,409.489,852.152,408.929,849.634,406.426Z" transform="translate(-259.51 -217.174)" fill="#6c63ff"/>
    <path id="Path_269" data-name="Path 269" d="M803.451,300.86a71.735,71.735,0,1,0,71.7,71.712A71.736,71.736,0,0,0,803.451,300.86Zm0,133.873a62.173,62.173,0,1,1,62.173-62.173,62.173,62.173,0,0,1-62.173,62.173Z" transform="translate(-244.109 -201.802)" opacity="0.1"/>
    <circle id="Ellipse_50" data-name="Ellipse 50" cx="71.707" cy="71.707" r="71.707" transform="translate(322.895 207.967)" fill="#ffc400"/>
    <path id="Path_270" data-name="Path 270" d="M626.513,522.38l-21.47,21.843a.387.387,0,0,0,0,.56L620.107,560.8a2.592,2.592,0,1,1-3.666,3.666l-14.985-15.961a.409.409,0,0,0-.574,0l-3.651,3.687a16.047,16.047,0,0,1-11.478,4.828,16.4,16.4,0,0,1-11.678-4.964l-3.508-3.587a.409.409,0,0,0-.574,0L555.043,564.4a2.592,2.592,0,1,1-3.666-3.666l15.007-15.983a.43.43,0,0,0,0-.56l-21.47-21.843a.395.395,0,0,0-.674.28v43.708a6.4,6.4,0,0,0,6.377,6.377h70.208a6.4,6.4,0,0,0,6.377-6.377V522.66a.395.395,0,0,0-.689-.28Z" transform="translate(-191.13 -264.37)" fill="#6c63ff"/>
    <path id="Path_271" data-name="Path 271" d="M586.7,549.122a10.861,10.861,0,0,0,7.833-3.228L625.8,514.065a6.241,6.241,0,0,0-3.945-1.435H551.6a6.2,6.2,0,0,0-3.945,1.435l31.277,31.829A10.818,10.818,0,0,0,586.7,549.122Z" transform="translate(-192.093 -261.657)" fill="#6c63ff"/>
    <path id="Path_272" data-name="Path 272" d="M572.541,452.69a71.735,71.735,0,1,0,71.7,71.711A71.735,71.735,0,0,0,572.541,452.69Zm0,133.873a62.173,62.173,0,1,1,62.173-62.173,62.173,62.173,0,0,1-62.173,62.173Z" transform="translate(-178.843 -244.716)" opacity="0.1"/>
    <circle id="Ellipse_51" data-name="Ellipse 51" cx="71.707" cy="71.707" r="71.707" transform="translate(152.717 154.417)" fill="#ffc400"/>
    <path id="Path_273" data-name="Path 273" d="M353.587,430.16,325,496.114l2.669,2.669,25.925-11.435,25.925,11.435,2.669-2.669Z" transform="translate(-129.162 -238.348)" fill="#6c63ff"/>
    <path id="Path_274" data-name="Path 274" d="M336.571,378a71.694,71.694,0,1,0,.012,0Zm0,133.873a51.163,51.163,0,1,1,.007.029Z" transform="translate(-112.147 -223.605)" opacity="0.1"/>
    <path id="Path_275" data-name="Path 275" d="M827.438,591.608q-.976-2.382-2-4.749a14.1,14.1,0,0,0-2.446-4.225,4.476,4.476,0,0,0-1.435-1.076,6.119,6.119,0,0,0-1.872-.373,14.945,14.945,0,0,0-2.941-.079c-.38-.115-.811-.265-1.234-.438a10.244,10.244,0,0,0,7.633-9.5c0-.143,0-.294,0-.438a10.222,10.222,0,0,0-10.179-10.265,10.043,10.043,0,0,0-5.344,1.528,9.591,9.591,0,0,0-10.76,5.186A11.858,11.858,0,0,0,793.2,576c0,.151,0,.308,0,.452.187,5.574,3.788,10.043,8.336,10.495a4.778,4.778,0,0,0-1.32.882c-1.392,1.341-1.621,3.472-1.772,5.409l-.108,1.435-2.41.861a.445.445,0,0,0-.108.782l2.3,1.643v.409a1.793,1.793,0,0,0,.043.466,3.293,3.293,0,0,0-.889,1.27,5.867,5.867,0,0,0-.208,2.324l.086,2a15.715,15.715,0,0,0,.61,4.455c.3.89,1.607,3.034,2.547,3.049-.868,3.945-1.1,12.267-1.1,12.267-.108.108.194.208.717.294.516,3.96,2.2,15.064,5.194,19.95a42.065,42.065,0,0,1,1.126,4.849s.854,10.552,1.98,13.687c.961,2.669,1.722,9.254,1.93,11.162a1.1,1.1,0,0,0-.8.818c-.567,1.707-4.24,4.3-4.24,4.3a17.763,17.763,0,0,0-3.171,2.03c-1.155,1.04-1.112,1.98,4.017,1.392,9.9-1.141,11.592-4.3,11.592-4.3s-.158-.531-.395-1.219a13.246,13.246,0,0,0-1.3-3.063c-.143-.136-.287.093-.459.452a61.425,61.425,0,0,1-.674-13.852s.28-4.849-1.133-8.271a15.661,15.661,0,0,1,0-5.416c.567-2.281-2.26-13.407-2.26-13.407l-1.621-8.192a2.353,2.353,0,0,1,.452.954l.043.165.043.237a.445.445,0,0,0,.115.222c1.1,4.591,4.132,17.31,4.132,19.175,0,2.281,2.826,7.984,2.826,7.984s1.126,9.412,3.106,13.113c1.506,2.819,1.542,6.951,1.471,8.773h0s-.337,2.346-.9,2.912a6.929,6.929,0,0,0-1.069,1.858l-.065.136s-.846,1.714-.28,2a13.9,13.9,0,0,0,6.786.854s1.133-1.435,1.133-1.994a8.991,8.991,0,0,0-.129-1.019c-.208-1.349-.6-3.472-.6-3.493.237-.918-.717-3.472-.717-3.472l-.287-7.984a36.858,36.858,0,0,0-1.98-15.976s-1.435-5.129-1.126-6.557-.567-16.542-.567-16.542l-.086-.215a16.341,16.341,0,0,1,.086-3.207,42.6,42.6,0,0,0-1.133-10.832,9.4,9.4,0,0,1-.4-2.36c.065-.6.258-2.339.524-4.505a80.988,80.988,0,0,0,8.336-.717,1.04,1.04,0,0,0,.717-.287,1,1,0,0,0,.165-.581C830.638,599.757,829.067,595.582,827.438,591.608Zm-5.689,9.046c.294-2.044.61-4.024.925-5.495l.043.129a39.912,39.912,0,0,1,1.363,4.519A15.375,15.375,0,0,1,821.75,600.653Z" transform="translate(-261.496 -275.176)" fill="url(#linear-gradient)"/>
    <path id="Path_276" data-name="Path 276" d="M802.37,648.459s1.693,15.229,5.359,21.148a41.064,41.064,0,0,1,1.126,4.792s.846,10.43,1.973,13.529,1.973,11.564,1.973,11.564,3.945,4.505,5.359.846a59.412,59.412,0,0,1-.847-14.663s.28-4.792-1.126-8.178a15.294,15.294,0,0,1,0-5.351c.56-2.26-2.26-13.25-2.26-13.25l-2.253-11Z" transform="translate(-264.089 -299.891)" fill="#be6f72"/>
    <path id="Path_277" data-name="Path 277" d="M820.757,723.246s-1.693,3.1-11.557,4.225c-5.122.581-5.158-.344-4-1.377a17.858,17.858,0,0,1,3.156-2.009s3.666-2.532,4.225-4.225,2.539-.28,2.539-.28c2.819,4.225,3.386-1.133,3.945-.567a12.721,12.721,0,0,1,1.3,3.02C820.6,722.715,820.757,723.246,820.757,723.246Z" transform="translate(-264.714 -319.979)" fill="#ff6f61"/>
    <path id="Path_278" data-name="Path 278" d="M820.757,724.452s-1.693,3.1-11.557,4.225c-5.122.581-5.158-.344-4-1.377.8.509,2.425.717,5.689-.6,4.7-1.923,8.106-3.034,9.476-3.465C820.6,723.921,820.757,724.452,820.757,724.452Z" transform="translate(-264.714 -321.186)" opacity="0.1"/>
    <path id="Path_279" data-name="Path 279" d="M820.21,685.676s.28-4.792-1.126-8.178a15.291,15.291,0,0,1,0-5.351c.56-2.26-2.26-13.25-2.26-13.25l-2.253-11-1.951.115,2.231,10.882s2.819,10.99,2.26,13.25a15.3,15.3,0,0,0,0,5.351c1.435,3.386,1.126,8.178,1.126,8.178a59.406,59.406,0,0,0,.846,14.663,2.468,2.468,0,0,1-.818,1.162,1.843,1.843,0,0,0,2.79-1.162A59.418,59.418,0,0,1,820.21,685.676Z" transform="translate(-266.986 -299.891)" opacity="0.1"/>
    <path id="Path_280" data-name="Path 280" d="M812.863,562.42a10.043,10.043,0,0,0-5.323,1.514,9.577,9.577,0,0,0-10.76,5.129,11.678,11.678,0,0,0-3.651,8.723c0,6,4.039,10.854,9.017,10.854,3.587,0,6.729-2.554,8.171-6.248a9.9,9.9,0,0,0,2.539.33,10.151,10.151,0,0,0,0-20.3Z" transform="translate(-261.476 -275.73)" fill="#3f3d56"/>
    <path id="Path_281" data-name="Path 281" d="M827.78,650.65l.846,2.253s.846,14.943.56,16.356,1.133,6.456,1.133,6.456a36.09,36.09,0,0,1,1.973,15.782l.28,7.891s1.126,3.1.567,3.666-4.813-.5-4.813-.5.567-5.918-1.435-9.584-3.1-12.97-3.1-12.97-2.819-5.638-2.819-7.891-4.512-20.581-4.512-20.581Z" transform="translate(-268.072 -300.668)" fill="#be6f72"/>
    <path id="Path_282" data-name="Path 282" d="M801.571,643.267s.287-10.151,1.435-13.249a21.04,21.04,0,0,0,1.255-4.5s17.066,3.085,18.479,1.958c0,0,.28,3.945.567,4.225a40.538,40.538,0,0,1,1.126,10.717c-.308,3.386,0,3.379,0,3.379s-11.564,1.693-11.844,0-1.126-1.686-1.126-1.686S801.012,643.8,801.571,643.267Z" transform="translate(-263.857 -293.565)" fill="#3f3d56"/>
    <g id="Group_34" data-name="Group 34" transform="translate(537.714 333.913)" opacity="0.1">
      <path id="Path_283" data-name="Path 283" d="M810.884,650.031s-7.13-.194-9.283-.581v.581c-.56.56,9.871.846,9.871.846a.717.717,0,0,1,.387.158C811.479,650.031,810.884,650.031,810.884,650.031Z" transform="translate(-801.58 -634.242)"/>
      <path id="Path_284" data-name="Path 284" d="M827.593,632.475c-.287-.28-.567-4.225-.567-4.225a1.213,1.213,0,0,1-.481.172,14.255,14.255,0,0,0,.481,3.207,44.773,44.773,0,0,1,1.126,10.717c-.308,3.386,0,3.379,0,3.379s-9.146,1.341-11.363.445a3.407,3.407,0,0,0,.086.4c.28,1.693,11.844,0,11.844,0s-.287,0,0-3.379A41.909,41.909,0,0,0,827.593,632.475Z" transform="translate(-805.879 -628.25)"/>
      <path id="Path_285" data-name="Path 285" d="M810.884,650.031s-7.13-.194-9.283-.581v.581c-.56.56,9.871.846,9.871.846a.717.717,0,0,1,.387.158C811.479,650.031,810.884,650.031,810.884,650.031Z" transform="translate(-801.58 -634.242)"/>
      <path id="Path_286" data-name="Path 286" d="M827.593,632.475c-.287-.28-.567-4.225-.567-4.225a1.213,1.213,0,0,1-.481.172,14.255,14.255,0,0,0,.481,3.207,44.773,44.773,0,0,1,1.126,10.717c-.308,3.386,0,3.379,0,3.379s-9.146,1.341-11.363.445a3.407,3.407,0,0,0,.086.4c.28,1.693,11.844,0,11.844,0s-.287,0,0-3.379A41.909,41.909,0,0,0,827.593,632.475Z" transform="translate(-805.879 -628.25)"/>
    </g>
    <path id="Path_287" data-name="Path 287" d="M816.509,586.038a3.737,3.737,0,0,0,1.076,1.392,2.411,2.411,0,0,0,1.011.438c-.631.366-1.32.638-1.951,1a34.681,34.681,0,0,0-2.869,2.152,5.839,5.839,0,0,1-3.293,1.277,4.031,4.031,0,0,0,.459-4.01,3.746,3.746,0,0,1-.5-1.392,2.5,2.5,0,0,1,1.384-1.865c.538-.366,1.09-.717,1.65-1.069.438-.273,1.1-.846,1.65-.825s.617.509.717,1.011A7.949,7.949,0,0,0,816.509,586.038Z" transform="translate(-266.37 -281.587)" fill="#be6f72"/>
    <path id="Path_288" data-name="Path 288" d="M816.509,586.038a3.737,3.737,0,0,0,1.076,1.392,2.411,2.411,0,0,0,1.011.438c-.631.366-1.32.638-1.951,1a34.681,34.681,0,0,0-2.869,2.152,5.839,5.839,0,0,1-3.293,1.277,4.031,4.031,0,0,0,.459-4.01,3.746,3.746,0,0,1-.5-1.392,2.5,2.5,0,0,1,1.384-1.865c.538-.366,1.09-.717,1.65-1.069.438-.273,1.1-.846,1.65-.825s.617.509.717,1.011A7.949,7.949,0,0,0,816.509,586.038Z" transform="translate(-266.37 -281.587)" opacity="0.1"/>
    <circle id="Ellipse_52" data-name="Ellipse 52" cx="6.485" cy="6.485" r="6.485" transform="translate(550.261 308.117)" fill="#be6f72"/>
    <path id="Path_289" data-name="Path 289" d="M837.694,727c0,.567-1.126,1.973-1.126,1.973a13.96,13.96,0,0,1-6.765-.846c-.567-.28.28-1.973.28-1.973l.065-.136a6.843,6.843,0,0,1,1.069-1.836c.56-.56.9-2.869.9-2.869,1.75-2.869,4.857,1.241,4.857,1.241s.395,2.152.6,3.458A9.834,9.834,0,0,1,837.694,727Z" transform="translate(-271.788 -320.352)" fill="#ff6f61"/>
    <path id="Path_290" data-name="Path 290" d="M837.694,729.244c0,.567-1.126,1.973-1.126,1.973a13.96,13.96,0,0,1-6.765-.846c-.567-.28.28-1.973.28-1.973l.065-.136a13.63,13.63,0,0,0,6.141,1.263l1.284-1.284C837.644,728.721,837.694,729.1,837.694,729.244Z" transform="translate(-271.788 -322.599)" opacity="0.1"/>
    <circle id="Ellipse_53" data-name="Ellipse 53" cx="6.341" cy="6.341" r="6.341" transform="translate(537.435 294.724)" fill="#be6f72"/>
    <path id="Path_291" data-name="Path 291" d="M802.091,599.472c-1.392,1.327-1.621,3.429-1.765,5.344l-.215,2.8a14.154,14.154,0,0,0-.05,2.274c0,.466.115.94.158,1.435s.057,1.119.065,1.686v4.146a4.892,4.892,0,0,0,.459,2.489,1.693,1.693,0,0,0,2.152.775,2.453,2.453,0,0,0,.889-1.377,21.411,21.411,0,0,0,1.435-5.251c.057-.624.065-1.248.122-1.872s.165-1.277.258-1.908c.4-2.64.581-5.308.76-7.97.05-.789.76-3.9-.273-4.24-.5-.165-1.542.352-2.023.524a5.7,5.7,0,0,0-1.973,1.141Z" transform="translate(-263.43 -285.723)" fill="#be6f72"/>
    <path id="Path_292" data-name="Path 292" d="M802.091,599.472c-1.392,1.327-1.621,3.429-1.765,5.344l-.215,2.8a14.154,14.154,0,0,0-.05,2.274c0,.466.115.94.158,1.435s.057,1.119.065,1.686v4.146a4.892,4.892,0,0,0,.459,2.489,1.693,1.693,0,0,0,2.152.775,2.453,2.453,0,0,0,.889-1.377,21.411,21.411,0,0,0,1.435-5.251c.057-.624.065-1.248.122-1.872s.165-1.277.258-1.908c.4-2.64.581-5.308.76-7.97.05-.789.76-3.9-.273-4.24-.5-.165-1.542.352-2.023.524a5.7,5.7,0,0,0-1.973,1.141Z" transform="translate(-263.43 -285.723)" opacity="0.1"/>
    <path id="Path_293" data-name="Path 293" d="M816.493,588.16s-4.792,3.666-7.611,4.512c0,0-1.672,1.908-1.958,2.367s-.861,5.524-1.435,6.657-1.973,3.666,0,6.2a10.746,10.746,0,0,1,.28,3.386c-.28.846-1.306,3.945-.373,4.089s3.759,2.109,6.291,1.549,11.987,2.152,11.987,2.152,1.564-14.526,2.7-17.095l-2.539-.846s-7.044-4.225-2.819-10.71C821.005,590.42,817.045,589.573,816.493,588.16Z" transform="translate(-264.683 -283.006)" fill="#ff6f61"/>
    <path id="Path_294" data-name="Path 294" d="M796.769,611.11l5.825,4.125a.43.43,0,0,0,.509,0l1.578-1.184a.445.445,0,0,0,0-.674L800.2,609.4a.43.43,0,0,0-.437-.086l-2.877,1.033a.438.438,0,0,0-.115.768Z" transform="translate(-262.455 -288.976)" fill="#3f3d56"/>
    <path id="Path_295" data-name="Path 295" d="M799.282,624.776a15.608,15.608,0,0,1-.61-4.4l-.086-1.987a5.738,5.738,0,0,1,.208-2.3,3.752,3.752,0,0,1,2.417-2.116,8.35,8.35,0,0,1,3.293-.237.847.847,0,0,1,.423.115.789.789,0,0,1,.229.387,2.6,2.6,0,0,1,.129,2.073,2.152,2.152,0,0,1-.66.682c-.782.56-1.693.932-2.432,1.542a.882.882,0,0,0-.33.416.97.97,0,0,0,0,.452,7.221,7.221,0,0,0,.373,1.155,1.141,1.141,0,0,0,.323.488c.136.115.316.158.459.265.308.251.954.581.918.976-.108,1.435-.968,3.042-1.306,4.462C801.986,629.532,799.7,625.989,799.282,624.776Z" transform="translate(-263.009 -290.218)" fill="#be6f72"/>
    <g id="Group_35" data-name="Group 35" transform="translate(545.175 318.547)" opacity="0.1">
      <path id="Path_296" data-name="Path 296" d="M812.138,628.223h-.158a4.829,4.829,0,0,0,1.844,0H814A6.461,6.461,0,0,0,812.138,628.223Z" transform="translate(-811.98 -612.858)"/>
      <path id="Path_297" data-name="Path 297" d="M831.739,606.83c-1.011,2.274-2.5,14.591-2.769,17.037.99.258,1.643.445,1.643.445s1.549-14.491,2.683-17.059Z" transform="translate(-816.782 -606.83)"/>
    </g>
    <path id="Path_298" data-name="Path 298" d="M823.753,598.563a2.152,2.152,0,0,0,.925,1.4,12.42,12.42,0,0,1,1.643,1.664,11.785,11.785,0,0,1,1.628,3.264,39.989,39.989,0,0,1,1.356,4.462c-3.587,1.664-7.661,1.585-11.478,2.683a9.161,9.161,0,0,0-4.3,2.547,5.932,5.932,0,0,0-1.585,4.67.488.488,0,0,0,.588.481,4.3,4.3,0,0,0,2.633-.9,12.531,12.531,0,0,0,2.016-1.98,3.243,3.243,0,0,1,1.435-1.062,23.481,23.481,0,0,1,6.456-.631,81.342,81.342,0,0,0,9.62-.76.775.775,0,0,0,.861-.861c.316-4.232-1.255-8.364-2.869-12.288q-.968-2.36-1.994-4.7a13.917,13.917,0,0,0-2.439-4.175,4.3,4.3,0,0,0-1.435-1.062,6.068,6.068,0,0,0-1.922-.359,13.636,13.636,0,0,0-3.149-.057,6.711,6.711,0,0,0-.3,1.628,14.107,14.107,0,0,0,1.736,5.5C823.279,598.29,823.588,598.3,823.753,598.563Z" transform="translate(-266.785 -283.76)" fill="#be6f72"/>
    <path id="Path_299" data-name="Path 299" d="M812.127,606.67a5.258,5.258,0,0,0-.717,2.74,3.691,3.691,0,0,0,.179,1.119,3.629,3.629,0,0,0,2.288,2.152" transform="translate(-266.644 -288.238)" fill="none" stroke="#000" stroke-miterlimit="10" stroke-width="1" opacity="0.1"/>
    <path id="Path_300" data-name="Path 300" d="M812.384,572.93a3.29,3.29,0,0,0-1.04.165c-.94-1.435-3.149-2.425-5.739-2.425-3.429,0-6.205,1.772-6.205,3.953s2.776,3.945,6.205,3.945a8.729,8.729,0,0,0,3.723-.789,3.379,3.379,0,1,0,3.042-4.849Z" transform="translate(-263.25 -278.062)" fill="#3f3d56"/>
    <path id="Path_301" data-name="Path 301" d="M812.658,579.916A3.372,3.372,0,0,1,809.616,578a8.73,8.73,0,0,1-3.723.79c-3.422,0-6.2-1.765-6.2-3.945a2.379,2.379,0,0,1,0-.395,2.675,2.675,0,0,0-.316,1.241c0,2.152,2.776,3.945,6.205,3.945a8.73,8.73,0,0,0,3.723-.789,3.379,3.379,0,0,0,6.363-.839A3.364,3.364,0,0,1,812.658,579.916Z" transform="translate(-263.244 -279.131)" opacity="0.1"/>
    <path id="Path_302" data-name="Path 302" d="M796.776,570.727a9.577,9.577,0,0,1,10.76-5.129,10.143,10.143,0,0,1,15.438,7.791v-.847a10.143,10.143,0,0,0-15.473-8.608,9.577,9.577,0,0,0-10.76,5.129,11.678,11.678,0,0,0-3.651,8.723v.846A11.477,11.477,0,0,1,796.776,570.727Z" transform="translate(-261.465 -275.731)" opacity="0.1"/>
    <path id="Path_303" data-name="Path 303" d="M885.218,546.907c1.872-3.465-.251-7.719-2.7-10.811s-5.416-6.306-5.351-10.251c.086-5.66,6.1-9,10.9-12.009a53.009,53.009,0,0,0,9.785-7.891,14.3,14.3,0,0,0,3.013-4.024c.99-2.217.961-4.735.9-7.174q-.316-12.123-1.2-24.218" transform="translate(-285.231 -249.758)" fill="none" stroke="#3f3d56" stroke-miterlimit="10" stroke-width="4"/>
    <path id="Path_304" data-name="Path 304" d="M915.565,466.613a8.817,8.817,0,0,0-4.4-7.231l-1.98,3.91.057-4.735a8.667,8.667,0,0,0-2.905-.352,8.831,8.831,0,1,0,9.232,8.407Z" transform="translate(-291.094 -246.272)" fill="#6c63ff"/>
    <path id="Path_305" data-name="Path 305" d="M894,548.189a8.831,8.831,0,1,1,.423-7.116l-5.517,4.491,6.069-1.435A8.781,8.781,0,0,1,894,548.189Z" transform="translate(-285.271 -268.071)" fill="#6c63ff"/>
    <path id="Path_306" data-name="Path 306" d="M890.843,522.4a8.831,8.831,0,0,1-2.8-17.324L888,508.709l2-3.953h0a8.833,8.833,0,1,1,.825,17.647Z" transform="translate(-286.48 -259.429)" fill="#6c63ff"/>
    <path id="Path_307" data-name="Path 307" d="M920.714,502.516a8.831,8.831,0,1,1,3.91-16.5l-1.564,4.3,3.214-3.085a8.78,8.78,0,0,1,2.87,6.1,8.525,8.525,0,0,1-.222,2.432A8.831,8.831,0,0,1,920.714,502.516Z" transform="translate(-294.915 -253.81)" fill="#6c63ff"/>
    <path id="Path_308" data-name="Path 308" d="M914.378,470.872c-2.037.23-4.024.861-6.069.99s-4.3-.366-5.588-1.958a27.405,27.405,0,0,1-1.628-2.869,6.349,6.349,0,0,0-2.224-2.095,8.831,8.831,0,1,0,16.5,5.861C915.038,470.815,914.708,470.837,914.378,470.872Z" transform="translate(-291.09 -248.178)" opacity="0.1"/>
    <path id="Path_309" data-name="Path 309" d="M920.728,504.507a8.838,8.838,0,0,1-8.4-12.6,6.536,6.536,0,0,1,1.779,1.772,28.3,28.3,0,0,0,1.75,2.92c1.37,1.621,3.723,2.152,5.854,2.052s4.189-.717,6.313-.9c.294,0,.6-.05.89-.057a8.831,8.831,0,0,1-8.185,6.808Z" transform="translate(-294.93 -255.801)" opacity="0.1"/>
    <path id="Path_310" data-name="Path 310" d="M890.844,524.446A8.823,8.823,0,0,1,882.371,512a7.28,7.28,0,0,1,1.865,1.793c.717.968,1.112,2.088,1.915,2.977,1.492,1.664,4,2.245,6.255,2.2s4.3-.588,6.456-.753a8.83,8.83,0,0,1-8.02,6.234Z" transform="translate(-286.48 -261.479)" opacity="0.1"/>
    <path id="Path_311" data-name="Path 311" d="M894.016,550.434a8.838,8.838,0,0,1-16.1-7.174,8.652,8.652,0,0,1,1.937,1.729c.847,1.026,1.4,2.152,2.367,3.142,1.808,1.772,4.72,2.5,7.317,2.568a38.675,38.675,0,0,0,4.484-.266Z" transform="translate(-285.291 -270.315)" opacity="0.1"/>
    <path id="Path_312" data-name="Path 312" d="M1044.218,698.907c1.872-3.465-.251-7.719-2.7-10.811s-5.416-6.305-5.351-10.251c.086-5.66,6.1-9,10.9-12.009a53.024,53.024,0,0,0,9.785-7.891,14.3,14.3,0,0,0,3.013-4.024c.99-2.217.961-4.734.9-7.174q-.309-12.123-1.2-24.218" transform="translate(-330.171 -292.72)" fill="none" stroke="#3f3d56" stroke-miterlimit="10" stroke-width="4"/>
    <path id="Path_313" data-name="Path 313" d="M1074.579,618.614a8.816,8.816,0,0,0-4.4-7.231l-1.98,3.91.057-4.734a8.664,8.664,0,0,0-2.869-.352,8.831,8.831,0,1,0,9.232,8.407Z" transform="translate(-336.049 -289.234)" fill="#6c63ff"/>
    <path id="Path_314" data-name="Path 314" d="M1053,700.19a8.83,8.83,0,1,1,.423-7.116l-5.516,4.491,6.069-1.435a8.778,8.778,0,0,1-.975,4.06Z" transform="translate(-330.212 -311.033)" fill="#6c63ff"/>
    <path id="Path_315" data-name="Path 315" d="M1049.843,674.4a8.831,8.831,0,0,1-2.8-17.324l-.043,3.637,2-3.953h0a8.833,8.833,0,1,1,.825,17.647Z" transform="translate(-331.42 -302.392)" fill="#6c63ff"/>
    <path id="Path_316" data-name="Path 316" d="M1079.714,654.516a8.831,8.831,0,1,1,3.91-16.5l-1.564,4.3,3.214-3.085a8.781,8.781,0,0,1,2.869,6.1,8.525,8.525,0,0,1-.223,2.432A8.831,8.831,0,0,1,1079.714,654.516Z" transform="translate(-339.856 -296.772)" fill="#6c63ff"/>
    <path id="Path_317" data-name="Path 317" d="M1073.378,622.873c-2.037.23-4.024.861-6.069.99s-4.3-.366-5.588-1.958a27.406,27.406,0,0,1-1.628-2.869,6.348,6.348,0,0,0-2.224-2.095,8.831,8.831,0,1,0,16.5,5.861C1074.038,622.815,1073.708,622.837,1073.378,622.873Z" transform="translate(-336.031 -291.14)" opacity="0.1"/>
    <path id="Path_318" data-name="Path 318" d="M1079.728,656.507a8.838,8.838,0,0,1-8.4-12.6,6.538,6.538,0,0,1,1.779,1.772,28.318,28.318,0,0,0,1.75,2.92c1.37,1.621,3.723,2.152,5.854,2.052s4.189-.717,6.313-.9c.294,0,.6-.05.89-.057A8.83,8.83,0,0,1,1079.728,656.507Z" transform="translate(-339.87 -298.763)" opacity="0.1"/>
    <path id="Path_319" data-name="Path 319" d="M1049.844,676.446A8.824,8.824,0,0,1,1041.372,664a7.278,7.278,0,0,1,1.865,1.793c.718.968,1.112,2.087,1.916,2.977,1.492,1.664,4,2.245,6.255,2.2s4.3-.588,6.456-.753A8.83,8.83,0,0,1,1049.844,676.446Z" transform="translate(-331.421 -304.442)" opacity="0.1"/>
    <path id="Path_320" data-name="Path 320" d="M1053.016,702.434a8.838,8.838,0,0,1-16.1-7.174,8.654,8.654,0,0,1,1.937,1.729c.846,1.026,1.435,2.152,2.367,3.142,1.808,1.772,4.72,2.5,7.317,2.568a38.7,38.7,0,0,0,4.484-.265Z" transform="translate(-330.232 -313.277)" opacity="0.1"/>
    <path id="Path_321" data-name="Path 321" d="M492.1,579.973a7.037,7.037,0,0,0-2.8-5.681,8.25,8.25,0,0,0-6.894-8.092,8.235,8.235,0,0,0-5.488-6.133h0a7.01,7.01,0,0,0-1.019-.237h-1.212a8.078,8.078,0,0,0-7.8,6.9c-2.518-.581-4.821.172-5.244,1.765a2.152,2.152,0,0,0,.072,1.277,5.551,5.551,0,0,0,3.7,3l.244.072.366.093h.079a6.342,6.342,0,0,0-.6,2.719,6.27,6.27,0,0,0,3.379,5.6l-.165.1a2.238,2.238,0,0,0-.545.76,11.38,11.38,0,0,0-1.055,2.539c-.179.76-.208,1.549-.43,2.3-.416,1.385-1.478,2.554-1.6,4-.057.646.05,1.435-.409,1.851a2.227,2.227,0,0,1-.366.258,2.962,2.962,0,0,0-.8.839,2.784,2.784,0,0,1-.56.8c-.416.309-1.1.28-1.3.76s.323,1.047.2,1.571-.567.624-.889.918a3.192,3.192,0,0,0-.768,1.435,4.706,4.706,0,0,1-3.874-.99,7.242,7.242,0,0,1,.4,1.435,6.286,6.286,0,0,0-2.087-1.047,6.591,6.591,0,0,1-2.224-1.65l1.191-.165-5.258-8.027-1.557-.323,1.392,2.676a.853.853,0,0,0-.473.567,2.431,2.431,0,0,0-.05.911,16.311,16.311,0,0,0,.359,2.152l.4,1.879c.036.172.079.352.129.524a4.942,4.942,0,0,0-1.557.172,13.548,13.548,0,0,0-3.235-.768,1.794,1.794,0,0,0-.717,0,1.858,1.858,0,0,0-.681.552,22.066,22.066,0,0,0-2.4,3.386c-2.869,4.921-6.607,9.218-10.143,13.666-2.439.99-4.9,1.93-7.36,2.869l-5.294,2.023a8.029,8.029,0,0,1-3.285.717c-.5,0-1.126-.108-1.435.323a3.02,3.02,0,0,0-.323.717l-.545.057h0a6.269,6.269,0,0,0-1.27-2.339.8.8,0,0,0-.6.459c-.129.237-.208.495-.359.717-.28.416-.775.617-1.126.968s-.574.9-.961,1.255a3.8,3.8,0,0,1-1.8.717,11.362,11.362,0,0,0-2.819,1.069,4.544,4.544,0,0,1-1.04.481,3.906,3.906,0,0,1-1.227.043l-2.8-.208a2.211,2.211,0,0,0-.753.036,1.435,1.435,0,0,0-.89,1.435,2.26,2.26,0,0,0,.89,1.542,5.694,5.694,0,0,0,1.593.825,46.743,46.743,0,0,0,7.461,2.21v.567a12.733,12.733,0,0,0,5.739,1.363.888.888,0,0,0,.43-.079.947.947,0,0,0,.359-.559,23.077,23.077,0,0,0,1.119-5.495h0a2.869,2.869,0,0,0,1.011-.258c.961-.265,1.923.395,2.92.5,1.227.136,2.36-.581,3.522-1.019l.5-.165a5.509,5.509,0,0,1-1.162,1.112c-.481.344-1.019.6-1.485.961a10.223,10.223,0,0,1-1.263.976,7.915,7.915,0,0,1-.968.373,6.388,6.388,0,0,0-1.384.717,2.8,2.8,0,0,0-.94.918,1.377,1.377,0,0,0-.079,1.291,1.363,1.363,0,0,0,.925.646,3.8,3.8,0,0,0,1.141,0c1.521-.115,3.034-.251,4.548-.387a12.14,12.14,0,0,0,1.9-.273c.33-.079.66-.187.99-.28a8.833,8.833,0,0,1,1.729-.258,1.434,1.434,0,0,1,.5.05c.352.115.6.473.961.545a1.435,1.435,0,0,0,.717-.093,15.994,15.994,0,0,1,3.364-.359,1.389,1.389,0,0,0,1.306-.581c.23-.459-.187-1.2-.373-1.808a5.531,5.531,0,0,1-.158-1.191,7.455,7.455,0,0,0-.832-2.826,7.374,7.374,0,0,1-.624-1.291,32.622,32.622,0,0,0,6.191-3.142,11.067,11.067,0,0,1,3.529-1.7,9.6,9.6,0,0,1,4.433.516,100.878,100.878,0,0,1,10.165,3.544c1.585.653,3.164,1.341,4.8,1.836a7.481,7.481,0,0,0,1.707,1.657,7.89,7.89,0,0,0,3.694,1.011,48.422,48.422,0,0,0,5.2.194,8.773,8.773,0,0,0,3.874-.717,3.983,3.983,0,0,0,.811-.538,3.214,3.214,0,0,0,2.554-.94,6.191,6.191,0,0,0,1.944-3.07c.423-1.636.1-3.587,1.1-4.892.265-.359.617-.646.882-1a2.826,2.826,0,0,0,.459-1.657.333.333,0,0,1,.043-.065,6.078,6.078,0,0,0,.43-1.65,9.435,9.435,0,0,1,.466-1.306,40.309,40.309,0,0,0,1.334-3.866,22.589,22.589,0,0,0,.617-2.654c.108-.717.172-1.435.23-2.152a13.368,13.368,0,0,1,.653-3.321,27.03,27.03,0,0,0,1.506-7.948v-.158a5.33,5.33,0,0,0,4.72-5.423,5.659,5.659,0,0,0-.495-2.317,7.172,7.172,0,0,0,.961-3.615Zm-25.667,31.183c.079.28.172.552.265.825-.423-.409-.832-.832-1.255-1.248.165.057.337.108.495.172a2.663,2.663,0,0,1,.473.251Zm-2.03-1.377c-2.482-2.152-5.351-3.824-7.891-5.911,1.384.681,2.733,1.478,4.067,2.238q2.374,1.356,4.813,2.6a3.94,3.94,0,0,1-1.012,1.069Zm1.055-5.423.122-.122v.854l-.667-.23a5.943,5.943,0,0,0,.524-.5Zm-21.829,5.811a20.541,20.541,0,0,0,2.64-3.766c.983,1.714,2.582,2.955,3.938,4.4C448.023,610.518,445.828,610.281,443.632,610.167Z" transform="translate(-149.209 -274.998)" fill="url(#linear-gradient-2)"/>
    <path id="Path_322" data-name="Path 322" d="M415.35,438.25l1.564.316,5.33,7.884-2.346.316Z" transform="translate(-117.397 -123.971)" fill="#2f2e41"/>
    <path id="Path_323" data-name="Path 323" d="M414.49,645.429a30.691,30.691,0,0,0,1.564,4.067,38.727,38.727,0,0,0,5.2-1.485,16.384,16.384,0,0,0-1.083-1.435,5.349,5.349,0,0,0-1.471-1.126,4.046,4.046,0,0,0-1.786,0C416.111,645.429,415.3,645.443,414.49,645.429Z" transform="translate(-154.456 -299.171)" fill="#fbbebe"/>
    <path id="Path_324" data-name="Path 324" d="M413.428,646.64a3.242,3.242,0,0,1-1.779-2.023,6.513,6.513,0,0,0-1.356-2.417.775.775,0,0,0-.6.452c-.129.229-.208.488-.352.717-.287.409-.789.61-1.148.954s-.574.882-.961,1.234a3.817,3.817,0,0,1-1.815.717,11.77,11.77,0,0,0-2.87,1.055,4.951,4.951,0,0,1-1.054.473,4.172,4.172,0,0,1-1.234,0l-2.826-.2a2.207,2.207,0,0,0-.717,0,1.37,1.37,0,0,0-.9,1.435,2.152,2.152,0,0,0,.9,1.521,5.956,5.956,0,0,0,1.607.818,47.277,47.277,0,0,0,7.575,2.152v.56a13.114,13.114,0,0,0,5.775,1.341.976.976,0,0,0,.43-.072.947.947,0,0,0,.359-.56,22.383,22.383,0,0,0,1.184-6.141,4.892,4.892,0,0,0-.122-1.585c-.158-.509.373-.294-.115-.495" transform="translate(-149.176 -298.28)" fill="#2f2e41"/>
    <path id="Path_325" data-name="Path 325" d="M474.009,632.659c-8.379.5-16.657-1.951-25.05-2.209a12.226,12.226,0,0,0-3.113.194,15.682,15.682,0,0,0-3.085,1.2c-4.5,2.095-9.153,3.831-13.8,5.56l-5.344,1.987a8.092,8.092,0,0,1-3.307.717c-.509,0-1.133-.108-1.435.316-.868,1.291-.459,3.178.115,4.627.187.466.5.976,1,1.026a2.92,2.92,0,0,0,1.019-.258c.968-.258,1.937.395,2.941.5,1.234.129,2.382-.574,3.551-1,1.937-.717,4.046-.717,6.083-1.033a27.253,27.253,0,0,0,9.526-3.953,11.12,11.12,0,0,1,3.551-1.679,9.828,9.828,0,0,1,4.469.509,102.568,102.568,0,0,1,10.251,3.486,47.764,47.764,0,0,0,5.351,1.958,19.368,19.368,0,0,0,12-.717c1.341-.531,2.8-1.435,2.869-2.912.05-.825-.6-1.549-1.019-2.26-.273-.452-.552-.9-.846-1.341C478.306,635.292,476.555,632.508,474.009,632.659Z" transform="translate(-155.554 -294.951)" fill="#2f2e41"/>
    <path id="Path_326" data-name="Path 326" d="M474.009,632.659c-8.379.5-16.657-1.951-25.05-2.209a12.226,12.226,0,0,0-3.113.194,15.682,15.682,0,0,0-3.085,1.2c-4.5,2.095-9.153,3.831-13.8,5.56l-5.344,1.987a8.092,8.092,0,0,1-3.307.717c-.509,0-1.133-.108-1.435.316-.868,1.291-.459,3.178.115,4.627.187.466.5.976,1,1.026a2.92,2.92,0,0,0,1.019-.258c.968-.258,1.937.395,2.941.5,1.234.129,2.382-.574,3.551-1,1.937-.717,4.046-.717,6.083-1.033a27.253,27.253,0,0,0,9.526-3.953,11.12,11.12,0,0,1,3.551-1.679,9.828,9.828,0,0,1,4.469.509,102.568,102.568,0,0,1,10.251,3.486,47.764,47.764,0,0,0,5.351,1.958,19.368,19.368,0,0,0,12-.717c1.341-.531,2.8-1.435,2.869-2.912.05-.825-.6-1.549-1.019-2.26-.273-.452-.552-.9-.846-1.341C478.306,635.292,476.555,632.508,474.009,632.659Z" transform="translate(-155.554 -294.951)" opacity="0.1"/>
    <path id="Path_327" data-name="Path 327" d="M436.92,644.626q1.966.667,3.967,1.234c.717-1.227,2.152-2.08,2.461-3.486a.33.33,0,0,0,0-.187.344.344,0,0,0-.151-.136,7.516,7.516,0,0,0-3.113-.911c-.861-.05-1.255.846-1.643,1.478C438.29,642.9,437.271,644.762,436.92,644.626Z" transform="translate(-160.796 -297.98)" fill="#fbbebe"/>
    <path id="Path_328" data-name="Path 328" d="M434.375,644a2.869,2.869,0,0,1-1.93-1.27c-.179-.323-.38-.76-.753-.717s-.495.43-.574.768a21.523,21.523,0,0,1-1.083,3.723,6.987,6.987,0,0,1-2.317,3.049c-.488.337-1.026.588-1.506.947a10.353,10.353,0,0,1-1.27.961,7.543,7.543,0,0,1-.976.359,6.762,6.762,0,0,0-1.392.717,2.762,2.762,0,0,0-.954.911,1.313,1.313,0,0,0-.072,1.27,1.356,1.356,0,0,0,.925.631,3.9,3.9,0,0,0,1.155,0c1.528-.108,3.056-.244,4.584-.38a13.229,13.229,0,0,0,1.915-.265l1-.273a7.93,7.93,0,0,1,1.743-.258,1.355,1.355,0,0,1,.509.05c.352.115.6.466.968.538a1.621,1.621,0,0,0,.717-.093,15.845,15.845,0,0,1,3.393-.352,1.432,1.432,0,0,0,1.32-.574c.287-.56-.187-1.184-.38-1.786a5.738,5.738,0,0,1-.158-1.169A7.13,7.13,0,0,0,438.4,648c-.387-.717-.918-1.506-.646-2.267a2.151,2.151,0,0,0,.258-.782C437.9,643.716,435.078,644.154,434.375,644Z" transform="translate(-156.415 -298.225)" fill="#2f2e41"/>
    <path id="Path_329" data-name="Path 329" d="M475.639,611.9a6.543,6.543,0,0,1-3.343-3.314c-.136-.316-.251-.653-.387-.968a7.361,7.361,0,0,0-1.994-2.776.983.983,0,0,0-.717-.309.782.782,0,0,0-.538.581,2.217,2.217,0,0,0-.057.9,15.972,15.972,0,0,0,.359,2.095l.409,1.851a4.06,4.06,0,0,0,.251.825,2.869,2.869,0,0,0,.681.811c.373.344.753.674,1.133,1a3.894,3.894,0,0,0,.717.495,4.169,4.169,0,0,0,1.27.373,10.8,10.8,0,0,1,4.763,1.836s0-1.241,0-1.377a1.822,1.822,0,0,0-.359-1,6.362,6.362,0,0,0-2.188-1.026Z" transform="translate(-169.745 -287.633)" fill="#fbbebe"/>
    <path id="Path_330" data-name="Path 330" d="M475.639,611.9a6.543,6.543,0,0,1-3.343-3.314c-.136-.316-.251-.653-.387-.968a7.361,7.361,0,0,0-1.994-2.776.983.983,0,0,0-.717-.309.782.782,0,0,0-.538.581,2.217,2.217,0,0,0-.057.9,15.972,15.972,0,0,0,.359,2.095l.409,1.851a4.06,4.06,0,0,0,.251.825,2.869,2.869,0,0,0,.681.811c.373.344.753.674,1.133,1a3.894,3.894,0,0,0,.717.495,4.169,4.169,0,0,0,1.27.373,10.8,10.8,0,0,1,4.763,1.836s0-1.241,0-1.377a1.822,1.822,0,0,0-.359-1,6.362,6.362,0,0,0-2.188-1.026Z" transform="translate(-169.745 -287.633)" opacity="0.1"/>
    <ellipse id="Ellipse_54" data-name="Ellipse 54" cx="2.037" cy="2.052" rx="2.037" ry="2.052" transform="translate(320.915 306.001)" fill="#2f2e41"/>
    <path id="Path_331" data-name="Path 331" d="M494.886,590.456a2.2,2.2,0,0,0-1.607.23,2.231,2.231,0,0,0-.552.753,10.94,10.94,0,0,0-1.062,2.5c-.179.717-.208,1.528-.438,2.267-.416,1.363-1.485,2.518-1.607,3.938-.057.638.05,1.385-.416,1.815a2.635,2.635,0,0,1-.366.265,2.755,2.755,0,0,0-.8.825,2.706,2.706,0,0,1-.567.782c-.416.308-1.1.28-1.306.717s.323,1.033.2,1.549-.574.617-.9.9a3.134,3.134,0,0,0-.775,1.435,4.785,4.785,0,0,1-3.9-.968,12.424,12.424,0,0,1,.61,4.462,1.822,1.822,0,0,1-.359,1.377,24.847,24.847,0,0,1,4.785.832,3.3,3.3,0,0,0,2.087,0,3.486,3.486,0,0,0,.961-.76,6.128,6.128,0,0,0,1.973-3.042,17.871,17.871,0,0,0,.036-2.059,11.6,11.6,0,0,1,.524-2.5,29.79,29.79,0,0,0,.911-5.151c.093-1.076,1.026-1.937,1.514-2.869a14.05,14.05,0,0,0,1.93-5.739C495.79,591.353,495.56,590.528,494.886,590.456Z" transform="translate(-173.196 -283.638)" fill="#2f2e41"/>
    <path id="Path_332" data-name="Path 332" d="M494.886,590.456a2.2,2.2,0,0,0-1.607.23,2.231,2.231,0,0,0-.552.753,10.94,10.94,0,0,0-1.062,2.5c-.179.717-.208,1.528-.438,2.267-.416,1.363-1.485,2.518-1.607,3.938-.057.638.05,1.385-.416,1.815a2.635,2.635,0,0,1-.366.265,2.755,2.755,0,0,0-.8.825,2.706,2.706,0,0,1-.567.782c-.416.308-1.1.28-1.306.717s.323,1.033.2,1.549-.574.617-.9.9a3.134,3.134,0,0,0-.775,1.435,4.785,4.785,0,0,1-3.9-.968,12.424,12.424,0,0,1,.61,4.462,1.822,1.822,0,0,1-.359,1.377,24.847,24.847,0,0,1,4.785.832,3.3,3.3,0,0,0,2.087,0,3.486,3.486,0,0,0,.961-.76,6.128,6.128,0,0,0,1.973-3.042,17.871,17.871,0,0,0,.036-2.059,11.6,11.6,0,0,1,.524-2.5,29.79,29.79,0,0,0,.911-5.151c.093-1.076,1.026-1.937,1.514-2.869a14.05,14.05,0,0,0,1.93-5.739C495.79,591.353,495.56,590.528,494.886,590.456Z" transform="translate(-173.196 -283.638)" opacity="0.1"/>
    <path id="Path_333" data-name="Path 333" d="M481.295,629.2c-1.743-.832-3.02-2.374-4.433-3.7-2.69-2.532-5.983-4.3-8.816-6.693a62.109,62.109,0,0,0-5.617-4.72,14.037,14.037,0,0,0-6.019-2.1,1.6,1.6,0,0,0-.717,0,1.65,1.65,0,0,0-.682.538,21.68,21.68,0,0,0-2.432,3.336c-3.587,6.1-8.687,11.219-12.912,16.887a1.076,1.076,0,0,0-.208.4,1,1,0,0,0,.158.624l.861,1.679c.481.947,1.255,2.044,2.288,1.858a2.5,2.5,0,0,0,1.2-.768l3.859-3.694,4.046-3.867c2.367-2.26,4.778-4.577,6.327-7.475,1.205,2.095,3.35,3.465,4.813,5.38.56.717,1.019,1.528,1.521,2.3.8,1.234,1.707,2.4,2.611,3.587l4.641,5.918a8.882,8.882,0,0,0,2.152,2.152,8.214,8.214,0,0,0,3.723,1,49.191,49.191,0,0,0,5.244.187,9.038,9.038,0,0,0,3.91-.717,3.543,3.543,0,0,0,2.116-3.149,4.62,4.62,0,0,0-.667-1.958A15.987,15.987,0,0,0,481.295,629.2Z" transform="translate(-161.513 -289.728)" fill="#2f2e41"/>
    <ellipse id="Ellipse_55" data-name="Ellipse 55" cx="1.571" cy="1.578" rx="1.571" ry="1.578" transform="translate(322.637 307.895)" fill="#e8e8f0"/>
    <path id="Path_334" data-name="Path 334" d="M502.622,590.588a3.02,3.02,0,0,1,.172,2.267,9.194,9.194,0,0,1-1.011,2.088,9.936,9.936,0,0,1-1.313,1.865,13.513,13.513,0,0,0,6.9-1.98,10.022,10.022,0,0,0,4.354-3.795,2.008,2.008,0,0,1-1.607-.3,5.743,5.743,0,0,1-1.227-1.141l-1.212-1.363a5.454,5.454,0,0,1-.717-.983,2.712,2.712,0,0,1-.323-1.585,9.23,9.23,0,0,1-1.607,1.334c-.868.567-1.822.976-2.7,1.535-.3.2-.99.516-.811.918S502.378,590.158,502.622,590.588Z" transform="translate(-178.758 -282.299)" fill="#fbbebe"/>
    <path id="Path_335" data-name="Path 335" d="M502.622,590.588a3.02,3.02,0,0,1,.172,2.267,9.194,9.194,0,0,1-1.011,2.088,9.936,9.936,0,0,1-1.313,1.865,13.513,13.513,0,0,0,6.9-1.98,10.022,10.022,0,0,0,4.354-3.795,2.008,2.008,0,0,1-1.607-.3,5.743,5.743,0,0,1-1.227-1.141l-1.212-1.363a5.454,5.454,0,0,1-.717-.983,2.712,2.712,0,0,1-.323-1.585,9.23,9.23,0,0,1-1.607,1.334c-.868.567-1.822.976-2.7,1.535-.3.2-.99.516-.811.918S502.378,590.158,502.622,590.588Z" transform="translate(-178.758 -282.299)" opacity="0.1"/>
    <path id="Path_336" data-name="Path 336" d="M499.748,592.76a2.044,2.044,0,0,0,0,2.367c.072.086.33.624.438.631a.394.394,0,0,0,.273-.143,18,18,0,0,0,1.535-1.829,3.414,3.414,0,0,1,1.951-1.277,4.218,4.218,0,0,1,2.69.839,2.554,2.554,0,0,1,.925.717,2.5,2.5,0,0,1,.3,1.026,49.411,49.411,0,0,1,.273,6.521,25.692,25.692,0,0,1-.308,4.7c-.158.8-.387,1.578-.495,2.389a15.236,15.236,0,0,0-.1,2.152v3a7.893,7.893,0,0,0,.115,1.643c.143.653.452,1.263.66,1.9a12.433,12.433,0,0,1,.438,2.245l.409,3.1a3.918,3.918,0,0,1-.366,2.869c-.265.352-.617.638-.889.99-1.011,1.32-.717,3.207-1.112,4.821a6.012,6.012,0,0,1-1.966,3.013,3.25,3.25,0,0,1-2.59.925c-1.263-.237-2.016-1.549-2.36-2.791a11.156,11.156,0,0,0-1.212-3.637,9.647,9.647,0,0,0-2.4-2,4.139,4.139,0,0,1-1.872-2.432c-.079-.452,0-.918-.079-1.377a3.25,3.25,0,0,0-2-2.633c-.646-.251-1.435-.344-1.808-.932a4.354,4.354,0,0,0,1.887-2.532,13.007,13.007,0,0,0,.459-3.2l.215-3.587a11.979,11.979,0,0,1,.854-4.656c.316-.646.717-1.255,1.04-1.894a20.548,20.548,0,0,0,1.112-2.776c.517-1.478,1.033-2.956,1.492-4.448a8.381,8.381,0,0,1,.818-2.073C498.464,593.714,499.023,592.9,499.748,592.76Z" transform="translate(-175.855 -284.234)" fill="#e8e8f0"/>
    <path id="Path_337" data-name="Path 337" d="M492.32,615.918h.954l.2-1.435a2.991,2.991,0,0,1,.2-.839,5.023,5.023,0,0,1,.552-.8c.933-1.327.868-3.085,1.1-4.7A23.909,23.909,0,0,1,497.42,602l1.851-4.125a5.694,5.694,0,0,0,.4-1.055,6.323,6.323,0,0,0,.115-1.219c0-.638.2-2.963.222-3.587,0-.237-.524-.108-.631-.316-.23-.459-.545.782-.983,1.055a2.41,2.41,0,0,0-.854,1.248c-.4,1.033-.646,2.152-1.019,3.178a6.491,6.491,0,0,1-1.729,2.812c-.38.33-.818.6-1.176.954-1.148,1.133-1.263,2.934-1.3,4.555C492.291,606.492,492.1,615.918,492.32,615.918Z" transform="translate(-176.426 -283.978)" fill="#2f2e41"/>
    <path id="Path_338" data-name="Path 338" d="M508.071,590.432a3.257,3.257,0,0,0-1.7,2.331,11.794,11.794,0,0,1-.861,2.869c-1.162,2.023-4.125,2.611-4.95,4.8a8.825,8.825,0,0,0-.33,2.26c-.143,1.571-.66,3.085-.818,4.648a20.714,20.714,0,0,0,.086,3.651l1.04,12.353a16.5,16.5,0,0,1-.308,5.438,5.236,5.236,0,0,0,3.113-.516c.968-.445,1.858-1.055,2.8-1.571a28.823,28.823,0,0,0,4.8-2.7,2.933,2.933,0,0,0,.646-.717,6.2,6.2,0,0,0,.43-1.621,8.752,8.752,0,0,1,.466-1.277,37.611,37.611,0,0,0,1.349-3.816,21.924,21.924,0,0,0,.617-2.611c.115-.717.179-1.435.237-2.152a12.623,12.623,0,0,1,.66-3.264,26.3,26.3,0,0,0,1.514-7.834,4.1,4.1,0,0,0-.079-1.148,6.146,6.146,0,0,0-.631-1.313c-.43-.811-.717-1.7-1.09-2.525a12.417,12.417,0,0,0-4.24-4.455C509.987,590.7,509.011,590.094,508.071,590.432Z" transform="translate(-178.447 -283.62)" fill="#2f2e41"/>
    <path id="Path_339" data-name="Path 339" d="M476.865,616.929a7.48,7.48,0,0,1-1.973-1.5c-.258-.3-.473-.638-.717-.94a4.886,4.886,0,0,0-2.482-1.435,12.126,12.126,0,0,0-2.869-.28,5.206,5.206,0,0,0-1.915.229,1.951,1.951,0,0,0-1.27,1.363,2.26,2.26,0,0,0,.968,2.009,4.564,4.564,0,0,0,1.93.933,15.444,15.444,0,0,0,1.743.208c3.429.359,6.492,2.224,9.5,3.924q3.96,2.252,8.077,4.189a16.783,16.783,0,0,0,.136-2.475c0-.617-.05-1.564-.631-1.93a12.668,12.668,0,0,0-2.568-.768,40.419,40.419,0,0,1-5.172-2.095A25.741,25.741,0,0,1,476.865,616.929Z" transform="translate(-168.912 -289.96)" fill="#fbbebe"/>
    <ellipse id="Ellipse_56" data-name="Ellipse 56" cx="6.112" cy="6.148" rx="6.112" ry="6.148" transform="translate(316.841 295.291)" fill="#fbbebe"/>
    <path id="Path_340" data-name="Path 340" d="M507.992,599.873a9.8,9.8,0,0,0-1.184,2.217c-.717,1.549-1.937,2.869-2.532,4.512s-.6,3.752-1.829,5.093a1.786,1.786,0,0,0-.538.775,3.7,3.7,0,0,1-.057.56c-.179.488-.976.509-1.126,1.011-.043.143,0,.3-.072.445-.122.323-.552.373-.832.567-.6.4-.473,1.334-.9,1.915a1.614,1.614,0,0,1-1.528.538,5.381,5.381,0,0,1-1.585-.6,1.53,1.53,0,0,0-.574-.179,1.184,1.184,0,0,0-.66.23,4.067,4.067,0,0,0-1.65,3.479,11.363,11.363,0,0,0,.947,3.9,1.563,1.563,0,0,0,.308.581,1.37,1.37,0,0,0,1.521.115,7.171,7.171,0,0,1,1.485-.667c.947-.172,1.872.481,2.834.423a3.938,3.938,0,0,0,1.908-.839A10.547,10.547,0,0,0,504.5,621.8c.416-.552.717-1.176,1.09-1.765a22.637,22.637,0,0,1,1.542-2.059l3.529-4.3a9.912,9.912,0,0,0,.947-1.306,9.2,9.2,0,0,0,.717-1.973,15.109,15.109,0,0,0,.717-3.508,13.482,13.482,0,0,0-.258-2.941,10.4,10.4,0,0,0-.717-2.8C511.3,599.514,509.434,598.194,507.992,599.873Z" transform="translate(-176.625 -286.096)" fill="#2f2e41"/>
    <path id="Path_341" data-name="Path 341" d="M518.926,581.141a6.886,6.886,0,0,0-2.826-5.6,8.185,8.185,0,0,0-6.951-7.97A7.941,7.941,0,0,0,493.5,568c-2.539-.574-4.864.172-5.287,1.736s1.37,3.587,4.046,4.3a7.54,7.54,0,0,0,2.6.258,7.948,7.948,0,0,0,5.466,3.407,8.156,8.156,0,0,0,5.968,6.155,6.85,6.85,0,0,0,1.844,2.547v.6a5.172,5.172,0,0,0,10.344,0,5.523,5.523,0,0,0-.495-2.288A6.914,6.914,0,0,0,518.926,581.141Z" transform="translate(-175.277 -275.384)" fill="#f86d70"/>
    <path id="Path_342" data-name="Path 342" d="M489.935,570.064c.423-1.564,2.747-2.31,5.287-1.736a8.077,8.077,0,0,1,7.891-6.8h.524a7.775,7.775,0,0,0-2.253-.337,8.078,8.078,0,0,0-7.891,6.8c-2.539-.574-4.864.172-5.287,1.736s1.37,3.587,4.046,4.3a7.885,7.885,0,0,0,1.535.266C491.226,573.529,489.511,571.663,489.935,570.064Z" transform="translate(-175.274 -275.383)" opacity="0.1"/>
    <path id="Path_343" data-name="Path 343" d="M512.533,592.57a5.418,5.418,0,0,1,0-.588,6.7,6.7,0,0,1-1.844-2.547,8.135,8.135,0,0,1-5.968-6.162,7.927,7.927,0,0,1-5.473-3.4,6.887,6.887,0,0,1-1.528-.043,7.97,7.97,0,0,0,5.273,3.135,8.156,8.156,0,0,0,5.968,6.155,6.851,6.851,0,0,0,1.844,2.547v.6a5.265,5.265,0,0,0,5.143,5.352A5.352,5.352,0,0,1,512.533,592.57Z" transform="translate(-177.981 -280.651)" opacity="0.1"/>
    <ellipse id="Ellipse_57" data-name="Ellipse 57" cx="0.94" cy="1.255" rx="0.94" ry="1.255" transform="translate(323.49 302.264) rotate(-37.22)" fill="#fbbebe"/>
  </g>
</svg>
