<svg id="Group_7" data-name="Group 7" xmlns="http://www.w3.org/2000/svg" width="681.868" height="545" viewBox="0 0 681.868 545">
  <rect id="Rectangle_150" data-name="Rectangle 150" width="61.834" height="18.694" rx="7.43" transform="translate(139.392 93.47)" fill="#6c63ff" opacity="0.1"/>
  <rect id="Rectangle_151" data-name="Rectangle 151" width="61.834" height="18.694" rx="7.43" transform="translate(204.102 112.164)" fill="#6c63ff" opacity="0.1"/>
  <rect id="Rectangle_152" data-name="Rectangle 152" width="61.834" height="18.694" rx="7.43" transform="translate(268.812 130.858)" fill="#6c63ff" opacity="0.1"/>
  <rect id="Rectangle_153" data-name="Rectangle 153" width="61.834" height="18.694" rx="7.43" transform="translate(139.392 65.429)" fill="#6c63ff" opacity="0.1"/>
  <rect id="Rectangle_154" data-name="Rectangle 154" width="61.834" height="18.694" rx="7.43" transform="translate(204.102 84.123)" fill="#6c63ff" opacity="0.1"/>
  <rect id="Rectangle_155" data-name="Rectangle 155" width="61.834" height="18.694" rx="7.43" transform="translate(268.812 102.817)" fill="#6c63ff" opacity="0.1"/>
  <rect id="Rectangle_156" data-name="Rectangle 156" width="61.834" height="18.694" rx="7.43" transform="translate(340.711 93.47)" fill="#6c63ff" opacity="0.1"/>
  <rect id="Rectangle_157" data-name="Rectangle 157" width="61.834" height="18.694" rx="7.43" transform="translate(405.421 112.164)" fill="#6c63ff" opacity="0.1"/>
  <rect id="Rectangle_158" data-name="Rectangle 158" width="61.834" height="18.694" rx="7.43" transform="translate(470.131 130.858)" fill="#6c63ff" opacity="0.1"/>
  <rect id="Rectangle_159" data-name="Rectangle 159" width="61.834" height="18.694" rx="7.43" transform="translate(340.711 65.429)" fill="#6c63ff" opacity="0.1"/>
  <rect id="Rectangle_160" data-name="Rectangle 160" width="61.834" height="18.694" rx="7.43" transform="translate(405.421 84.123)" fill="#6c63ff" opacity="0.1"/>
  <rect id="Rectangle_161" data-name="Rectangle 161" width="61.834" height="18.694" rx="7.43" transform="translate(470.131 102.817)" fill="#6c63ff" opacity="0.1"/>
  <rect id="Rectangle_162" data-name="Rectangle 162" width="61.834" height="18.694" rx="7.43" transform="translate(139.392 28.041)" fill="#6c63ff" opacity="0.1"/>
  <rect id="Rectangle_163" data-name="Rectangle 163" width="61.834" height="18.694" rx="7.43" transform="translate(204.102 46.735)" fill="#6c63ff" opacity="0.1"/>
  <rect id="Rectangle_164" data-name="Rectangle 164" width="61.834" height="18.694" rx="7.43" transform="translate(268.812 65.429)" fill="#6c63ff" opacity="0.1"/>
  <rect id="Rectangle_165" data-name="Rectangle 165" width="61.834" height="18.694" rx="7.43" transform="translate(139.392)" fill="#6c63ff" opacity="0.1"/>
  <rect id="Rectangle_166" data-name="Rectangle 166" width="61.834" height="18.694" rx="7.43" transform="translate(204.102 18.694)" fill="#6c63ff" opacity="0.1"/>
  <rect id="Rectangle_167" data-name="Rectangle 167" width="61.834" height="18.694" rx="7.43" transform="translate(268.812 37.388)" fill="#6c63ff" opacity="0.1"/>
  <rect id="Rectangle_168" data-name="Rectangle 168" width="61.834" height="18.694" rx="7.43" transform="translate(340.711 28.041)" fill="#6c63ff" opacity="0.1"/>
  <rect id="Rectangle_169" data-name="Rectangle 169" width="61.834" height="18.694" rx="7.43" transform="translate(405.421 46.735)" fill="#6c63ff" opacity="0.1"/>
  <rect id="Rectangle_170" data-name="Rectangle 170" width="61.834" height="18.694" rx="7.43" transform="translate(470.131 65.429)" fill="#6c63ff" opacity="0.1"/>
  <rect id="Rectangle_171" data-name="Rectangle 171" width="61.834" height="18.694" rx="7.43" transform="translate(340.711)" fill="#6c63ff" opacity="0.1"/>
  <rect id="Rectangle_172" data-name="Rectangle 172" width="61.834" height="18.694" rx="7.43" transform="translate(405.421 18.694)" fill="#6c63ff" opacity="0.1"/>
  <rect id="Rectangle_173" data-name="Rectangle 173" width="61.834" height="18.694" rx="7.43" transform="translate(470.131 37.388)" fill="#6c63ff" opacity="0.1"/>
  <rect id="Rectangle_174" data-name="Rectangle 174" width="61.834" height="18.694" rx="7.43" transform="translate(139.392 426.365)" fill="#6c63ff" opacity="0.1"/>
  <rect id="Rectangle_175" data-name="Rectangle 175" width="61.834" height="18.694" rx="7.43" transform="translate(204.102 445.059)" fill="#6c63ff" opacity="0.1"/>
  <rect id="Rectangle_176" data-name="Rectangle 176" width="61.834" height="18.694" rx="7.43" transform="translate(268.812 463.753)" fill="#6c63ff" opacity="0.1"/>
  <rect id="Rectangle_177" data-name="Rectangle 177" width="61.834" height="18.694" rx="7.43" transform="translate(139.392 398.325)" fill="#6c63ff" opacity="0.1"/>
  <rect id="Rectangle_178" data-name="Rectangle 178" width="61.834" height="18.694" rx="7.43" transform="translate(204.102 417.018)" fill="#6c63ff" opacity="0.1"/>
  <rect id="Rectangle_179" data-name="Rectangle 179" width="61.834" height="18.694" rx="7.43" transform="translate(268.812 435.712)" fill="#6c63ff" opacity="0.1"/>
  <rect id="Rectangle_180" data-name="Rectangle 180" width="61.834" height="18.694" rx="7.43" transform="translate(340.711 426.365)" fill="#6c63ff" opacity="0.1"/>
  <rect id="Rectangle_181" data-name="Rectangle 181" width="61.834" height="18.694" rx="7.43" transform="translate(405.421 445.059)" fill="#6c63ff" opacity="0.1"/>
  <rect id="Rectangle_182" data-name="Rectangle 182" width="61.834" height="18.694" rx="7.43" transform="translate(470.131 463.753)" fill="#6c63ff" opacity="0.1"/>
  <rect id="Rectangle_183" data-name="Rectangle 183" width="61.834" height="18.694" rx="7.43" transform="translate(340.711 398.325)" fill="#6c63ff" opacity="0.1"/>
  <rect id="Rectangle_184" data-name="Rectangle 184" width="61.834" height="18.694" rx="7.43" transform="translate(405.421 417.018)" fill="#6c63ff" opacity="0.1"/>
  <rect id="Rectangle_185" data-name="Rectangle 185" width="61.834" height="18.694" rx="7.43" transform="translate(470.131 435.712)" fill="#6c63ff" opacity="0.1"/>
  <rect id="Rectangle_186" data-name="Rectangle 186" width="61.834" height="18.694" rx="7.43" transform="translate(139.392 360.937)" fill="#6c63ff" opacity="0.1"/>
  <rect id="Rectangle_187" data-name="Rectangle 187" width="61.834" height="18.694" rx="7.43" transform="translate(204.102 379.631)" fill="#6c63ff" opacity="0.1"/>
  <rect id="Rectangle_188" data-name="Rectangle 188" width="61.834" height="18.694" rx="7.43" transform="translate(268.812 398.325)" fill="#6c63ff" opacity="0.1"/>
  <rect id="Rectangle_189" data-name="Rectangle 189" width="61.834" height="18.694" rx="7.43" transform="translate(139.392 332.896)" fill="#6c63ff" opacity="0.1"/>
  <rect id="Rectangle_190" data-name="Rectangle 190" width="61.834" height="18.694" rx="7.43" transform="translate(204.102 351.59)" fill="#6c63ff" opacity="0.1"/>
  <rect id="Rectangle_191" data-name="Rectangle 191" width="61.834" height="18.694" rx="7.43" transform="translate(268.812 370.284)" fill="#6c63ff" opacity="0.1"/>
  <rect id="Rectangle_192" data-name="Rectangle 192" width="61.834" height="18.694" rx="7.43" transform="translate(340.711 360.937)" fill="#6c63ff" opacity="0.1"/>
  <rect id="Rectangle_193" data-name="Rectangle 193" width="61.834" height="18.694" rx="7.43" transform="translate(405.421 379.631)" fill="#6c63ff" opacity="0.1"/>
  <rect id="Rectangle_194" data-name="Rectangle 194" width="61.834" height="18.694" rx="7.43" transform="translate(470.131 398.325)" fill="#6c63ff" opacity="0.1"/>
  <rect id="Rectangle_195" data-name="Rectangle 195" width="61.834" height="18.694" rx="7.43" transform="translate(340.711 332.896)" fill="#6c63ff" opacity="0.1"/>
  <rect id="Rectangle_196" data-name="Rectangle 196" width="61.834" height="18.694" rx="7.43" transform="translate(405.421 351.59)" fill="#6c63ff" opacity="0.1"/>
  <rect id="Rectangle_197" data-name="Rectangle 197" width="61.834" height="18.694" rx="7.43" transform="translate(470.131 370.284)" fill="#6c63ff" opacity="0.1"/>
  <ellipse id="Ellipse_2" data-name="Ellipse 2" cx="315.28" cy="25.884" rx="315.28" ry="25.884" transform="translate(31.542 493.232)" fill="#6c63ff" opacity="0.1"/>
  <path id="Path_21" data-name="Path 21" d="M186.683,254.514C216.414,267.4,233.5,294.059,233.5,294.059s-31.125,5.752-60.863-7.125-46.814-39.545-46.814-39.545S156.945,241.629,186.683,254.514Z" transform="translate(-125.82 -120.205)" fill="#ffc400"/>
  <path id="Path_22" data-name="Path 22" d="M334.06,180.289c9.2-15.1,24.856-22.289,24.856-22.289s.719,17.213-8.448,32.269S325.6,212.507,325.6,212.507,324.857,195.3,334.06,180.289Z" transform="translate(-181.956 -95.447)" fill="#ffc400"/>
  <path id="Path_23" data-name="Path 23" d="M242.289,193.446C248.868,216.929,267,232.387,267,232.387s7.47-22.627.892-46.116-24.719-38.941-24.719-38.941S235.7,169.957,242.289,193.446Z" transform="translate(-157.785 -92.449)" fill="#46455b"/>
  <rect id="Rectangle_198" data-name="Rectangle 198" width="524.149" height="262.434" rx="7.21" transform="translate(85.467 99.941)" fill="#3f3d56"/>
  <path id="Path_24" data-name="Path 24" d="M118.87,482H643.019v10.634a5.184,5.184,0,0,1-5.184,5.184H124.054a5.184,5.184,0,0,1-5.184-5.184Z" transform="translate(-33.403 -135.443)" opacity="0.1"/>
  <rect id="Rectangle_199" data-name="Rectangle 199" width="38.826" height="19.413" rx="2.5" transform="translate(136.516 327.144)" fill="#ffc400"/>
  <rect id="Rectangle_200" data-name="Rectangle 200" width="26.603" height="2.876" rx="1.438" transform="translate(186.127 343.681)" fill="#ffc400"/>
  <path id="Path_25" data-name="Path 25" d="M335.182,276.556c18.974,3.5,38.33,0,57.225-2.373l57.426-7.19c2.322-.295,5.7-1.682,7.068,1.158.769,1.589.252,5.033.309,6.859.151,5.033.137,10.066,0,15.1-.259,9.62-.964,19.219-1.862,28.8-1.747,18.744-4.22,37.388-5.457,56.2-.633,9.577-.949,19.183-.669,28.76.065,2.286.158,4.573.295,6.852.151,2.552,1.294,6.342-1.488,8.046-1.589.978-4.717.928-6.536,1.215-2.876.453-5.752.812-8.685,1.107-19.334,1.934-38.919,1.129-58.325,1.014l-58.6-.3-14.294-.079c-1.294,0-5.961.777-6.759-.762-.338-.654.561-3.717.719-4.537q.331-2.028.719-4.048c1.668-9.455,3.638-18.852,5.623-28.242,4.264-20.132,8.628-40.365,10.382-60.928.87-10.318.295-20.729,1.359-31.025.5-4.781,1.086-15.451,7.449-15.875,5.392-.359,10.943,0,16.35,0a1.078,1.078,0,0,0,0-2.157c-5.1,0-10.217-.137-15.322-.036-3.394.065-5.752.87-7.37,3.99-4.134,8.01-3.71,18.694-3.839,27.437-.309,20.93-3.523,41.414-7.708,61.884-2.107,10.3-4.379,20.571-6.471,30.881-.985,4.925-1.927,9.865-2.79,14.819-.4,2.358-2.437,7.557-.647,9.721s7.3,1,9.764,1.014l17.155.1,32.873.187c21.239.122,42.55.719,63.782.093,10.138-.3,20.851-.719,30.723-3.142,2.941-.719,4.357-2.071,4.472-5.206.173-4.86-.618-9.872-.719-14.754-.719-41.774,9.1-82.965,8.089-124.753-.065-2.84,1.007-10-2.1-11.72-1.395-.777-3.207-.352-4.673-.18-2.8.324-5.6.719-8.405,1.05l-36.417,4.544c-11.641,1.438-23.274,2.991-34.936,4.314-12.345,1.438-24.813,2.294-37.115,0-1.359-.252-1.941,1.826-.575,2.078Z" transform="translate(-172.674 -125.293)" fill="#ffc400"/>
  <path id="Path_26" data-name="Path 26" d="M319.594,313.133l143.67-7.046c1.388-.072,1.395-2.229,0-2.157l-143.67,7.046C318.214,311.04,318.207,313.2,319.594,313.133Z" transform="translate(-179.979 -136.453)" fill="#ffc400"/>
  <path id="Path_27" data-name="Path 27" d="M381.177,289.284a3.595,3.595,0,0,0,1.273,5.8c1.934.884,4.206.144,6.126-.338,2.876-.719,5.752-1.359,8.707-1.884a118.739,118.739,0,0,1,19.478-1.812c2.977-.036,5.932.1,8.908.23,2.157.086,4.479.259,6.306-1.078,2.085-1.524,2.761-4.5.719-6.356-2.876-2.624-9.074-1.1-12.4-.827a277.973,277.973,0,0,0-35.849,5.349c-1.352.288-.784,2.373.575,2.078q11.7-2.524,23.576-4.055,5.838-.719,11.7-1.215c1.841-.151,3.681-.288,5.522-.4.719-.043,1.481-.122,2.215-.1,2.279.05,2.545-.359,1.179,2.394-1.215,2.437-.827,2.157-2.934,2.078-.892,0-1.783-.1-2.675-.144q-2.739-.115-5.479-.122-5.831,0-11.633.561c-3.279.316-6.55.762-9.793,1.337-2.028.359-4.041.776-6.047,1.237-.884.209-1.776.424-2.66.647-.424.115-.856.216-1.28.324q-2.358.82-4.019-2.157c.963-1-.554-2.531-1.524-1.524Z" transform="translate(-197.3 -130.385)" fill="#ffc400"/>
  <path id="Path_28" data-name="Path 28" d="M404.384,334.031c-10.4-.4-21.642,2.409-28.494,10.785-5.364,6.55-8.419,17.788-2.739,25.165,6.1,7.909,19.492,6.514,27.566,3.142,8.542-3.6,17.889-11.008,20.455-20.283,3.2-11.583-7.19-20.34-18.011-20.47a1.079,1.079,0,0,0,0,2.157c6.169.072,12.223,2.718,15.1,8.463,3.013,6.054.417,12.41-3.595,17.256-6.428,7.715-16.479,13.532-26.718,13.366-6.147-.093-12.942-2.2-14.847-8.685-1.567-5.256-.374-11,2.358-15.66,5.91-10.066,17.939-13.474,28.968-13.043,1.388.05,1.388-2.107,0-2.157Z" transform="translate(-194.465 -144.446)" fill="#ffc400"/>
  <path id="Path_29" data-name="Path 29" d="M401.933,354.085a2.8,2.8,0,0,0-3.768,2.876c.216,2.8,3.307,3.6,5.63,3.43,2.006-.173,4.35-.913,3.645-3.422a3.221,3.221,0,0,0-1.754-2.028,4.063,4.063,0,0,0-2.028-.252c-.266,0-2.7.892-1.668-.18l-1.7-.223a1.769,1.769,0,0,1,.518,1.438,1.086,1.086,0,0,0,1.618.927,1.438,1.438,0,0,1,1.948,1.682,1.086,1.086,0,0,0,1.97.834c.719-1.294,1.589-3.868.51-5.22-.719-.913-2.107-.64-2.969-.108a10.406,10.406,0,0,0-1.481,1.273c-.87.769-1.438,1.129-1.114-.345.539-2.682,3.1-4.817,5.436-5.889l-1.582-1.215a22.735,22.735,0,0,1-4.35,8.52l1.841.762a4.8,4.8,0,0,1,2.933-4.681h-1.057l.561.92c-.209,1.359,1.869,1.941,2.078.568.273-1.776-.848-4.084-2.926-3.214-2.481,1.035-3.768,3.875-3.717,6.406,0,.863,1.222,1.531,1.848.769a25.352,25.352,0,0,0,4.9-9.484,1.093,1.093,0,0,0-1.589-1.215,12.057,12.057,0,0,0-5.234,4.558c-.877,1.438-1.977,3.681-1.086,5.335a2.286,2.286,0,0,0,3.128.884,8.412,8.412,0,0,0,1.8-1.438c.266-.237.561-.647.913-.719.316-.216.3-.093-.05.381a3.919,3.919,0,0,1-.626,2.1l1.97.827a3.595,3.595,0,0,0-5.112-4.12l1.625.935a3.919,3.919,0,0,0-.812-2.538A1.093,1.093,0,0,0,400.5,353a2.821,2.821,0,0,0,.072,4.177c1.028.784,1.531,0,2.66-.18,3.832-.5,1.6,1.229.244,1.287a5.1,5.1,0,0,1-1.8-.129q-2.25-.762-.28-1.963c1.287.525,1.841-1.56.575-2.078Z" transform="translate(-202.347 -148.523)" fill="#ffc400"/>
  <path id="Path_30" data-name="Path 30" d="M396.809,361.861c.884,2.876-2.768,3.825-4.5,4.817a10.023,10.023,0,0,0-3.113,2.725c-1.812,2.43-2.488,5.522-3.085,8.434-.273,1.359,1.8,1.934,2.085.575a24.446,24.446,0,0,1,1.819-6.2c1.294-2.574,3.149-3.437,5.565-4.76s4.163-3.372,3.307-6.162C398.484,359.963,396.4,360.531,396.809,361.861Z" transform="translate(-198.955 -152.36)" fill="#ffc400"/>
  <path id="Path_31" data-name="Path 31" d="M401.506,360.37a2.085,2.085,0,0,0-1.8,2.157c0,.856.568,1.4.956,2.085a16.465,16.465,0,0,1,2.085,4.537c.345,1.546.683,4.314-.122,5.752-1.488,2.667-4.177,2.157-6.471,2.157-2.157,0-3.825.719-3.753-2.286.043-1.69,1.222-3.4,2.157-4.731l-1.97-.259a37.582,37.582,0,0,1,.654,6.658c0,1,1.531,1.553,2.006.539a41.656,41.656,0,0,0,2.739-7.578l-2.121-.288.374,5.464a1.086,1.086,0,0,0,2.006.546,2.445,2.445,0,0,0,.539-.971c.072-.338-.59-2.617-.856-1.8l2.114.288.151-5.191-2.157.288a10.742,10.742,0,0,1,.4,4.53c-.137,1.2,1.884,1.474,2.157.288l1.352-6.974-1.97.252a4.767,4.767,0,0,1,.367,3.106c-.158,1.381,2,1.366,2.157,0a7.578,7.578,0,0,0-.661-4.192,1.086,1.086,0,0,0-1.97.259l-1.359,6.974,2.121.288a11.762,11.762,0,0,0-.482-5.1,1.078,1.078,0,0,0-2.114.28l-.151,5.191a1.084,1.084,0,0,0,2.121.288l.115-.352a1.093,1.093,0,0,0-.273-1.05c-2.236-2.43-2.689,1.438-3.466,2.509l2.013.546-.374-5.464a1.085,1.085,0,0,0-2.121-.288,38.656,38.656,0,0,1-2.517,7.068l2.013.546a40.651,40.651,0,0,0-.719-7.233c-.187-.992-1.488-.949-1.97-.259-1.438,2.071-3.926,6.593-2.006,9.074,1.675,2.157,6.946,1.323,9.2,1.186,3.552-.2,4.839-2.452,5.227-5.8a14.207,14.207,0,0,0-.266-4.8c-.194-.848-2.157-6.227-2.747-6.119,1.366-.252.784-2.337-.575-2.085Z" transform="translate(-200.057 -152.314)" fill="#ffc400"/>
  <path id="Path_32" data-name="Path 32" d="M397.714,365.949l-5.889,7.772,1.862,1.086L398,368.566l-1.97-.834-2.15,8.2a1.086,1.086,0,0,0,1.97.834,37.9,37.9,0,0,1,3.286-4.623l-1.8-1.05a11.741,11.741,0,0,1-2.711,4.983l1.8,1.05a9.633,9.633,0,0,1,.784-2.876c.554-1.244-1.2-2.344-1.862-1.093a25.322,25.322,0,0,1-2.078,3.264l1.97.259.439-2.049-1.97-.259.316,1.8a1.086,1.086,0,0,0,1.8.475,21.47,21.47,0,0,0,4.314-6.507H398.3a9.684,9.684,0,0,1,1.014,2.876c.259,1.294,1.977.813,2.114-.288a58.446,58.446,0,0,0,.475-7.262h-2.157v4.522c0,1.172,1.92,1.517,2.121.288a8.241,8.241,0,0,1,1.057-3.092h-1.891a4.8,4.8,0,0,1,.719,2.445,1.078,1.078,0,0,0,2.157,0l.273-1.438H402.1c.208,1.273,1,8.441-1.812,7.6-.475-.115-.611-.086-.41.079l.64-1.366,1.5-3.185-2.013-.546c.129,1.481.266,3.595-.625,4.86a3.725,3.725,0,0,1-4.062.834,7.19,7.19,0,0,1-1.877-1.97l-1.474,1.438c1.194.87,3.128,3.005,4.666,3.128,1.172.093,2.157-.877,2.926-1.654a12.532,12.532,0,0,0,3.516-9.225,1.078,1.078,0,0,0-2.157,0v2.459a1.078,1.078,0,1,0,2.157,0v-6.032a1.078,1.078,0,0,0-2.157,0,25.893,25.893,0,0,1-.374,4.314l2.121.288a49.645,49.645,0,0,1-.237-5.17,1.078,1.078,0,0,0-2.114-.288c-.324,1.373-.719,2.725-1.1,4.069l1.97-.259-.151-.575c-.1-1.373-2.258-1.38-2.157,0a3.948,3.948,0,0,0,.446,1.668,1.09,1.09,0,0,0,1.97-.259c.41-1.352.776-2.7,1.1-4.07l-2.121-.288a49.663,49.663,0,0,0,.237,5.17c.108,1.107,1.891,1.582,2.114.288a29.714,29.714,0,0,0,.453-4.918H400.92v6.032h2.157v-2.459H400.92a10.368,10.368,0,0,1-2.624,7.391,8.832,8.832,0,0,1-.906.892c-.51.489-.978.417-1.388-.223a17.965,17.965,0,0,1-2.969-2.157c-.892-.64-2.114.626-1.481,1.474,1.654,2.2,4.12,4.652,7.19,3.595,3.228-1.143,3.667-5.515,3.422-8.391-.079-.956-1.51-1.6-2.006-.539-.719,1.517-1.438,3.027-2.157,4.551a4.021,4.021,0,0,0-.647,1.9c.237,1.618,2.2,1.352,3.408,1.258,4.681-.352,3.94-6.989,3.4-10.325-.18-1.107-1.79-.935-2.078,0a6.348,6.348,0,0,0-.352,2.042h2.157a8.548,8.548,0,0,0-1.014-3.53,1.086,1.086,0,0,0-1.862,0,10.484,10.484,0,0,0-1.28,3.6l2.157.288v-4.522a1.078,1.078,0,0,0-2.157,0,58.457,58.457,0,0,1-.475,7.262l2.121-.288a12.345,12.345,0,0,0-1.229-3.365,1.086,1.086,0,0,0-1.862,0,19.671,19.671,0,0,1-3.976,6.068l1.8.475-.316-1.8c-.165-.956-1.517-.985-1.97-.259a4.731,4.731,0,0,0-.654,3.71c.18,1.021,1.474.913,1.97.259a25.238,25.238,0,0,0,2.078-3.257l-1.862-1.093a12.267,12.267,0,0,0-1.007,3.386c-.129.949,1,1.941,1.8,1.05a14.38,14.38,0,0,0,3.264-5.939c.266-.978-1.086-1.905-1.8-1.05a41.188,41.188,0,0,0-3.595,5.033l1.97.834,2.193-8.175a1.086,1.086,0,0,0-1.97-.834l-4.314,6.248c-.805,1.158,1.043,2.157,1.862,1.086l5.867-7.765c.834-1.107-1.035-2.157-1.862-1.093Z" transform="translate(-200.442 -153.047)" fill="#ffc400"/>
  <path id="Path_33" data-name="Path 33" d="M527.134,373.544c8.628-5.277,15.487-13.15,23.109-19.736,8.268-7.14,16.947-13.79,25.884-20.089,17.357-12.223,35.583-23.159,53.8-34.066a1.079,1.079,0,0,0-1.086-1.862c-18.212,10.907-36.446,21.822-53.8,34.066-8.189,5.752-16.185,11.849-23.849,18.32-8.34,7.046-15.768,15.818-25.165,21.505-1.186.719-.1,2.588,1.086,1.862Z" transform="translate(-238.133 -134.693)" fill="#ffc400"/>
  <path id="Path_34" data-name="Path 34" d="M698.175,253.848c-9.347.949-19.413,3.329-25.165,11.5-4.968,7.032-4.86,19.3-.194,26.517,5.3,8.2,16.127,8.5,24.539,5.845s17.119-7.305,17.04-17.357c-.043-5.392-1.992-11.008-4.141-15.9-1.855-4.221-5.141-7.909-10.116-7.442-1.373.129-1.388,2.286,0,2.157,6.665-.618,8.808,7.3,10.39,12.295,1.438,4.666,2.768,10.188.51,14.826s-7.7,7-12.352,8.7c-5.033,1.826-10.562,2.941-15.818,1.438-10.411-2.912-13.287-16.106-10.289-25.467,3.451-10.785,15.674-13.956,25.632-14.962,1.366-.137,1.38-2.294,0-2.157Z" transform="translate(-278.539 -122.379)" fill="#ffc400"/>
  <path id="Path_35" data-name="Path 35" d="M718.175,369.848c-9.347.949-19.413,3.329-25.165,11.5-4.968,7.032-4.86,19.3-.194,26.517,5.3,8.2,16.127,8.5,24.539,5.845s17.119-7.3,17.04-17.357c-.043-5.392-1.992-11.008-4.141-15.9-1.855-4.22-5.141-7.909-10.116-7.442-1.373.129-1.388,2.286,0,2.157,6.665-.618,8.808,7.3,10.39,12.295,1.438,4.666,2.768,10.188.51,14.826s-7.7,7-12.352,8.7c-5.033,1.826-10.562,2.941-15.818,1.438-10.411-2.912-13.287-16.106-10.289-25.467,3.451-10.785,15.674-13.956,25.632-14.962,1.366-.137,1.38-2.294,0-2.157Z" transform="translate(-284.159 -154.975)" fill="#ffc400"/>
  <path id="Path_36" data-name="Path 36" d="M689.748,268.687l6.809,7.765a1.086,1.086,0,0,0,1.8-.482c1.438-3.782,1.165-7.7,1.5-11.676a38.445,38.445,0,0,1,3.056-11.914A40.213,40.213,0,0,1,719,233.938c1.186-.719.1-2.588-1.086-1.862a42.22,42.22,0,0,0-16.271,17.874,41.32,41.32,0,0,0-3.6,11.41c-.719,4.666-.065,9.555-1.79,14.035l1.8-.482-6.773-7.751c-.92-1.043-2.437.489-1.524,1.524Z" transform="translate(-284.212 -116.216)" fill="#ffc400"/>
  <path id="Path_37" data-name="Path 37" d="M532.192,413.624q55.629-1.7,111.286-.719a1.079,1.079,0,0,0,0-2.157q-55.643-.992-111.286.719C530.8,411.51,530.8,413.667,532.192,413.624Z" transform="translate(-239.718 -166.368)" fill="#ffc400"/>
  <path id="Path_38" data-name="Path 38" d="M697.891,384.467a222.832,222.832,0,0,1,36.432,18.306c1.179.719,2.265-1.129,1.086-1.862A225.208,225.208,0,0,0,698.5,382.389c-1.287-.51-1.848,1.575-.568,2.078Z" transform="translate(-286.38 -158.479)" fill="#ffc400"/>
  <path id="Path_39" data-name="Path 39" d="M721.915,371.581a88.077,88.077,0,0,0-21.146,53.587c-.058,1.388,2.1,1.388,2.157,0a85.661,85.661,0,0,1,20.513-52.063c.9-1.05-.618-2.581-1.524-1.524Z" transform="translate(-287.382 -155.364)" fill="#ffc400"/>
  <path id="Path_40" data-name="Path 40" d="M329.812,402.647l80.362-1.05,9.239-.122c1.661,0,3.322-.058,4.983-.065a3.963,3.963,0,0,1,3.868,4.314c-.108,5.033-3.271,4.853-7.413,5.033l-9.987.453L370.2,413c-7.283.324-14.574.719-21.858.971-6.572.2-19.068-1.941-16.149-11.5.4-1.33-1.675-1.9-2.085-.575-1.438,4.7,1.107,9.476,5.206,11.943,5.817,3.494,13.481,2.308,19.9,2.02l49.927-2.265,12.122-.539c3.106-.144,7.427.489,10.282-.956,3.351-1.69,3.94-8.4,1.826-11.224-1.086-1.438-2.61-1.567-4.314-1.632-4.472-.173-9.023.122-13.5.18l-24.892.331-56.88.719a1.079,1.079,0,0,0,0,2.157Z" transform="translate(-182.842 -163.221)" fill="#ffc400"/>
  <g id="Michel" transform="translate(461.555 161.502)">
    <path id="Path_41" data-name="Path 41" d="M777.862,765.548c-1.812,1.136-3.883,1.776-5.752,2.775s-3.688,2.5-4.221,4.573a2.876,2.876,0,0,0,.093,1.956,3.8,3.8,0,0,0,2.013,1.6,30.55,30.55,0,0,0,24.165.273,31.838,31.838,0,0,1,4.17-1.654,27.1,27.1,0,0,1,5.342-.547,41.064,41.064,0,0,0,5.615-.719,4.94,4.94,0,0,0,2.545-1.057A4.724,4.724,0,0,0,812.978,770a22.612,22.612,0,0,0-3.6-16.019,5.414,5.414,0,0,0-1.567-1.661,6.047,6.047,0,0,0-2.495-.669c-3.595-.439-7.362-1.244-10.993-1.33-2.6-.058-3.911,1.179-5.752,2.969C784.772,757.092,782.55,762.621,777.862,765.548Z" transform="translate(-767.762 -423.392)" fill="#323444"/>
    <path id="Path_42" data-name="Path 42" d="M855.334,764.881c0,3.523.424,7.255,2.56,10.066A13.3,13.3,0,0,0,861.388,778c4.515,2.876,10.5,3.933,15.257,1.5a4.53,4.53,0,0,0,1.9-1.6c.719-1.251.338-2.811-.065-4.192l-6.888-23.871c-4.451.683-10.993,1.165-14.948,3.422C853.774,754.895,855.334,761.732,855.334,764.881Z" transform="translate(-792.251 -423.258)" fill="#323444"/>
    <path id="Path_43" data-name="Path 43" d="M774.814,563.794c-.417,1.316-1.927,1.927-2.754,3.034-.971,1.3-.87,3.106-.518,4.688a12.4,12.4,0,0,0,3.156,6.219,7.456,7.456,0,0,0,6.471,2.2,5.392,5.392,0,0,0,4.393-4.839,9.161,9.161,0,0,0-.676-3.113l-4.9-14.179a.536.536,0,0,0-.884-.388c-1.158.547-3.48,1.122-4.156,2.322S775.3,562.493,774.814,563.794Z" transform="translate(-768.754 -369.155)" fill="#fbb3b2"/>
    <path id="Path_44" data-name="Path 44" d="M773,560.75c1.79-.28,3.358-1.33,5.033-2.02s3.775-.956,5.184.194c.4.331.791.784,1.316.777a51.472,51.472,0,0,0-3.221-10.239.8.8,0,0,0-.28-.4.813.813,0,0,0-.611,0l-4.839,1.265c-1.79.467-2,.324-1.862,2.085C773.755,553.2,774.158,560.75,773,560.75Z" transform="translate(-769.234 -366.823)" fill="#323444"/>
    <path id="Path_45" data-name="Path 45" d="M771.13,422.829a6.815,6.815,0,0,0-.719,3.789,128.822,128.822,0,0,0,1.007,19.061c.223,1.51.5,3.02.647,4.544a52.419,52.419,0,0,1,.1,6.378l-.719,27.681c-.086,3.386-.259,7.025-2.351,9.685a4.63,4.63,0,0,0-.841,3.07c.546,6.945,1.7,13.833,2.84,20.7a12.791,12.791,0,0,1,11.6.554,127.738,127.738,0,0,0,5.96-35.231c.165-5.889-.086-11.813.82-17.63,1.517-9.793.9-19.837-.216-29.687-.352-3.12-1.1-6.334-3.1-8.75a13.266,13.266,0,0,0-7.19-4.141C776.314,422.153,773.934,422.872,771.13,422.829Z" transform="translate(-767.896 -331.287)" fill="#5b5583"/>
    <path id="Path_46" data-name="Path 46" d="M771.13,422.829a6.815,6.815,0,0,0-.719,3.789,128.822,128.822,0,0,0,1.007,19.061c.223,1.51.5,3.02.647,4.544a52.419,52.419,0,0,1,.1,6.378l-.719,27.681c-.086,3.386-.259,7.025-2.351,9.685a4.63,4.63,0,0,0-.841,3.07c.546,6.945,1.7,13.833,2.84,20.7a12.791,12.791,0,0,1,11.6.554,127.738,127.738,0,0,0,5.96-35.231c.165-5.889-.086-11.813.82-17.63,1.517-9.793.9-19.837-.216-29.687-.352-3.12-1.1-6.334-3.1-8.75a13.266,13.266,0,0,0-7.19-4.141C776.314,422.153,773.934,422.872,771.13,422.829Z" transform="translate(-767.896 -331.287)" opacity="0.1"/>
    <path id="Path_47" data-name="Path 47" d="M783.561,530.805a126.98,126.98,0,0,0,7.564,73.51,19.942,19.942,0,0,1,1.754,5.436c.4,3.523-1.229,6.91-2.157,10.318-2.157,7.751-.913,16,.467,23.935q.863,4.961,1.776,9.915c.6,3.221,1.172,6.723-.323,9.642,1.287,5.364,2.049,10.677,3.336,16.041a3.049,3.049,0,0,1,.122,1.316,3.876,3.876,0,0,1-1.316,1.762,7.866,7.866,0,0,0-2.006,7.528c3.286-2.358,7.866-1.531,11.619,0s7.449,3.595,11.5,3.595c-.59-4.76-1.158-9.757.6-14.222,1.021-2.588,2.818-5.033,2.768-7.8-.05-2.481-1.567-4.7-1.934-7.147a18.087,18.087,0,0,1,.172-4.573c.964-8.8-.129-17.687-1.222-26.474a15.816,15.816,0,0,0-1.208-5.033c-.51-1.035-1.273-2.028-1.258-3.185,0-1.344,1.086-2.437,1.488-3.717.719-2.358-.6-5.565,1.388-7.025,5.249-3.854,3.235-13.057,3.12-19.564q-.137-8.42-.719-16.825a71.665,71.665,0,0,1,3.969,29c-.23,3.221-.654,6.608.6,9.584.964,2.286,2.876,4.17,3.394,6.593a27.592,27.592,0,0,1,.165,4.566,4.7,4.7,0,0,0,1.905,3.954c.1,6.931.719,14.344.827,21.275a52.487,52.487,0,0,0,.863,10.569,13.47,13.47,0,0,1,.532,3.408,14.238,14.238,0,0,1-1.136,4.192,24.036,24.036,0,0,0,3.6,22.181c1.7-3.013,5.234-4.609,8.685-4.86s6.859.618,10.2,1.5a19.98,19.98,0,0,1,2.387-12.151,9.945,9.945,0,0,0,1.258-2.7c.388-1.826-.518-3.645-1.007-5.45-.8-2.876-.518-5.975-.331-8.98a142.1,142.1,0,0,0-1.33-30.14,25.541,25.541,0,0,0-1.373-5.752c-.259-.661-.575-1.294-.791-1.963a15.481,15.481,0,0,1-.575-3.681l-.827-11.5c-.582-8.06,2.063-16.019,3.911-23.885.827-3.523,1.726-7.039,2.279-10.62.755-4.875.877-9.857,1.984-14.668.992-4.314,2.783-8.52,3.156-12.942.575-6.852-2.272-13.474-5.033-19.758-1.15-2.588-5.5-2.33-8.3-2.79-19.837-3.257-40.731-3.279-59.44,4.062a14.79,14.79,0,0,0-5.112,3.53Z" transform="translate(-771.541 -358.987)" fill="#3c354c"/>
    <path id="Path_48" data-name="Path 48" d="M803.226,354.782l2.2,8.556a22.863,22.863,0,0,1,.985,6.047,4.465,4.465,0,0,1-.482,2.157,5.141,5.141,0,0,1-1.366,1.395c-1.5,1.143-2.545,3.811-4.264,4.6.884,1.539,2.107.539,3.7,1.309,2.811,1.366,5.385,3.329,8.434,4,2.876.633,5.9.036,8.75-.719a30.216,30.216,0,0,0,11.331-5.27c3.257-2.653,5.112-5,5.1-9.189-3.595.424-6.795-3.207-8.383-6.471a17.578,17.578,0,0,1-1.208-3.875L826.1,348.85c-2.1.46-3.811,1.963-5.817,2.747a21.118,21.118,0,0,1-6.608.956,71.176,71.176,0,0,0-11.763,1.524c-.532.108-1.2.446-1.071.963" transform="translate(-776.905 -310.579)" fill="#fbb3b2"/>
    <path id="Path_49" data-name="Path 49" d="M803.226,354.782l2.2,8.556a22.863,22.863,0,0,1,.985,6.047,4.465,4.465,0,0,1-.482,2.157,5.141,5.141,0,0,1-1.366,1.395c-1.5,1.143-2.545,3.811-4.264,4.6.884,1.539,2.107.539,3.7,1.309,2.811,1.366,5.385,3.329,8.434,4,2.876.633,5.9.036,8.75-.719a30.216,30.216,0,0,0,11.331-5.27c3.257-2.653,5.112-5,5.1-9.189-3.595.424-6.795-3.207-8.383-6.471a17.578,17.578,0,0,1-1.208-3.875L826.1,348.85c-2.1.46-3.811,1.963-5.817,2.747a21.118,21.118,0,0,1-6.608.956,71.176,71.176,0,0,0-11.763,1.524c-.532.108-1.2.446-1.071.963" transform="translate(-776.905 -310.579)" opacity="0.1"/>
    <circle id="Ellipse_3" data-name="Ellipse 3" cx="19.039" cy="19.039" r="19.039" transform="translate(16.73 10.842)" fill="#fbb3b2"/>
    <path id="Path_50" data-name="Path 50" d="M816.159,375.547a17.257,17.257,0,0,1,4.314-5.752c2.682-2.351,6.349-4.257,6.981-7.765l5.81,6.766a3.127,3.127,0,0,1,.719,1.107,2.79,2.79,0,0,1-.546,2.236c-1.438,2.294-3.7,3.933-5.845,5.594a177.551,177.551,0,0,0-14.085,12.424,1.438,1.438,0,0,1-.755.46,1.359,1.359,0,0,1-.784-.223,32.707,32.707,0,0,1-10.044-8.168c-.208-.252-.467-.539-.805-.518a1.036,1.036,0,0,0-.539.28c-1.934,1.582-4.048,3.473-6.528,3.228,3.214-2.308,5.033-6.162,5.709-10.066a19.022,19.022,0,0,1,.82-3.933,4.106,4.106,0,0,1,2.8-2.66c-1.567,2.394-.5,5.788,1.611,7.722a15.876,15.876,0,0,0,7.132,3.458C814.57,380.2,815.289,377.431,816.159,375.547Z" transform="translate(-775.149 -314.282)" fill="#323444"/>
    <path id="Path_51" data-name="Path 51" d="M786.852,531.884c2.711.669,5.277,1.8,7.909,2.646a37.8,37.8,0,0,0,14.847,1.56,8.018,8.018,0,0,0,4.314-1.373c.338-.273.647-.6,1.007-.848a7.039,7.039,0,0,1,1.934-.8c6.593-2.064,12.115-6.514,17.472-10.871.173-.144.367-.324.352-.554a.72.72,0,0,0-.216-.41L831.653,518c-7.391,1.258-14.962.784-22.461.6a32.612,32.612,0,0,0-4.616.122c-1.481.173-2.941.547-4.4.863-5.543,1.208-11.209,1.668-16.825,2.459a2.6,2.6,0,0,0-1.114.345,2.51,2.51,0,0,0-.6.661l-1.97,2.768a8.708,8.708,0,0,0-1.654,3.171c-.46,2.157.5,2.876,2.337,2.6A17.069,17.069,0,0,1,786.852,531.884Z" transform="translate(-770.611 -358.11)" fill="#323444"/>
    <path id="Path_52" data-name="Path 52" d="M806.9,389.533a35.023,35.023,0,0,0-7.413-5.788,10.505,10.505,0,0,0-3.595-1.438,4.487,4.487,0,0,0-3.681.906c-.64.568-1.042,1.359-1.661,1.956a8.26,8.26,0,0,1-2.632,1.488,46.679,46.679,0,0,0-9.246,5.27,21.211,21.211,0,0,0-4.192,3.868c-3.257,4.17-3.746,9.843-3.66,15.135.065,3.681,3.6,6.413,6.025,9.167a67.547,67.547,0,0,1,6.169,8.628c1.309,2.071,2.675,4.314,2.509,6.78-.137,2.02-1.316,3.919-1.129,5.932.065.719.295,1.38.359,2.078.129,1.438-.439,2.876-.582,4.314-.194,2.035.467,4.055.5,6.1a19.411,19.411,0,0,1-.532,4.163c-1.38,6.572-3.113,13.179-2.761,19.887l-3.983.719a3.365,3.365,0,0,1-.769,5.371c6.219,2.078,12.942,1.028,19.535,1.021,5.457,0,10.893.719,16.343.618s11.073-1.086,15.566-4.17c1.222-.834,2.344-1.812,3.631-2.538a17.911,17.911,0,0,1,5.5-1.8,54.574,54.574,0,0,1,10.785-.964c1.769,0,3.7.072,5.1-.992,1.553-1.179,1.948-3.315,2.157-5.249.208-2.042.338-4.091.374-6.14a26.474,26.474,0,0,0-.252-4.774,31.258,31.258,0,0,0-.841-3.422l-2.711-9.548c-1.122-3.94.439-8.261.769-12.345a3.1,3.1,0,0,0-.647-2.7c-.266-.223-.633-.374-.719-.719a1.229,1.229,0,0,1,.173-.963,53.223,53.223,0,0,1,5.565-8.01,163.687,163.687,0,0,0,9.2-14.143A45.505,45.505,0,0,0,853.983,380a13.178,13.178,0,0,0-5.1-3.76,15.1,15.1,0,0,0-4.055-.654c-5.637-.381-11.5-.719-16.415-3.552a3.121,3.121,0,0,0-1.172-.5c-1.086-.122-1.877.949-2.581,1.8-1.812,2.157-4.479,3.394-6.823,4.983C813.467,381.286,810.052,385.37,806.9,389.533Z" transform="translate(-768.618 -316.951)" fill="#5b5583"/>
    <path id="Path_53" data-name="Path 53" d="M893.151,422.077c1.122,3.552,1.014,7.348,1.38,11.051a43,43,0,0,0,1.172,6.622,10.57,10.57,0,0,0,1.366,3.372,14.836,14.836,0,0,1,1.984,2.79,6.74,6.74,0,0,1,.295,2.243l.086,4.961a17.842,17.842,0,0,1-1.172,7.722l-3.1,9.426c-1.675,5.1-3.394,10.289-6.413,14.732a4.25,4.25,0,0,1-1.848,1.733,8.977,8.977,0,0,1-1.862.288,4.788,4.788,0,0,0-3.947,4.652,10.923,10.923,0,0,0-2.653-2.711l-6.306-5.033a26.953,26.953,0,0,0-7.025-4.551,19.046,19.046,0,0,0,13.244-16,7.189,7.189,0,0,1,.719-3.149c.525-.848,1.5-1.5,1.567-2.495.086-1.258-1.337-2.207-1.337-3.466,0-.834.618-1.524.891-2.308a5.8,5.8,0,0,0,0-2.955l-.87-4.832a3.688,3.688,0,0,0-.431-1.38,8.924,8.924,0,0,0-1.078-1.136c-1.5-1.675-.834-4.314,0-6.377a60.954,60.954,0,0,1,7.348-12.892,44.088,44.088,0,0,0,2.926-4.185c.762-1.323.935-3.156,1.74-4.314C890.865,416.6,892.266,419.28,893.151,422.077Z" transform="translate(-795.117 -328.852)" fill="#5b5583"/>
    <path id="Path_54" data-name="Path 54" d="M863.207,505.122a3.465,3.465,0,0,0-.82.863,7.268,7.268,0,0,1-3.257,2.322c.719.518,1.373,1.028,2.049,1.553a89.791,89.791,0,0,1,13.661,13.064c.453-1.618,3.164-1.5,3.825-3.049a2.984,2.984,0,0,0,.144-1.38,42.112,42.112,0,0,0-1.035-7.19,8.138,8.138,0,0,0-1.438-3.365,8.629,8.629,0,0,0-4.069-2.3C870,504.849,865.508,503.735,863.207,505.122Z" transform="translate(-793.437 -354.306)" fill="#323444"/>
    <path id="Path_55" data-name="Path 55" d="M847.756,512.341c-2.157,1.6-4.048,3.6-6.471,4.688-1.711.777-3.66,1.114-5.155,2.272a5.123,5.123,0,0,0,4.889,2.646,11.619,11.619,0,0,0,5.472-2.006c1.287-.791,2.8-1.711,4.2-1.158.216,1.093-.719,2.121-.719,3.228a3.254,3.254,0,0,0,1.826,2.495c4.314,2.783,9.865,2.552,15.005,2.229a1.352,1.352,0,0,0,.827-.244,1.3,1.3,0,0,0,.309-.949c.065-1.136.094-2.265.1-3.4a4.875,4.875,0,0,0-2.085-4.8,58.677,58.677,0,0,0-8.987-6.363C853.8,509.142,850.6,510.227,847.756,512.341Z" transform="translate(-786.973 -355.874)" fill="#fbb3b2"/>
    <path id="Path_56" data-name="Path 56" d="M824.769,326.091c-3.192.381-5.515,2.876-5.191,5.587s3.171,4.58,6.363,4.192,5.515-2.876,5.191-5.579S827.962,325.71,824.769,326.091Zm1.086,9.031c-2.7.324-5.112-1.265-5.392-3.552s1.7-4.4,4.393-4.724,5.112,1.265,5.392,3.552S828.551,334.8,825.855,335.121Z" transform="translate(-782.314 -304.169)" fill="#3c354c"/>
    <path id="Path_57" data-name="Path 57" d="M803.129,328.691c-3.192.381-5.515,2.876-5.191,5.579s3.171,4.58,6.363,4.2,5.515-2.876,5.191-5.587S806.322,328.31,803.129,328.691Zm1.086,9.023c-2.7.324-5.112-1.265-5.385-3.545s1.69-4.4,4.393-4.731,5.112,1.265,5.385,3.552-1.7,4.4-4.393,4.724Z" transform="translate(-776.233 -304.9)" fill="#3c354c"/>
    <path id="Path_58" data-name="Path 58" d="M663.168,259.64l6.938,1.481-.683,1.826-6.543-1.92Z" transform="translate(-647.826 -234.462)" fill="#3c354c"/>
    <path id="Path_59" data-name="Path 59" d="M714.569,253.18l-6.4,3.085,1.1,1.611,5.9-3.415Z" transform="translate(-660.552 -232.646)" fill="#3c354c"/>
    <path id="Path_60" data-name="Path 60" d="M687.31,260.832l4.868-.582-.252,1.208-4.177.28Z" transform="translate(-654.69 -234.633)" fill="#3c354c"/>
    <path id="Path_61" data-name="Path 61" d="M795.38,320.188a7.722,7.722,0,0,0,.719-3.142,6.713,6.713,0,0,1,.331-1.913A5.351,5.351,0,0,1,798,313.128a14.5,14.5,0,0,1,8.628-3.013,19.946,19.946,0,0,1,9.98,2.157,7.765,7.765,0,0,1,2.48,1.841c1.007,1.23,1.222,2.819,2.236,4.034a5.874,5.874,0,0,0,5.508,1.726c.352-1.251-.108-2.574.072-3.854a18.644,18.644,0,0,1,1.143-3.192c1.114-3.286-.51-7.1-3.861-9.059-1.172-.719-2.56-1.186-3.437-2.157a16.266,16.266,0,0,1-1.69-2.948c-1.6-2.567-5.752-3.768-8.908-2.581-.992.374-1.869.942-2.876,1.344a23.707,23.707,0,0,1-6.054,1.165,18.544,18.544,0,0,0-5.867,1.539,6.571,6.571,0,0,0-3.674,3.969c-.194.777-.151,1.582-.345,2.351-.992,3.9-7.4,5.8-7.758,9.786a5.711,5.711,0,0,0,1.632,3.99c.676.8,2.294,2.934,3.437,3.243s2.013-.777,3.106-1.15C793.475,321.777,794.518,321.662,795.38,320.188Z" transform="translate(-772.201 -295.621)" fill="#cbceda"/>
  </g>
  <path id="Path_62" data-name="Path 62" d="M912.81,682c0,36.122,22.663,65.357,50.668,65.357" transform="translate(-346.966 -242.693)" fill="#46455b"/>
  <path id="Path_63" data-name="Path 63" d="M983.28,747.08c0-36.532,25.294-66.09,56.549-66.09" transform="translate(-366.769 -242.409)" fill="#ffc400"/>
  <path id="Path_64" data-name="Path 64" d="M938.35,686.56c0,34.318,14.452,62.085,32.3,62.085" transform="translate(-354.143 -243.974)" fill="#ffc400"/>
  <path id="Path_65" data-name="Path 65" d="M983.28,739.9c0-46.677,29.234-84.453,65.357-84.453" transform="translate(-366.769 -235.232)" fill="#46455b"/>
  <ellipse id="Ellipse_4" data-name="Ellipse 4" cx="12.597" cy="2.128" rx="12.597" ry="2.128" transform="translate(601.722 512.897)" fill="#6c63ff" opacity="0.1"/>
  <path id="Path_66" data-name="Path 66" d="M968.46,772.033s7.19-.223,9.347-1.762,11.051-3.386,11.59-.913,10.785,12.3,2.682,12.367-18.852-1.265-21.009-2.581S968.46,772.033,968.46,772.033Z" transform="translate(-362.604 -266.901)" fill="#a8a8a8"/>
  <path id="Path_67" data-name="Path 67" d="M992.23,782.376c-8.11.065-18.845-1.265-21.009-2.581-1.646-1-2.3-4.6-2.524-6.255h-.237s.453,5.8,2.617,7.111,12.9,2.646,21.009,2.581c2.344,0,3.149-.856,3.106-2.085C994.869,781.895,994.013,782.362,992.23,782.376Z" transform="translate(-362.604 -268.416)" opacity="0.2"/>
  <path id="Path_68" data-name="Path 68" d="M148.31,711.36c0,28.76,18.025,52,40.307,52" transform="translate(-132.14 -250.943)" fill="#46455b"/>
  <path id="Path_69" data-name="Path 69" d="M204.37,763.13c0-29.062,20.132-52.58,44.988-52.58" transform="translate(-147.893 -250.715)" fill="#ffc400"/>
  <path id="Path_70" data-name="Path 70" d="M168.62,715c0,27.322,11.5,49.4,25.7,49.4" transform="translate(-137.847 -251.966)" fill="#ffc400"/>
  <path id="Path_71" data-name="Path 71" d="M204.37,757.42c0-37.136,23.26-67.19,52-67.19" transform="translate(-147.893 -245.005)" fill="#46455b"/>
  <ellipse id="Ellipse_5" data-name="Ellipse 5" cx="10.023" cy="1.697" rx="10.023" ry="1.697" transform="translate(44.707 518.958)" fill="#6c63ff" opacity="0.1"/>
  <path id="Path_72" data-name="Path 72" d="M192.58,782.966s5.716-.18,7.434-1.438,8.8-2.7,9.225-.719,8.592,9.786,2.157,9.836-15-1.007-16.717-2.049S192.58,782.966,192.58,782.966Z" transform="translate(-144.58 -270.184)" fill="#a8a8a8"/>
  <path id="Path_73" data-name="Path 73" d="M211.49,791.252c-6.471.05-15-1.007-16.717-2.056-1.309-.791-1.826-3.66-2.006-4.975h-.187s.359,4.609,2.078,5.659,10.267,2.1,16.717,2.049c1.862,0,2.509-.676,2.473-1.661C213.589,790.842,212.877,791.209,211.49,791.252Z" transform="translate(-144.58 -271.417)" opacity="0.2"/>
</svg>
