<svg xmlns="http://www.w3.org/2000/svg" width="47.743" height="47.743" viewBox="0 0 47.743 47.743">
  <g id="Icon_feather-instagram" data-name="Icon feather-instagram" transform="translate(-0.5 -0.5)">
    <path id="Path_152" data-name="Path 152" d="M13.686,3H35.057A10.686,10.686,0,0,1,45.743,13.686V35.057A10.686,10.686,0,0,1,35.057,45.743H13.686A10.686,10.686,0,0,1,3,35.057V13.686A10.686,10.686,0,0,1,13.686,3Z" transform="translate(0)" fill="none" stroke="#000" stroke-linecap="round" stroke-linejoin="round" stroke-width="5"/>
    <path id="Path_153" data-name="Path 153" d="M29.07,19.23a8.549,8.549,0,1,1-7.2-7.2,8.549,8.549,0,0,1,7.2,7.2Z" transform="translate(3.85 3.795)" fill="none" stroke="#000" stroke-linecap="round" stroke-linejoin="round" stroke-width="5"/>
    <path id="Path_154" data-name="Path 154" d="M26.25,9.75h0" transform="translate(9.876 2.867)" fill="none" stroke="#000" stroke-linecap="round" stroke-linejoin="round" stroke-width="5"/>
  </g>
</svg>
