<svg xmlns="http://www.w3.org/2000/svg" width="345.169" height="136.361" viewBox="0 0 345.169 136.361">
  <g id="Group_18" data-name="Group 18" transform="translate(-58.831 -33.657)">
    <g id="bee" transform="translate(109.565 33.656)">
      <g id="Group_8" data-name="Group 8" transform="translate(35.024 0)">
        <path id="Path_75" data-name="Path 75" d="M311.608,14.694a1,1,0,0,1-.962-1.282l2.724-9.354a1.335,1.335,0,0,0-.156-1.009,1.221,1.221,0,0,0-.782-.547l-3.263-.509a1,1,0,1,1,.31-1.979L312.8.534a3.236,3.236,0,0,1,2.113,1.459,3.344,3.344,0,0,1,.387,2.586l-2.735,9.393A1,1,0,0,1,311.608,14.694Z" transform="translate(-308.322 0)" fill="#2c2f38"/>
        <path id="Path_76" data-name="Path 76" d="M393.283,154.416a1,1,0,0,1-.988-.847l-.521-3.325a1.19,1.19,0,0,0-.536-.719,1.327,1.327,0,0,0-1.04-.138l-9.314,2.706a1,1,0,1,1-.558-1.924l9.344-2.714a3.344,3.344,0,0,1,2.616.363,3.2,3.2,0,0,1,1.455,2.053l.533,3.388a1,1,0,0,1-.991,1.157Z" transform="translate(-371.515 -130.62)" fill="#2c2f38"/>
      </g>
      <path id="Path_77" data-name="Path 77" d="M55.281,66.291c-.12,3.966-2.514,6.871-5.639,8.763a10.553,10.553,0,0,1-9.184,1.252,11.277,11.277,0,0,1-2.7.821c-7.111,1.282-10.406-4.267-11.768-7.872h-.01a30.825,30.825,0,0,1-3.546,2.414,22.939,22.939,0,0,1-7.371,2.784c-3.906.7-7.442-.03-9.775-2.364S2.219,66.231,2.92,62.315a22.882,22.882,0,0,1,2.8-7.381,28.723,28.723,0,0,1,2.4-3.546C4.533,50.026-1.046,46.731.236,39.6a11.2,11.2,0,0,1,.821-2.694V36.9a10.544,10.544,0,0,1,1.252-9.184c1.883-3.135,4.8-5.529,8.754-5.649a11.631,11.631,0,0,1,2.494.24c7.031,1.442,12.089,7.842,14.643,14.432a9.417,9.417,0,0,1,1.863-2.644c1.532-1.532,4.417-2.073,7.231-2.173a36.343,36.343,0,0,1,5.789.34,2.3,2.3,0,0,1,2.083,1.973,39.258,39.258,0,0,1,.29,5.849c-.11,2.814-.651,5.7-2.183,7.231a9.023,9.023,0,0,1-2.634,1.843c6.58,2.574,12.97,7.632,14.422,14.653A11.558,11.558,0,0,1,55.281,66.291Z" transform="translate(0 -19.558)" fill="#d1d4d1"/>
      <path id="Path_78" data-name="Path 78" d="M265.425,117.032c-.11,2.814-.651,5.7-2.183,7.231a9.023,9.023,0,0,1-2.634,1.843c-.381-.15-.771-.29-1.152-.421a25.279,25.279,0,0,0-2.895-.831,8.567,8.567,0,0,0-7.121-7.121h-.01a25.281,25.281,0,0,0-.831-2.895l-.01-.01c-.13-.381-.27-.751-.421-1.132v-.01a9.417,9.417,0,0,1,1.863-2.644c1.532-1.532,4.417-2.073,7.231-2.173a36.343,36.343,0,0,1,5.789.34,2.3,2.3,0,0,1,2.083,1.973A39.246,39.246,0,0,1,265.425,117.032Z" transform="translate(-219.969 -96.51)" fill="#f0c419"/>
      <path id="SVGCleanerId_0" d="M243.572,242.053a15.469,15.469,0,0,1-2.995,3A15.165,15.165,0,0,1,243.572,242.053Z" transform="translate(-213.239 -214.59)" fill="#bdc3c7"/>
      <path id="Path_79" data-name="Path 79" d="M296.382,261.479c-.12,3.966-2.514,6.871-5.639,8.763a10.553,10.553,0,0,1-9.184,1.252,8.445,8.445,0,0,0,4.607-4.757,9.954,9.954,0,0,0,.571-2.193c1.282-8.533-5.619-17.056-12-20.792A19.886,19.886,0,0,0,272,242.229a23,23,0,0,1,3.415.421c.741.11,1.5.25,2.274.441a25.278,25.278,0,0,1,2.895.831c.381.13.771.27,1.152.421,6.58,2.574,12.97,7.632,14.422,14.653A11.586,11.586,0,0,1,296.382,261.479Z" transform="translate(-241.1 -214.746)" fill="#d1d4d1"/>
      <path id="Path_80" data-name="Path 80" d="M234.519,263.829a9.946,9.946,0,0,1-.571,2.193,8.445,8.445,0,0,1-4.607,4.757,11.276,11.276,0,0,1-2.7.821c-7.111,1.282-10.406-4.267-11.768-7.872a17.494,17.494,0,0,1-.851-2.874s-3.125-9.224,2.183-16.335l.02-.02a15.468,15.468,0,0,0,2.995-3c.02-.01.03-.03.05-.04.08-.06.26-.03.491.06.01-.01.01,0,.02,0h.01a19.889,19.889,0,0,1,2.734,1.522C228.9,246.773,235.8,255.3,234.519,263.829Z" transform="translate(-188.883 -214.032)" fill="#bdc3c7"/>
      <g id="Group_9" data-name="Group 9" transform="translate(27.338 27.463)">
        <path id="SVGCleanerId_0_1_" d="M243.572,242.053a15.469,15.469,0,0,1-2.995,3A15.165,15.165,0,0,1,243.572,242.053Z" transform="translate(-240.577 -242.053)" fill="#bdc3c7"/>
      </g>
      <g id="Group_10" data-name="Group 10" transform="translate(0.328 35.375)">
        <path id="Path_81" data-name="Path 81" d="M9.955,444.523a13.935,13.935,0,0,0-7.442,4.024A13.94,13.94,0,0,0,6.536,441.1Z" transform="translate(-2.513 -426.432)" fill="#2c2f38"/>
        <path id="Path_82" data-name="Path 82" d="M44.87,328.517v.01a22.939,22.939,0,0,1-7.371,2.784A14.03,14.03,0,0,0,25.36,319.172a22.882,22.882,0,0,1,2.8-7.381A19.824,19.824,0,0,1,44.87,328.517Z" transform="translate(-22.768 -311.791)" fill="#2c2f38"/>
      </g>
      <path id="Path_83" data-name="Path 83" d="M35.507,388.989c-3.906.7-7.442-.03-9.775-2.364s-3.065-5.859-2.364-9.775a14.03,14.03,0,0,1,12.139,12.139Z" transform="translate(-20.448 -334.093)" fill="#f0c419"/>
      <path id="Path_84" data-name="Path 84" d="M30.373,121.209c-.01.02-.03.03-.04.05a15.161,15.161,0,0,0-2.995,3l-.02.02c-7.1,5.308-16.335,2.183-16.335,2.183a17.82,17.82,0,0,1-2.854-.841c-3.6-1.362-9.174-4.657-7.892-11.788a11.2,11.2,0,0,1,.821-2.694v-.01a8.507,8.507,0,0,1,4.757-4.607,9.942,9.942,0,0,1,2.193-.571c8.533-1.282,17.056,5.619,20.782,12a19.887,19.887,0,0,1,1.522,2.734v.02C30.4,120.948,30.433,121.129,30.373,121.209Z" transform="translate(0 -93.796)" fill="#bdc3c7"/>
      <path id="Path_85" data-name="Path 85" d="M34.023,46.45A19.887,19.887,0,0,0,32.5,43.716c-3.726-6.38-12.249-13.281-20.782-12a9.94,9.94,0,0,0-2.193.571A8.507,8.507,0,0,0,4.768,36.9,10.544,10.544,0,0,1,6.02,27.711c1.883-3.135,4.8-5.529,8.754-5.649a11.631,11.631,0,0,1,2.494.24C24.3,23.745,29.356,30.145,31.91,36.735v.01c.15.381.29.751.421,1.132l.01.01a25.281,25.281,0,0,1,.831,2.895,21.173,21.173,0,0,1,.431,2.253A20.737,20.737,0,0,1,34.023,46.45Z" transform="translate(-3.711 -19.558)" fill="#d1d4d1"/>
      <path id="Path_86" data-name="Path 86" d="M266.421,194.177c-.771-.19-1.532-.331-2.274-.441a23.036,23.036,0,0,0-3.415-.421h-.01c-.01,0-.01-.01-.02,0-.23-.09-.411-.12-.491-.06-.02.01-.03.03-.05.04.01-.02.03-.03.04-.05.06-.08.03-.26-.06-.5v-.02a20.734,20.734,0,0,0-.421-3.415,21.167,21.167,0,0,0-.431-2.253h.01a8.568,8.568,0,0,1,7.121,7.121Z" transform="translate(-229.829 -165.833)" fill="#2c2f38"/>
      <path id="Path_87" data-name="Path 87" d="M69.487,285.047a17.5,17.5,0,0,0,.851,2.874h-.01a30.825,30.825,0,0,1-3.546,2.414v-.01A19.824,19.824,0,0,0,50.077,273.6a28.724,28.724,0,0,1,2.4-3.546,17.8,17.8,0,0,0,2.854.841s9.234,3.125,16.335-2.183C66.362,275.823,69.487,285.047,69.487,285.047Z" transform="translate(-44.353 -238.224)" fill="#f0c419"/>
    </g>
    <text id="BeeAhead" transform="translate(138 121)" font-size="49" font-family="Montserrat-Bold, Montserrat" font-weight="700"><tspan x="0" y="0">BeeAhead</tspan></text>
    <path id="Path_88" data-name="Path 88" d="M109.614,91.414S89.956,101.462,98.324,131.8s-16.736,40.794-38.7,33.472" fill="none" stroke="#707070" stroke-width="5" stroke-dasharray="10"/>
  </g>
</svg>
