<svg xmlns="http://www.w3.org/2000/svg" width="518.948" height="422.726" viewBox="0 0 518.948 422.726">
  <g id="Group_25" data-name="Group 25" transform="translate(-700.949 -1306.126)">
    <path id="Path_19" data-name="Path 19" d="M242.73,1426.314c-18.544,84.154-179.8,108.675-11.937,245.9,103.69,40.777,148.015-45.4,237.218,36.971,59.481-11.609,96.5-43.331,118.506-77.557,42.973-66.848,28.649-260.228-116.983-274.552S261.273,1342.159,242.73,1426.314Z" transform="translate(585.84 19.664)" fill="#ffc400" opacity="0.86"/>
    <g id="Group_11" data-name="Group 11" transform="translate(700.949 1306.126)">
      <g id="Group_7" data-name="Group 7" transform="translate(281.111 302.426)">
        <path id="Path_149" data-name="Path 149" d="M660.108,702.01c-.075-.125-1.877-3.132-2.5-9.376-.573-5.728-.2-15.384,4.8-28.853,9.487-25.516-2.186-46.1-2.305-46.308l.576-.334A51.158,51.158,0,0,1,665.5,630.8a59.591,59.591,0,0,1-2.468,33.216c-9.47,25.473-2.43,37.531-2.357,37.65Z" transform="translate(-640.194 -607.321)" fill="#f2f2f2"/>
        <circle id="Ellipse_19" data-name="Ellipse 19" cx="4.327" cy="4.327" r="4.327" transform="translate(11.879)" fill="#f2f2f2"/>
        <circle id="Ellipse_20" data-name="Ellipse 20" cx="4.327" cy="4.327" r="4.327" transform="translate(25.524 15.974)" fill="#f2f2f2"/>
        <circle id="Ellipse_21" data-name="Ellipse 21" cx="4.327" cy="4.327" r="4.327" transform="translate(16.205 26.624)" fill="#f2f2f2"/>
        <circle id="Ellipse_22" data-name="Ellipse 22" cx="4.327" cy="4.327" r="4.327" transform="translate(27.521 35.61)" fill="#f2f2f2"/>
        <circle id="Ellipse_23" data-name="Ellipse 23" cx="4.327" cy="4.327" r="4.327" transform="translate(12.877 49.587)" fill="#f2f2f2"/>
        <path id="Path_150" data-name="Path 150" d="M664.931,733.882s-4.326-10.649,8.653-18.637Z" transform="translate(-642.403 -639.036)" fill="#f2f2f2"/>
        <path id="Path_151" data-name="Path 151" d="M649.181,737.138s-1.969-11.325-17.208-11.228Z" transform="translate(-631.972 -642.484)" fill="#f2f2f2"/>
      </g>
      <path id="Path_140" data-name="Path 140" d="M317.717,260.747a17.491,17.491,0,1,1,17.491-17.491A17.491,17.491,0,0,1,317.717,260.747Zm0-34.378A16.888,16.888,0,1,0,334.6,243.256a16.888,16.888,0,0,0-16.888-16.888Z" transform="translate(-243.618 -178.376)" fill="#3f3d56"/>
      <path id="Path_174" data-name="Path 174" d="M579.717,260.747a17.491,17.491,0,1,1,17.491-17.491,17.491,17.491,0,0,1-17.491,17.491Zm0-34.378A16.888,16.888,0,1,0,596.6,243.256a16.888,16.888,0,0,0-16.888-16.888Z" transform="translate(-328.315 -178.376)" fill="#3f3d56"/>
      <path id="Path_146" data-name="Path 146" d="M532.018,217.47H227.324c-5.932.01-10.738,5.948-10.746,13.277V376.012c.008,7.328,4.815,13.264,10.746,13.277H532.018c5.932-.01,10.738-5.948,10.747-13.277V230.746c-.008-7.328-4.815-13.264-10.747-13.277ZM541.5,376.012c-.007,6.467-4.248,11.707-9.482,11.715h-304.7c-5.235-.008-9.474-5.248-9.482-11.715V230.746c.006-6.467,4.248-11.707,9.482-11.715H532.018c5.234.008,9.474,5.248,9.482,11.715Z" transform="translate(-216.577 -175.694)" fill="#3f3d56"/>
      <rect id="Rectangle_21" data-name="Rectangle 21" width="54.138" height="37.897" transform="translate(22.332 100.202)" fill="#f2f2f2"/>
      <rect id="Rectangle_30" data-name="Rectangle 30" width="54.138" height="37.897" transform="translate(98.126 100.202)" fill="#f2f2f2"/>
      <rect id="Rectangle_31" data-name="Rectangle 31" width="54.138" height="37.897" transform="translate(173.92 100.202)" fill="#f2f2f2"/>
      <rect id="Rectangle_32" data-name="Rectangle 32" width="54.138" height="37.897" transform="translate(249.714 100.202)" fill="#f2f2f2"/>
      <rect id="Rectangle_33" data-name="Rectangle 33" width="54.138" height="37.897" transform="translate(22.332 155.694)" fill="#f2f2f2"/>
      <rect id="Rectangle_34" data-name="Rectangle 34" width="54.138" height="37.897" transform="translate(98.126 155.694)" fill="#f2f2f2"/>
      <rect id="Rectangle_35" data-name="Rectangle 35" width="54.138" height="37.897" transform="translate(173.92 155.694)" fill="#f2f2f2"/>
      <rect id="Rectangle_36" data-name="Rectangle 36" width="54.138" height="37.897" transform="translate(249.714 155.694)" fill="#f2f2f2"/>
      <path id="Path_168" data-name="Path 168" d="M382.121,419.926l-12.78-17.65,3.481-2.52,9.783,13.51,37.435-38.46,3.079,3Z" transform="translate(-265.961 -226.556)" fill="#6c63ff"/>
      <path id="Path_176" data-name="Path 176" d="M495.121,337.926l-12.78-17.65,3.481-2.52,9.783,13.51,37.435-38.46,3.079,3Z" transform="translate(-302.49 -200.048)" fill="#6c63ff"/>
      <rect id="Rectangle_38" data-name="Rectangle 38" width="0.925" height="64.959" transform="translate(73.404)" fill="#2f2e41"/>
      <rect id="Rectangle_40" data-name="Rectangle 40" width="0.925" height="64.959" transform="translate(251.384)" fill="#2f2e41"/>
      <path id="Path_88" data-name="Path 88" d="M858.884,743.371H602.233a.93.93,0,1,1,0-1.857H858.884a.931.931,0,1,1,0,1.857Z" transform="translate(-340.927 -345.101)" fill="#3f3d56"/>
      <path id="Path_238" data-name="Path 238" d="M271.121,337.926l-12.78-17.65,3.481-2.52,9.783,13.51,37.435-38.46,3.079,3Z" transform="translate(-230.078 -200.048)" fill="#6c63ff"/>
      <g id="Group_8" data-name="Group 8" transform="translate(397.956 145.932)">
        <path id="Path_200" data-name="Path 200" d="M870.423,506.885a7.123,7.123,0,0,1,1.1-.235l14.82-30.115-4.525-6.783,9.344-8.166L902.9,475.961l-23.923,34.816a7.106,7.106,0,1,1-8.559-3.892Z" transform="translate(-824.275 -400.542)" fill="#ffb8b8"/>
        <path id="Path_201" data-name="Path 201" d="M896.927,458.99a3.057,3.057,0,0,1-.687.541l-15.163,8.79a3.045,3.045,0,0,1-4.162-1.108q-.064-.11-.118-.224l-7.376-15.58a3.029,3.029,0,0,1,1.04-3.82l9.4-6.394a3.046,3.046,0,0,1,3.87.368l13.137,13.183a3.045,3.045,0,0,1,.058,4.242Z" transform="translate(-825.482 -393.78)" fill="#ccc"/>
        <path id="Path_202" data-name="Path 202" d="M932.011,707.962l-8.006,2.178L911.794,680.3l11.816-3.215Z" transform="translate(-839.276 -470.205)" fill="#ffb8b8"/>
        <path id="Path_203" data-name="Path 203" d="M916.922,722.838l15.439-4.2L935,728.356,909.845,735.2a10.074,10.074,0,0,1,7.076-12.366h0Z" transform="translate(-838.53 -483.639)" fill="#2f2e41"/>
        <path id="Path_204" data-name="Path 204" d="M834.689,716.453h-8.3l-3.947-32h12.245Z" transform="translate(-810.391 -472.588)" fill="#ffb8b8"/>
        <path id="Path_205" data-name="Path 205" d="M814.708,728.236h16v10.075H804.634a10.075,10.075,0,0,1,10.074-10.075Z" transform="translate(-804.634 -486.742)" fill="#2f2e41"/>
        <circle id="Ellipse_33" data-name="Ellipse 33" cx="16.621" cy="16.621" r="16.621" transform="translate(16.417 3.551)" fill="#ffb8b8"/>
        <path id="Path_206" data-name="Path 206" d="M832.157,636.926H820.82a3.054,3.054,0,0,1-3.045-2.858c-3.378-53.706-1.4-92.231,6.219-121.238a3.173,3.173,0,0,1,.123-.374l.609-1.518a3.031,3.031,0,0,1,2.828-1.914h23.315a3.041,3.041,0,0,1,2.312,1.063l3.166,3.695c.062.072.12.146.175.223,14.279,19.914,27.077,58.844,41.9,111.172a3.035,3.035,0,0,1-2,3.734l-12.181,3.9a3.061,3.061,0,0,1-3.671-1.578l-31.619-65.58a2.369,2.369,0,0,0-4.48.708l-9.293,67.933a3.057,3.057,0,0,1-3.018,2.633Z" transform="translate(-808.368 -415.877)" fill="#2f2e41"/>
        <path id="Path_207" data-name="Path 207" d="M858.3,487.051h-.1l-28.322-.9a3.035,3.035,0,0,1-2.93-2.676c-3.587-29.059,6.256-36.845,10.656-38.844a2.341,2.341,0,0,0,1.362-1.856l.381-3.045a3.034,3.034,0,0,1,.6-1.479,34.8,34.8,0,0,1,21.317-12.708A3.041,3.041,0,0,1,864.8,428q.013.075.023.15l.57,4.374a2.408,2.408,0,0,0,.482,1.144c14.387,18.808-1.64,46.577-5,51.953h0A3.051,3.051,0,0,1,858.3,487.051Z" transform="translate(-811.601 -388.876)" fill="#ccc"/>
        <path id="Path_239" data-name="Path 239" d="M848.6,543.874,827.2,548l-.813-4.22,16.378-3.157-19.036-50.181,4.018-1.524Z" transform="translate(-810.807 -409.377)" fill="#6c63ff"/>
        <path id="Path_208" data-name="Path 208" d="M878,393.424a66.149,66.149,0,0,0-13.2-13.819,39.226,39.226,0,0,0-14.014-7.414,21.737,21.737,0,0,0-15.54,1.387c-4.7,2.5-9.559,7.461-9.589,12.783-.009,1.71.426,4.023,2.109,3.727l.487.068,12.186-2.461,5.19,18.012c.365,1.266.854,2.681,2.055,3.22,1.131.508,2.436.029,3.587-.449.188-.078,1.806-3.71,1.806-3.71a.677.677,0,0,1,1.166-.195l.961,1.2a1.353,1.353,0,0,0,1.578.406l19.873-8.3c.916-.382,1.939-.88,2.2-1.837A3.3,3.3,0,0,0,878,393.424Z" transform="translate(-811.432 -371.381)" fill="#2f2e41"/>
        <path id="Path_211" data-name="Path 211" d="M864.224,541.839a7.27,7.27,0,0,0,.951-11.106l5.26-63.525-15.662,2.155-.3,61.718a7.309,7.309,0,0,0,9.745,10.76Z" transform="translate(-820.164 -402.359)" fill="#ffb8b8"/>
        <path id="Path_212" data-name="Path 212" d="M870.944,467.771a3.054,3.054,0,0,1-.866-.125L853.263,462.7a3.045,3.045,0,0,1-2.062-3.781q.036-.121.081-.24l6.223-16.075a3.029,3.029,0,0,1,3.487-1.876l11.109,2.415a3.045,3.045,0,0,1,2.4,3.06l-.517,18.6a3.045,3.045,0,0,1-3.037,2.963Z" transform="translate(-819.647 -393.776)" fill="#ccc"/>
      </g>
    </g>
  </g>
</svg>
