<svg xmlns="http://www.w3.org/2000/svg" width="459.73" height="346.262" viewBox="0 0 459.73 346.262">
  <g id="Group_24" data-name="Group 24" transform="translate(-128.362 -1381.454)">
    <path id="Path_18" data-name="Path 18" d="M234.924,1424.45c-36.816,32.214-216.3,156.469-11.505,237.005s301.434,25.311,342.852-39.117,27.612-250.812-112.75-264.618S271.74,1392.236,234.924,1424.45Z" transform="translate(1.348 26.155)" fill="#ffc400" opacity="0.86"/>
    <g id="Group_1" data-name="Group 1" transform="translate(145.847 1404.319)">
      <path id="Path_1" data-name="Path 1" d="M861.058,242.233H801.934c-8-21.662-11.478-41.8,0-56.922A29.562,29.562,0,0,1,831.5,155.75h0a29.525,29.525,0,0,1,24.1,12.435,24.745,24.745,0,0,1,2.929,22.615C853.748,204.338,856.663,222.811,861.058,242.233Z" transform="translate(-474.308 -155.75)" fill="#2f2e41"/>
      <path id="Path_2" data-name="Path 2" d="M976.13,717.308h0a8,8,0,0,1-7.647-5.648l-2.436-7.916a11.785,11.785,0,0,1-.316-5.656l1.659-8.769h11.636l4.828,17.905a8,8,0,0,1-7.725,10.084Z" transform="translate(-558.155 -417.447)" fill="#2f2e41"/>
      <path id="Path_3" data-name="Path 3" d="M812.251,717.308h0a8,8,0,0,0,7.647-5.648l2.436-7.916a11.785,11.785,0,0,0,.316-5.657l-1.659-8.769H809.355l-4.828,17.905a8,8,0,0,0,7.725,10.084Z" transform="translate(-479.055 -417.447)" fill="#2f2e41"/>
      <path id="Path_4" data-name="Path 4" d="M896.733,542.236H883.839l-55.979-106.3-10.327,106.3H806.161c-5.834-66.937-20.029-130.7,0-154.727l46.858,4.4Z" transform="translate(-474.918 -269.42)" fill="#2f2e41"/>
      <circle id="Ellipse_1" data-name="Ellipse 1" cx="15.724" cy="15.724" r="15.724" transform="translate(339.892 14.781)" fill="#9f616a"/>
      <path id="Path_5" data-name="Path 5" d="M868.112,285.389H833.2l-5.975-27.675c11.593-3.425,14.356-11.39,11.95-22.014l18.869-1.258c1.069,8.558,3.026,16.537,15.1,17.926Z" transform="translate(-490.325 -194.346)" fill="#9f616a"/>
      <path id="Path_6" data-name="Path 6" d="M862.058,335.421c-19.805,7.52-35.917,7.285-47.173-3.145,5.079-16.75,5.383-37.376,3.145-60.067l6.29-2.83,2.2,20.127,31.134-1.572,6.919-22.014,6.919,1.572C872.023,294.787,870.388,319.341,862.058,335.421Z" transform="translate(-484.271 -209.784)" fill="#e6e6e6"/>
      <path id="Path_7" data-name="Path 7" d="M930.245,402.987l3.7,12.018a6.509,6.509,0,0,1-6.222,8.424h0a6.51,6.51,0,0,1-6.474-7.186l1.451-13.885-5.975-47.173,4.4-20.756h11.007Z" transform="translate(-534.218 -243.386)" fill="#9f616a"/>
      <path id="Path_8" data-name="Path 8" d="M763.242,399.606l-6.5,10.764a6.51,6.51,0,0,0,4,9.68h0a6.51,6.51,0,0,0,8.022-5.4l1.955-13.823L787.94,356.5l3.473-21.225-13.4-2.645Z" transform="translate(-455.295 -242.505)" fill="#9f616a"/>
      <path id="Path_9" data-name="Path 9" d="M942.417,304.252l-20.756-.315V267.772l3.2.466a15.278,15.278,0,0,1,13.008,13.71Z" transform="translate(-536.64 -210.693)" fill="#e6e6e6"/>
      <path id="Path_10" data-name="Path 10" d="M788.345,311.658l20.756-.314V275.178l-3.2.466a15.278,15.278,0,0,0-13.008,13.71Z" transform="translate(-471.254 -214.325)" fill="#e6e6e6"/>
      <path id="Path_11" data-name="Path 11" d="M861.466,187.789c-6.68,3.779-19.516,5.508-28.933,2.83l-3.145-16.353h31.134Z" transform="translate(-491.384 -164.831)" fill="#2f2e41"/>
      <rect id="Rectangle_144" data-name="Rectangle 144" width="103" height="83" transform="translate(20.153 216.681)" fill="#e6e6e6"/>
      <rect id="Rectangle_145" data-name="Rectangle 145" width="17.324" height="23.439" transform="translate(62.928 275.659)" fill="#6c63ff"/>
      <path id="Path_12" data-name="Path 12" d="M427.233,715.392l-1.77-1.48.131.924S426.219,715.033,427.233,715.392Z" transform="translate(-293.273 -429.509)" fill="none"/>
      <path id="Path_13" data-name="Path 13" d="M488.026,406.295l2.726-7.269,25.442-14.538,17.264-3.635Z" transform="translate(-239.359 -186.795)" fill="#6c63ff"/>
      <path id="Path_14" data-name="Path 14" d="M260.621,406.295l-2.726-7.269-25.442-14.538-17.264-3.635Z" transform="translate(-105.543 -186.795)" fill="#6c63ff"/>
      <path id="Path_15" data-name="Path 15" d="M390.137,397.616H292.914l-8.178-38.162H398.315Z" transform="translate(-139.653 -176.299)" fill="#6c63ff"/>
      <path id="Path_16" data-name="Path 16" d="M390.137,397.616H292.914l-8.178-38.162H398.315Z" transform="translate(-139.653 -176.299)" opacity="0.1"/>
      <rect id="Rectangle_146" data-name="Rectangle 146" width="98.132" height="80.562" transform="translate(152.806 219.045)" fill="#6c63ff"/>
      <rect id="Rectangle_147" data-name="Rectangle 147" width="17.324" height="23.439" transform="translate(193.21 275.647)" fill="#3f3d56"/>
      <path id="Path_17" data-name="Path 17" d="M442.044,587.12H0v-1.112H442.246Z" transform="translate(0 -287.416)" fill="#3f3d56"/>
      <rect id="Rectangle_148" data-name="Rectangle 148" width="40.763" height="12.738" transform="translate(181.491 235.533)" fill="#fff"/>
      <rect id="Rectangle_149" data-name="Rectangle 149" width="40.763" height="12.738" transform="translate(50.938 235.533)" fill="#fff"/>
    </g>
  </g>
</svg>
