<svg xmlns="http://www.w3.org/2000/svg" width="44.404" height="36.064" viewBox="0 0 44.404 36.064">
  <path id="Icon_awesome-twitter" data-name="Icon awesome-twitter" d="M39.839,12.369c.028.394.028.789.028,1.183,0,12.031-9.157,25.893-25.893,25.893A25.717,25.717,0,0,1,0,35.359a18.827,18.827,0,0,0,2.2.113,18.226,18.226,0,0,0,11.3-3.888,9.117,9.117,0,0,1-8.509-6.311,11.476,11.476,0,0,0,1.719.141A9.625,9.625,0,0,0,9.1,25.1a9.1,9.1,0,0,1-7.3-8.931V16.06a9.165,9.165,0,0,0,4.114,1.155A9.114,9.114,0,0,1,3.1,5.043a25.868,25.868,0,0,0,18.765,9.523,10.273,10.273,0,0,1-.225-2.085,9.109,9.109,0,0,1,15.75-6.227,17.917,17.917,0,0,0,5.776-2.2,9.076,9.076,0,0,1-4,5.015A18.244,18.244,0,0,0,44.4,7.663a19.563,19.563,0,0,1-4.564,4.705Z" transform="translate(0 -3.381)"/>
</svg>
